<?xml version="1.0" standalone="no"?>
<!DOCTYPE svg PUBLIC "-//W3C//DTD SVG 1.1//EN" "http://www.w3.org/Graphics/SVG/1.1/DTD/svg11.dtd" >
<svg xmlns="http://www.w3.org/2000/svg" xmlns:xlink="http://www.w3.org/1999/xlink" version="1.1">
<metadata>
Created by FontForge 20150824 at Mon Aug 15 10:50:05 2016
 By Everything Fonts
Copr.1992 The Font Bureau, Inc. Designer David Berlow
</metadata>
<defs>
<font id="Berlinsans-Roman" horiz-adv-x="554" >
  <font-face 
    font-family="Berlinsans"
    font-weight="550"
    font-stretch="normal"
    units-per-em="1000"
    panose-1="2 0 6 6 4 0 0 2 0 3"
    ascent="800"
    descent="-200"
    x-height="459"
    cap-height="685"
    bbox="-158.667 -203.333 1073 892"
    underline-thickness="40"
    underline-position="-133"
    unicode-range="U+0020-FB02"
  />
<missing-glyph horiz-adv-x="500" 
 />
    <glyph glyph-name="fi" unicode="fi" horiz-adv-x="508" 
d="M463 448q-1 -16 -2.5 -47.5t-3 -65.5t-2.5 -65t-1 -46t1 -47.5t1.5 -67t1.5 -63t1 -34.5q0 -11 -9 -11q-5 0 -22 1t-28 1t-24.5 -1t-18.5 -1q-7 0 -9 2t-3 11q0 4 0.5 25.5t1.5 49t1.5 55.5t0.5 44q0 29 -0.5 74t-0.5 86q0 9 -4.5 12.5t-10.5 3.5q-10 0 -32 0.5t-46 0.5
t-45 0.5t-30 1.5v-27t0.5 -44.5t0.5 -44v-27.5q0 -13 1 -46t2 -68.5t2 -64t1 -32.5q0 -13 -10 -13t-24 0.5t-22 0.5q-7 0 -21.5 -0.5t-20.5 -0.5q-9 0 -11 3t-2 12v337q0 11 -8 11q-19 0 -37.5 -1t-18.5 5q-1 7 -1.5 21t-0.5 20q0 7 -0.5 20t-0.5 18q0 6 9 8q3 1 10 1.5
t15.5 1.5t16 1.5t11.5 0.5q-1 24 -1.5 49t1.5 48.5t8.5 44.5t19.5 38q20 25 51 44.5t84 23.5q34 2 60 0t45.5 -7t34 -11t26.5 -12q8 -3 7 -8q0 -7 -2 -21t-4 -21l-5 -20t-5 -18q-3 -9 -11 -7q-26 10 -51.5 21.5t-51.5 11.5q-31 0 -52.5 -8.5t-29.5 -21.5q-25 -38 -19 -124
q6 0 33 -0.5t57 -1t55 -1t28 -0.5h28t24 1q15 1 29 2t22 3t10 -2t1 -14z" />
    <glyph glyph-name="fl" unicode="fl" horiz-adv-x="519" 
d="M366 614q-19 3 -44 6.5t-51 3.5q-24 0 -43 -11t-27 -23q-16 -23 -24.5 -54.5t-0.5 -72.5h186v39.5t0.5 42t1 38.5t2.5 31zM479 664q-2 -3 -3.5 -6t-2.5 -12.5t-2 -30t-1.5 -58.5t-1 -97t-0.5 -146q0 -10 0.5 -35t0.5 -57t0.5 -67.5t1 -65.5t0.5 -51.5v-26.5q0 -11 -8 -11
q-4 0 -20 1t-27 1t-26.5 -0.5t-20.5 -1.5t-7 1t-2 10v24t0.5 51.5t1 66t1 68t0.5 58v35.5v61q-44 -1 -82 -2q-32 -1 -62 -1.5t-38 -1.5q0 -11 0.5 -21t0.5 -24q0 -9 0.5 -34.5t1.5 -59.5t2 -71t1.5 -69t1 -53.5t0.5 -24.5q0 -13 -10 -13t-24 0.5t-22 0.5q-7 0 -21.5 -0.5
t-20.5 -0.5q-9 0 -11 3t-2 12v339q0 11 -8 11q-19 0 -37.5 -1t-18.5 5q-1 7 -1.5 23.5t-0.5 22.5q0 7 -0.5 17t-0.5 15q0 6 9 8q3 1 10 1.5t15.5 1.5t16 1.5t11.5 0.5q-8 47 -0.5 93.5t30.5 81.5q9 13 24 27t35.5 25t45.5 18.5t53 8.5q27 1 66 -1t70 -10q15 -4 33.5 -9.5
t38.5 -10.5q8 -2 11.5 -6.5t-1.5 -12.5z" />
    <glyph glyph-name=".notdef" horiz-adv-x="500" 
 />
    <glyph glyph-name="NUL" horiz-adv-x="0" 
 />
    <glyph glyph-name="nonmarkingreturn" horiz-adv-x="250" 
 />
    <glyph glyph-name="space" unicode=" " horiz-adv-x="250" 
 />
    <glyph glyph-name="exclam" unicode="!" horiz-adv-x="232" 
d="M184 57q0 -29 -17.5 -49.5t-46.5 -20.5t-46 20.5t-17 49.5t17 48.5t46 19.5t46.5 -19.5t17.5 -48.5zM182 561q0 -6 -0.5 -23t-1 -36t-1 -37.5t-1.5 -27.5q-1 -6 -2.5 -20t-3.5 -29.5t-4.5 -30.5t-3.5 -22q-1 -8 -4 -25t-6 -35.5t-6 -34.5t-3 -21q-1 -10 -3 -12.5t-8 -4.5
t-15 -2h-9.5t-9.5 2q-7 2 -10 15q-8 49 -16 91.5t-10 58.5q-2 7 -3 16t-1 21q0 6 0.5 23.5t0.5 38t0.5 38.5t0.5 24t-0.5 27t-0.5 45t-0.5 44t-0.5 23q0 6 1.5 12.5t4.5 6.5t21 -2.5t33 -2.5t33.5 2.5t21.5 2.5t4.5 -6.5t1.5 -12.5v-18t0.5 -32t0.5 -33.5v-22.5z" />
    <glyph glyph-name="quotedbl" unicode="&#x22;" horiz-adv-x="303" 
d="M126 559q0 -5 -1 -9.5t-2 -7.5q-2 -7 -6 -27t-9 -40q-1 -3 -8 -5q-10 -2 -20 -2q-2 0 -7.5 0.5t-8.5 1.5t-4 1.5t-3 5.5q-1 2 -2.5 9t-3.5 15t-3.5 15t-2.5 10q-1 4 -2.5 11t-3 14.5t-2.5 13.5t-1 8q-1 4 -1.5 12t-0.5 17v16v9v48q0 2 0.5 5.5t2.5 3.5q8 1 20 2t22 1
t23.5 -0.5t19.5 -2.5q2 -1 2.5 -4t0.5 -5v-63v-9.5t0.5 -16.5t0.5 -16.5v-10.5zM270 627q0 -2 -0.5 -9t-0.5 -16t-0.5 -17t-0.5 -12q0 -2 -1 -8t-2.5 -13.5t-3 -14.5t-2.5 -11q-1 -3 -2.5 -10t-3.5 -15t-3.5 -15t-2.5 -9q-2 -5 -3 -5.5t-4 -1.5t-8.5 -1.5t-7.5 -0.5h-10.5
t-9.5 2q-3 2 -5 2.5t-3 2.5q-5 22 -9 41t-6 26q-1 3 -2 7.5t-1 9.5v10.5t0.5 16.5t0.5 16.5v9.5v13.5t-0.5 20t-0.5 19v10.5q0 7 3 9q6 2 20 2.5t24 0.5q9 0 21.5 -1t20.5 -2q2 0 2.5 -3.5t0.5 -5.5v-48z" />
    <glyph glyph-name="numbersign" unicode="#" horiz-adv-x="664" 
d="M412 395q-17 1 -33 1h-31h-59q-2 -8 -5.5 -19.5t-6.5 -23.5t-6 -23t-5 -18q-3 -11 -6.5 -27.5t-6.5 -28.5h66h58l11 44t11 42q1 3 2.5 10.5t4 15.5t4 15.5t2.5 11.5zM638 446q-1 -7 -1.5 -14t-2.5 -12q-1 -6 -1.5 -12.5t-2.5 -11.5q-1 -6 -4.5 -8t-8.5 0q-14 2 -50 3.5
t-83 3.5q-2 -8 -5.5 -20t-6.5 -24.5t-6 -24t-5 -18.5q-3 -10 -6.5 -25t-6.5 -26q38 1 77.5 1.5t71.5 0.5q13 0 10 -13q-2 -16 -5 -27q-1 -6 -1 -14.5t-2 -13.5q-1 -6 -4.5 -8t-8.5 0q-15 2 -59 3.5t-99 3.5q-8 -33 -16 -66.5t-15.5 -64t-13.5 -56t-10 -41.5q-2 -9 -8.5 -11
t-11.5 1t-10.5 6t-10.5 6t-14.5 6t-13.5 5q-5 2 -5 7.5t2 11.5q3 9 9 29t13 47t15.5 58.5t17.5 62.5h-39h-39t-45 -1q-14 -55 -27.5 -114t-27.5 -110q-2 -9 -8.5 -10.5t-11.5 1.5q-5 2 -10.5 4.5t-10.5 5.5t-14.5 6.5t-13.5 6.5q-8 4 -3 19q3 9 8.5 28.5t12.5 45.5t15 56
t17 59q-41 -1 -74 -2t-49 -3q-12 0 -11 13q2 6 4 17t3 16q1 8 1 13t1 10q3 11 13 9q23 -1 57 -2t78 -2q5 21 11 45.5t11 43.5l12 48q-47 -1 -88.5 -2.5t-60.5 -3.5q-11 0 -9 15q3 13 5 25q1 8 1 13t1 10q3 11 13 9q26 -1 65.5 -2t88.5 -2q9 32 18.5 67.5t17.5 68t14.5 58.5
t9.5 40q2 8 8.5 10t11.5 -1t12 -8t12 -7t13 -4t13 -4q4 -2 4 -7.5t-2 -11.5q-4 -15 -10.5 -38.5t-14.5 -51.5t-16.5 -57t-16.5 -55h64h58q9 32 18 67t17.5 66.5t14.5 57t9 39.5q2 9 8.5 11t11.5 -1l12.5 -7.5t12.5 -6.5t12.5 -4.5t11.5 -4.5q5 -3 5 -8t-2 -11
q-5 -15 -12 -38t-14.5 -50t-16 -55.5t-15.5 -53.5q31 1 65.5 1.5t61.5 0.5q13 0 10 -12z" />
    <glyph glyph-name="dollar" unicode="$" horiz-adv-x="430" 
d="M296 156q0 29 -16.5 44.5t-33.5 26.5q-1 -31 -1.5 -61.5t-1.5 -59.5q25 8 39 20t14 30zM193 505q-20 -5 -39 -22t-19 -40q0 -20 18 -39.5t38 -31.5q1 30 1.5 67t0.5 66zM407 531q-4 -8 -8 -18t-6 -16q-3 -7 -5 -15.5t-2 -13.5q-4 -13 -16 -4q-7 4 -21 13t-31 18t-33 12.5
t-32 4.5q0 -2 -0.5 -22t-1.5 -46.5t-1.5 -54.5t-0.5 -46q12 -8 20.5 -13t10.5 -7q27 -17 48 -33t35.5 -33.5t21.5 -38t7 -45.5q0 -48 -22.5 -81.5t-59.5 -53.5q-9 -5 -20 -9.5t-21.5 -7.5t-18 -5t-9.5 -2q1 -31 1 -52.5v-26.5q0 -10 -0.5 -12.5t-5.5 -1.5q-8 2 -24 2
q-14 0 -24 -2q-4 -1 -5.5 0.5t-1.5 12.5v22t1 48q-23 0 -41 1t-34 3t-29.5 5.5t-21.5 5.5q-6 2 -7.5 4t-1.5 8q-1 6 -1.5 18t-1.5 21q-2 9 -4 21t-4 18q-2 5 1 9.5t11 2.5q20 -8 43 -16t59 -9h16.5t16.5 1q1 41 2 86.5t2 80.5q-12 7 -24.5 15.5t-23 16t-18.5 13t-9 7.5
q-70 48 -70 121q0 34 11 59t35 48q20 18 44.5 31t59.5 20q1 15 1 30.5v22.5q-1 12 -1 16t5 4q4 0 13 -1t16 -1t13.5 1t11.5 1t6 -4t0 -15q0 -2 -0.5 -10.5t-0.5 -17.5v-24q3 0 5.5 -0.5t4.5 -0.5q34 -3 72 -17.5t61 -29.5q8 -5 9 -8t-1 -10z" />
    <glyph glyph-name="percent" unicode="%" horiz-adv-x="736" 
d="M632 182q0 48 -21.5 78t-53.5 30t-54 -30t-22 -78q0 -47 23.5 -77t52.5 -30q32 0 53.5 30t21.5 77zM255 420q0 48 -21.5 78t-53.5 30q-31 0 -53.5 -30t-22.5 -78q0 -23 6.5 -43t17.5 -34t24.5 -22t27.5 -8q32 0 53.5 30t21.5 77zM713 182q0 -39 -12 -73.5t-33 -60
t-49.5 -40t-61.5 -14.5t-61.5 14.5t-49.5 40t-33.5 60t-12.5 73.5t12.5 73.5t33.5 60t49.5 40.5t61.5 15t61.5 -15t49.5 -40.5t33 -60t12 -73.5zM513 573q-4 -8 -14 -29t-23 -48.5t-27.5 -58.5t-27.5 -59t-23 -50t-14 -31q-7 -14 -17 -38.5t-22 -54t-24.5 -61t-23.5 -60
t-19 -51t-12 -33.5q-3 -9 -6 -12t-9 0q-8 4 -16.5 9t-15.5 9q-12 7 -1 24q2 3 11 22t22 46t28.5 59t29.5 62t25.5 54t17.5 36q4 8 13 29t20 49t23 59.5t23.5 61.5t21 54.5t14.5 38.5q2 5 4.5 10t10.5 1q5 -4 12 -7.5l13 -6.5q6 -4 8.5 -8.5t-2.5 -15.5zM336 420
q0 -39 -12 -73.5t-33 -60t-49.5 -40t-61.5 -14.5t-61.5 14.5t-49.5 40t-33.5 60t-12.5 73.5t12.5 73.5t33.5 60t49.5 40.5t61.5 15t61.5 -15t49.5 -40.5t33 -60t12 -73.5z" />
    <glyph glyph-name="ampersand" unicode="&#x26;" horiz-adv-x="688" 
d="M357 153q-14 16 -30.5 36.5t-33 41.5t-31 42t-24.5 39q-44 -28 -68.5 -60.5t-24.5 -80.5q0 -42 24.5 -67.5t61.5 -25.5t64 18t62 57zM411 559q0 28 -17.5 45t-48.5 17q-35 0 -58 -20t-23 -62q0 -17 1.5 -31t4.5 -26t6.5 -24t8.5 -26q15 8 36.5 20t41.5 28t34 35.5
t14 43.5zM668 20q0 -12 -6.5 -16t-16.5 -4h-19t-22.5 -0.5t-21.5 -1t-15 -0.5q-11 -1 -38.5 7.5t-50.5 23.5q-22 14 -38 28t-33 36q-11 -12 -27.5 -31t-41.5 -36.5t-58.5 -30t-78.5 -12.5q-41 0 -71.5 15t-50.5 39.5t-30.5 56t-10.5 65.5t7.5 63.5t25.5 57t49.5 54
t79.5 53.5q-7 18 -17.5 49.5t-10.5 76.5q0 88 46 134t124 46q31 0 60 -8.5t51.5 -25t35.5 -41t13 -56.5t-10 -57t-31 -48t-54.5 -46t-80.5 -50q9 -15 20.5 -32.5t24 -35t24.5 -33t21 -26.5q25 31 46 54.5t43.5 39t50 23t65.5 7.5q25 0 32.5 -5t7.5 -19q0 -7 -2 -17.5
t-5 -21.5t-7.5 -21.5t-8.5 -16.5q-25 -3 -47.5 -4.5t-39.5 -9.5q-18 -9 -41.5 -28t-39.5 -42q23 -26 42 -41t37 -23.5t37 -11t43 -2.5q26 0 33.5 -2.5t5.5 -16.5q-1 -8 -1.5 -14.5t-0.5 -13.5q0 -8 1 -15t1 -13z" />
    <glyph glyph-name="quotesingle" unicode="'" horiz-adv-x="172" 
d="M137 612v-26.5t-1 -24.5q0 -8 -1 -17.5t-2 -13.5t-3 -11.5t-4.5 -17.5l-5 -20t-5.5 -19q-2 -8 -7 -9q-10 -2 -19 -2q-3 0 -9.5 0.5t-10.5 1.5q-3 1 -5 3t-4 8t-6.5 22.5t-6.5 24.5q-1 5 -2.5 14t-3 19t-2.5 18.5t-1 11.5q-1 5 -1.5 13l-1 16t-0.5 15v10v43q0 9 6 11
q5 2 19 2.5t25 0.5q10 0 24.5 -1t22.5 -2q2 0 3 -4t1 -8v-9.5t0.5 -16.5t0.5 -18v-14z" />
    <glyph glyph-name="parenleft" unicode="(" horiz-adv-x="351" 
d="M354 631q3 -11 -15 -19q-20 -9 -50 -30.5t-56 -57.5q-16 -22 -28 -51.5t-20 -62.5t-12 -66t-4 -63t5 -65.5t14 -70t21.5 -65t27.5 -51.5q28 -39 51.5 -58t49.5 -33q14 -8 10 -18l-5 -15l-8.5 -25.5t-8 -24.5t-4.5 -13q-2 -6 -6.5 -6t-16.5 6q-40 20 -78 47.5t-65 62.5
q-44 57 -73 140.5t-29 187.5q0 52 10.5 101t26 91t34.5 75.5t37 54.5q26 32 62.5 59t78.5 47q12 5 16 5.5t8 -9.5q1 -3 5.5 -13.5t9 -23t8.5 -23t4 -13.5z" />
    <glyph glyph-name="parenright" unicode=")" horiz-adv-x="351" 
d="M296 280q0 -104 -29 -187.5t-73 -140.5q-27 -35 -65 -62.5t-78 -47.5q-12 -6 -16.5 -6t-6.5 6q-1 2 -4.5 13t-8 24.5l-8.5 25.5l-5 15q-4 10 10 18q26 14 49.5 33t51.5 58q15 21 27.5 51.5t21.5 65t14 70t5 65.5t-4 63t-12 66t-20 62.5t-28 51.5q-26 36 -56 57.5
t-50 30.5q-18 8 -15 19q0 3 4 13.5t8.5 23t9 23t5.5 13.5q4 10 8 9.5t16 -5.5q42 -20 78.5 -47t62.5 -59q18 -21 37 -54.5t34.5 -75.5t26 -91t10.5 -101z" />
    <glyph glyph-name="asterisk" unicode="*" horiz-adv-x="356" 
d="M330 532q3 -5 3 -13t-7 -11q-3 -2 -12.5 -7.5t-20.5 -12.5t-21.5 -13.5t-15.5 -9.5q-10 -6 -9.5 -10t4.5 -12q2 -6 6 -16.5t9 -22.5t9.5 -24t6.5 -21q3 -14 1 -17t-10 -8q-16 -11 -26 1q-4 4 -11.5 12t-16 17t-16 17.5t-12.5 13.5q-9 10 -13 8.5t-10 -8.5
q-4 -5 -11.5 -13t-15.5 -17t-15.5 -17.5t-11.5 -12.5q-6 -6 -11.5 -6t-13.5 5q-5 4 -8.5 6.5t-3.5 11.5q2 9 6.5 22.5l9 27t8.5 24.5t6 15q5 7 4 11t-9 11q-5 3 -16.5 10.5t-24.5 15t-23.5 14t-13.5 8.5q-5 5 -5 11.5t3 12.5t5.5 9t9.5 2q4 0 17 -1.5t27 -2.5t26.5 -2
t16.5 -1q9 0 12 6t5 17q1 6 3 19.5t3.5 27.5t3 26.5t2.5 15.5q3 8 8 10t18 2q14 0 18 -1.5t6 -9.5q1 -3 2.5 -15t3 -26.5t3 -28t2.5 -19.5q3 -23 17 -23q4 0 16 0.5t25.5 1t26 1t18.5 1.5t8 -2t5 -10z" />
    <glyph glyph-name="plus" unicode="+" horiz-adv-x="404" 
d="M383 332q-1 -6 -2 -18t-2 -17q0 -2 -0.5 -8.5t-0.5 -13t-0.5 -12.5t-1.5 -8q-1 -4 -4 -4h-7q-8 0 -42 1t-82 2q0 -20 0.5 -44.5t1 -46.5t1 -38t0.5 -20q0 -11 -10 -14q-6 -2 -20 -3.5t-19 -1.5q-9 0 -23 2t-20 4q-5 2 -5 12t0.5 27.5t1 38.5t0.5 42.5v41.5
q-20 0 -41 -0.5t-38 -1t-29.5 -1t-15.5 -0.5q-10 0 -8 11q1 4 2 17.5t2 17.5q0 3 0.5 9.5t0.5 13v12t1 7.5q2 5 11 5q17 -1 50 -1.5t65 -1.5v38t-0.5 43.5t-0.5 39v25.5t9 8h40q2 0 8.5 0.5t13.5 1t13 0.5t8 -1q3 -1 3.5 -4.5t0.5 -8.5q0 -3 -0.5 -19.5t-1 -38t-1 -45
t-0.5 -39.5h36t38.5 0.5t34 0.5h24.5q11 0 9 -10z" />
    <glyph glyph-name="comma" unicode="," horiz-adv-x="219" 
d="M185 121q1 -17 -4 -45.5t-13 -47.5q-3 -8 -10 -18.5t-16 -22t-18.5 -22.5t-17.5 -20q-7 -7 -16.5 -15t-18 -15t-15.5 -12.5t-9 -6.5q-10 -6 -16 2q-6 7 -17 20t-14 17t-3.5 8.5t3.5 7.5q5 4 16.5 18t17.5 24t10.5 21.5t5.5 21.5q1 11 1.5 22t-1.5 25q-1 12 5 18q5 5 15 8
l9 3t13 4.5t14 4t11 2.5t11 2t15.5 2.5t16 2.5t12.5 1q5 1 9 -1.5t4 -8.5z" />
    <glyph glyph-name="hyphen" unicode="-" horiz-adv-x="386" 
d="M359 348q-2 -11 -5.5 -23t-6.5 -27q-2 -10 -3.5 -25t-2.5 -22q0 -5 -12 -5h-110q-20 0 -47 -1.5t-53 -3.5t-48 -4t-31 -2q-7 -1 -10 4t-3 12t4.5 21.5t8.5 25.5q1 3 3.5 10t5 14.5l4.5 13.5t2 8q2 5 5 6t9 1q7 0 22 -0.5t32.5 -1t34 -1t26.5 0.5q16 0 39 2t46.5 4
t44.5 3.5l35 2.5q12 0 10 -13z" />
    <glyph glyph-name="hyphen" unicode="&#xad;" horiz-adv-x="386" 
d="M359 348q-2 -11 -5.5 -23t-6.5 -27q-2 -10 -3.5 -25t-2.5 -22q0 -5 -12 -5h-110q-20 0 -47 -1.5t-53 -3.5t-48 -4t-31 -2q-7 -1 -10 4t-3 12t4.5 21.5t8.5 25.5q1 3 3.5 10t5 14.5l4.5 13.5t2 8q2 5 5 6t9 1q7 0 22 -0.5t32.5 -1t34 -1t26.5 0.5q16 0 39 2t46.5 4
t44.5 3.5l35 2.5q12 0 10 -13z" />
    <glyph glyph-name="period" unicode="." horiz-adv-x="215" 
d="M182 72q0 -33 -21.5 -57t-53.5 -24t-53 24t-21 57t21 56t53 23t53.5 -23t21.5 -56z" />
    <glyph glyph-name="slash" unicode="/" horiz-adv-x="286" 
d="M268 642q-5 -20 -16 -61.5t-24 -91.5t-26.5 -102t-23.5 -92q-11 -46 -24 -99.5t-24.5 -102t-21 -87t-13.5 -54.5q-3 -13 -13 -8q-4 2 -16 7t-15 7q-4 1 -17 6t-16 7q-2 2 -1.5 7.5t2.5 11.5l13.5 49.5t24 90t28 109.5t27.5 109q9 36 20.5 84.5t23.5 96t21.5 88t14.5 61.5
q2 8 4.5 9.5t7.5 -0.5t13.5 -6.5t17.5 -8.5t17 -5.5t15 -6.5q3 -2 3 -5.5t-2 -12.5z" />
    <glyph glyph-name="zero" unicode="0" horiz-adv-x="597" 
d="M454 294q0 39 -11 73.5t-31.5 60.5t-49.5 41t-64 15t-63.5 -14.5t-49 -40t-31.5 -60.5t-11 -75q0 -41 11.5 -76t32 -60.5t49 -40.5t62.5 -15t62.5 16t49.5 43t32.5 61.5t11.5 71.5zM569 294q0 -65 -20.5 -121t-57 -97t-86 -65t-107.5 -24q-57 0 -106.5 24t-86 65
t-57.5 97t-21 121q0 64 21 120t57.5 97t86 64.5t106.5 23.5q58 0 107.5 -23.5t86 -64.5t57 -97t20.5 -120z" />
    <glyph glyph-name="one" unicode="1" horiz-adv-x="280" 
d="M224 569q-5 -39 -8 -113t-3 -177v-73.5t0.5 -82t1 -69t0.5 -34.5q0 -19 -17 -19h-44q-9 0 -24.5 -1t-22.5 -1q-11 0 -13.5 3.5t-1.5 13.5q0 6 1 31t2 54.5t2 55.5t1 34q0 7 0.5 26.5t1 45.5t0.5 54t0.5 52.5t0.5 41v19.5q0 9 -2 10.5t-10 -0.5q-6 -2 -15 -4t-18.5 -4
t-18.5 -3.5l-15 -2.5q-5 -1 -9 1.5t-2 10.5q1 5 1.5 12.5t0.5 16.5q0 10 -0.5 18.5t-1.5 13.5t2 7t9 4q13 5 31.5 18t28.5 22q11 10 23.5 23.5t17.5 21.5q4 5 7 7t8 0q8 -2 18 -4t18 -4t22 -3.5t22 -3.5q9 -1 6 -18z" />
    <glyph glyph-name="two" unicode="2" horiz-adv-x="485" 
d="M472 90q-1 -8 -2 -21t-1 -22v-45q0 -5 -3 -8t-13 -3t-24 1.5t-22 2.5q-7 0 -26 1t-42.5 1.5t-46.5 1t-38 0.5t-48 -0.5t-67.5 -1t-62 -1t-32.5 -0.5q-13 0 -14 10q-2 5 -3 14.5t-2 14.5t-3 16.5t-4 19.5q-2 5 -0.5 8.5t11.5 5.5q7 1 18 2t24 3q8 2 15.5 5t12.5 8
q11 10 37 36t53 56q62 69 95 117t33 90q0 20 -8.5 38.5t-24 32t-36.5 21.5t-46 8q-56 0 -94.5 -18t-67.5 -43q-3 -2 -7 -4t-8 0q-6 4 -6 17q-1 6 -1 17.5t-2 16.5q-2 6 -4 15t-4 14q-3 6 -1.5 9t6.5 7q20 15 45.5 27t52.5 21q26 8 54.5 13.5t59.5 5.5q77 0 131 -31
q83 -47 83 -145q0 -35 -19 -72.5t-50 -77.5q-9 -12 -21 -27t-26 -30.5t-28.5 -30.5t-27.5 -28q-15 -15 -31 -34t-29 -30q21 -1 58 -0.5t75 2.5t71 4.5t47 4.5q14 3 14 -15z" />
    <glyph glyph-name="three" unicode="3" horiz-adv-x="471" 
d="M446 167q0 -40 -16.5 -76t-51.5 -62q-29 -20 -68.5 -30.5t-83.5 -10.5q-26 0 -56.5 2.5t-57.5 9.5q-26 6 -49.5 15t-36.5 14q-8 3 -9 6t1 8q2 7 5.5 16t6.5 19q3 9 6 20t4 16q3 15 16 8q29 -20 65 -31t71 -11q68 0 100.5 26.5t32.5 70.5q0 45 -30 72t-87 28
q-14 0 -31 -0.5t-33.5 -0.5h-30.5h-21q-12 1 -12 11q0 4 0.5 12t1 17t1.5 17t2 11q2 7 4.5 8.5t11.5 0.5q24 -2 57 -4.5t62 -4.5q13 0 26.5 3.5t24.5 12.5t18.5 23.5t7.5 35.5q0 39 -27.5 64.5t-89.5 25.5q-42 0 -71.5 -7.5t-51.5 -21.5q-11 -4 -12 11q-1 4 -1 12t-1 18
q0 9 -1.5 17.5t-1.5 13.5q0 12 15 19q29 13 75 21q38 7 87 7q44 0 81.5 -9.5t63.5 -29.5q63 -45 63 -115q0 -45 -20 -77q-8 -14 -19.5 -25.5t-22.5 -21.5q-6 -5 -9.5 -7.5t-8.5 -4.5q7 -2 13 -5t13 -6q14 -7 28.5 -20t25.5 -30q21 -33 21 -81z" />
    <glyph glyph-name="four" unicode="4" horiz-adv-x="500" 
d="M297 487q-6 0 -10.5 -13t-12.5 -25q-12 -19 -33 -48t-44.5 -60.5t-47 -61t-39.5 -49.5q-5 -5 -5.5 -9t7.5 -5t32 -1t52 0.5t53.5 1t36.5 1.5q0 16 1 50.5t2.5 72t3 70t3.5 44.5q2 10 4 21t-3 11zM482 133q0 -10 -11 -9q-4 0 -12 0.5t-17 0.5h-16.5h-10.5q-7 0 -9 -2.5
t-2 -12.5q0 -6 1 -20.5t1.5 -31t1.5 -31t1 -20.5q0 -8 -2 -9.5t-10 -3.5t-23.5 -2.5t-26.5 -0.5h-32.5t-20.5 1q-6 1 -11.5 1t-7.5 2q-5 5 -3 11q2 8 3.5 24.5t3 34t2.5 31.5t1 18q0 11 -8 11q-3 0 -21 -0.5t-42.5 -1t-53.5 -1t-54 -1t-43.5 -1t-22.5 -0.5q-8 0 -11.5 2
t-6.5 5q-4 5 -6.5 7.5t-2.5 8.5q0 7 -1 19.5t-1 17.5q0 7 1 21.5t1 18.5q0 5 1 9.5t6 9.5t15.5 18t16.5 20q20 23 37.5 44.5t27.5 35.5q6 9 17 24.5t22.5 32.5t22 32t16.5 23q13 18 23.5 34t20.5 30q16 24 26.5 40t15.5 24q6 8 9 9.5t15 0.5q8 -1 24.5 -4t24.5 -5
q10 -3 23.5 -8t21.5 -8q10 -4 12.5 -5.5t2.5 -12.5q0 -5 -1 -24t-2.5 -42.5t-2.5 -46.5t-1 -37t-0.5 -37.5t-0.5 -51v-55.5v-50q7 0 17.5 0.5l21 1t19.5 1t12 1.5q8 2 8 -8q0 -6 -0.5 -20t-0.5 -25t1 -21t1 -17z" />
    <glyph glyph-name="five" unicode="5" horiz-adv-x="476" 
d="M437 198q0 -106 -67 -159q-27 -23 -68.5 -37.5t-104.5 -14.5q-54 0 -99.5 10.5t-78.5 24.5q-7 3 -8.5 4.5t-1.5 6.5q0 7 1.5 22.5t2.5 21.5q1 3 2.5 10t3.5 14.5t3.5 14t2.5 8.5q2 17 16 6q26 -22 59.5 -35.5t70.5 -13.5q66 0 105 28.5t39 82.5t-41.5 76t-117.5 19
q-9 0 -21.5 -1.5t-25.5 -3t-23.5 -3t-15.5 -2.5q-8 -2 -12 2.5t-3 12.5q1 9 1 25.5v34.5v34.5v27.5v44.5t-0.5 46.5t-1 38.5t-0.5 20.5q0 3 3.5 8t8.5 9.5t10 7t7 2.5q4 -1 17.5 -1.5t31.5 -1t36.5 -1t31.5 -0.5q23 -1 50.5 -1t53.5 1t47 2t30 2q18 2 15 -13
q-2 -5 -3.5 -17.5t-3.5 -24.5q-1 -11 -1.5 -19.5t-0.5 -13.5t-8 -11.5t-13 -5.5q-11 1 -28 2t-35.5 1.5t-35.5 0.5t-29 1h-19h-25t-24.5 -0.5t-18.5 -0.5q0 -4 -0.5 -21.5t-1.5 -38t-2 -39t-1 -24.5q8 0 22 2t40 4q42 3 85 -3.5t68 -24.5q33 -21 54.5 -57t21.5 -90z" />
    <glyph glyph-name="six" unicode="6" horiz-adv-x="513" 
d="M382 211q0 22 -7.5 42.5t-21.5 36t-35 25t-48 9.5q-62 0 -93 -26t-31 -74q0 -27 7.5 -53.5t22.5 -47.5t36.5 -34t49.5 -13q62 0 91 37.5t29 97.5zM487 213q0 -50 -15 -91.5t-43.5 -71.5t-70 -46.5t-95.5 -16.5q-55 0 -98 19.5t-72 55t-44.5 84t-15.5 107.5q0 41 9.5 82.5
t29.5 77.5q23 45 58.5 81t73.5 60q35 21 80 34t90 13q10 0 13 -10q2 -5 5.5 -15t5.5 -18q3 -8 7 -17t6 -15q2 -7 -2 -13t-15 -6q-29 0 -59.5 -5.5t-62.5 -22.5q-35 -18 -57 -38.5t-39 -56.5q-4 -8 -3.5 -12t2.5 -5t5 -0.5t5 2.5q9 7 23 13t29.5 9.5t31 5.5t28.5 2
q39 0 73.5 -12.5t60.5 -36t41 -58t15 -79.5z" />
    <glyph glyph-name="seven" unicode="7" horiz-adv-x="441" 
d="M426 519q-1 -10 -10 -17q-2 -2 -4.5 -5t-5.5 -7q-45 -60 -70.5 -118.5t-43.5 -112.5q-6 -17 -15 -46.5t-18 -63.5t-17 -68.5t-11 -61.5q-1 -9 -4 -16t-12 -9q-8 -2 -24.5 -3t-33.5 -1t-32 1t-24 3q-5 1 -5.5 4.5t-0.5 7.5q3 36 13 73t22 70.5t24.5 62.5t22.5 50
q11 24 24.5 51.5t27.5 55t27.5 54t25.5 47.5q2 5 3.5 11.5t-12.5 6.5q-4 0 -23 -1t-45 -2.5t-56.5 -3t-57 -3t-46.5 -3t-25 -1.5q-8 0 -11 1.5t-2 7.5q1 7 3 22.5t4 26.5q2 13 1.5 30.5t-0.5 23.5q0 8 6 9.5t12 0.5q6 0 19 -1t28.5 -1.5t31.5 -1.5t28 -2q9 -1 30.5 -1.5
t49 -1t57.5 -1t56.5 -0.5h47h27.5q14 0 17 -16q2 -10 2 -25t-1 -26z" />
    <glyph glyph-name="eight" unicode="8" horiz-adv-x="496" 
d="M365 178q0 22 -10 42t-27 34q-15 12 -35.5 17.5t-43.5 5.5q-25 0 -48.5 -7t-38.5 -20q-15 -14 -22.5 -32.5t-7.5 -38.5q0 -19 7 -37.5t20 -31.5q15 -16 38.5 -24t51.5 -8q22 0 44 5t36 17q17 14 26.5 34.5t9.5 43.5zM342 425q0 17 -8 34.5t-22 28.5q-13 10 -30.5 15.5
t-34.5 5.5t-36 -4.5t-31 -15.5q-11 -10 -19.5 -28.5t-8.5 -35.5q0 -34 27 -58q13 -11 31.5 -17t36.5 -6t37.5 7t32.5 18q25 22 25 56zM476 167q0 -40 -16.5 -76t-51.5 -62q-29 -20 -72.5 -30.5t-87.5 -10.5q-48 0 -89.5 10.5t-70.5 30.5q-35 26 -51.5 62t-16.5 76
q0 37 13 65t34 47q26 23 54 31q-11 7 -24 15t-24 22q-9 12 -20.5 34.5t-11.5 51.5q0 34 15.5 69t47.5 58q26 20 63.5 29.5t81.5 9.5q38 0 77.5 -9.5t65.5 -29.5q63 -45 63 -115q0 -32 -9.5 -58t-26.5 -44q-10 -11 -21.5 -18t-22.5 -15q31 -9 55 -32q20 -19 33 -46.5
t13 -64.5z" />
    <glyph glyph-name="nine" unicode="9" horiz-adv-x="513" 
d="M367 369q0 28 -7.5 53t-22 44.5t-36 31t-49.5 11.5q-61 0 -90 -32t-29 -94q0 -23 7.5 -43.5t21.5 -36.5t34.5 -25.5t47.5 -9.5q31 0 54 8.5t38.5 23t23 32.5t7.5 37zM480 328q0 -41 -8.5 -84.5t-28.5 -79.5q-23 -47 -59 -82t-75 -60q-16 -9 -38.5 -18t-47.5 -16
t-51 -11.5t-48 -4.5q-10 0 -13 9q-2 6 -6 16t-6 18q-3 8 -5.5 16.5t-4.5 14.5q-3 11 0 15.5t17 4.5q28 0 67 8t67 23q41 20 65 50.5t34 61.5q4 11 3.5 17.5t-14.5 -2.5q-25 -17 -55.5 -24t-56.5 -7q-39 0 -73.5 12.5t-60.5 36.5t-41 59.5t-15 81.5q0 49 14.5 88.5t43 68
t70.5 44t96 15.5q56 0 99 -20t72 -55.5t44 -85.5t15 -110z" />
    <glyph glyph-name="colon" unicode=":" horiz-adv-x="200" 
d="M166 64q0 -29 -19 -50.5t-48 -21.5t-47.5 21.5t-18.5 50.5q0 24 15.5 47t51.5 23q31 0 48.5 -21t17.5 -49zM166 325q0 -32 -21 -50.5t-47 -18.5q-9 0 -20.5 4t-21.5 12t-16.5 21.5t-6.5 31.5q0 29 18.5 49.5t47.5 20.5t48 -20.5t19 -49.5z" />
    <glyph glyph-name="semicolon" unicode=";" horiz-adv-x="200" 
d="M166 107q1 -18 -3 -40.5t-12 -41.5q-6 -15 -21.5 -38.5t-31.5 -40.5q-7 -8 -16 -16t-17.5 -15t-15 -12.5t-9.5 -6.5q-11 -6 -16 2q-6 7 -17.5 15.5t-13.5 13.5q-7 7 0 15q5 5 16.5 19t17.5 23q14 20 17 46q1 10 0.5 20t-0.5 24q0 9 2 13q4 6 10 8q5 2 22 5t25 5
q16 4 30.5 8.5t19.5 3.5q12 0 13 -10zM170 325q0 -29 -19 -50t-48 -21t-47.5 21t-18.5 50q0 30 18.5 50t47.5 20t48 -20t19 -50z" />
    <glyph glyph-name="semicolon" unicode="&#x37e;" horiz-adv-x="200" 
d="M166 107q1 -18 -3 -40.5t-12 -41.5q-6 -15 -21.5 -38.5t-31.5 -40.5q-7 -8 -16 -16t-17.5 -15t-15 -12.5t-9.5 -6.5q-11 -6 -16 2q-6 7 -17.5 15.5t-13.5 13.5q-7 7 0 15q5 5 16.5 19t17.5 23q14 20 17 46q1 10 0.5 20t-0.5 24q0 9 2 13q4 6 10 8q5 2 22 5t25 5
q16 4 30.5 8.5t19.5 3.5q12 0 13 -10zM170 325q0 -29 -19 -50t-48 -21t-47.5 21t-18.5 50q0 30 18.5 50t47.5 20t48 -20t19 -50z" />
    <glyph glyph-name="less" unicode="&#x3c;" horiz-adv-x="356" 
d="M333 455q4 -5 3 -8t-5 -8q-18 -23 -46.5 -46t-59.5 -43t-59.5 -35t-44.5 -21q-11 -4 -11.5 -6.5t10.5 -7.5q23 -9 53.5 -27.5t61 -40.5t56 -43.5t37.5 -36.5q5 -5 6.5 -9t-2.5 -10q-3 -5 -8.5 -13t-8.5 -15t-6.5 -14.5t-5.5 -12.5q-3 -11 -16 1q-10 10 -26.5 24.5
t-35.5 29.5t-37 29t-30 23q-21 15 -55 34.5t-66 33.5q-6 3 -8.5 5.5t-2.5 11.5q0 7 1 17.5t1 17.5t-1 16.5t-1 15.5q0 8 2.5 11t10.5 6q4 1 19 9.5t34.5 20t38.5 23t31 19.5q12 7 31.5 22.5t39.5 32t36.5 30t21.5 17.5q8 6 12.5 5t6.5 -6q3 -6 5 -12.5t5 -13.5t7 -14t6 -12z
" />
    <glyph glyph-name="equal" unicode="=" horiz-adv-x="436" 
d="M405 256q-1 -6 -1.5 -17t-1.5 -16t-1 -17t-1 -17q0 -4 -3.5 -5t-7.5 0t-20.5 1.5t-42 1.5t-57.5 1.5t-68 0.5q-63 0 -108 -2t-52 -3q-11 0 -9 12q1 5 2 16.5t1 16.5q1 7 0.5 18t0.5 16q1 9 9 7q10 0 33 -1t49.5 -1.5t51 -1t38.5 -0.5q8 0 33 0.5t54.5 1t56 1t37.5 0.5
q8 0 7 -13zM404 406q-1 -6 -1.5 -18t-1.5 -17t-1 -18.5t-1 -17.5q0 -8 -10 -6q-3 0 -19 1t-42 2t-58.5 1.5t-68.5 0.5q-63 0 -108 -1.5t-52 -2.5q-12 0 -9 16q1 5 1.5 15.5t1.5 15.5v18.5t1 16.5q1 8 10 8q10 -1 33 -2t49 -1.5t50.5 -1t38.5 -0.5q8 0 33 0.5t54 1t55 1
t37 0.5q10 0 8 -12z" />
    <glyph glyph-name="greater" unicode="&#x3e;" horiz-adv-x="356" 
d="M331 250q0 -9 -2.5 -11.5t-8.5 -5.5l-33 -16.5t-33 -17.5t-30.5 -17.5t-24.5 -16.5q-11 -9 -29 -23.5t-37 -29.5t-36 -29t-27 -24q-13 -12 -16 -1q-2 5 -5.5 12.5t-6.5 14.5t-8.5 15t-8.5 13q-4 6 -2.5 10t6.5 9q12 15 37.5 36.5t56 43.5t61 40.5t53.5 27.5
q11 5 10.5 7.5t-11.5 6.5q-17 6 -45 21t-59 35t-59.5 43t-46.5 46q-4 5 -5 8t3 8q2 5 7 13.5t8 15.5t6.5 13.5t5.5 11.5q1 5 4 5t11 -6q5 -4 21.5 -17.5t36.5 -30t39.5 -32t31.5 -22.5q12 -8 31 -19.5t38.5 -23t34.5 -20t19 -9.5q8 -3 10.5 -6t2.5 -11q0 -6 -1 -15.5
t-1 -16.5t1 -17.5t1 -17.5z" />
    <glyph glyph-name="question" unicode="?" horiz-adv-x="398" 
d="M238 55q0 -28 -18.5 -48t-44.5 -20t-44 20t-18 48q0 29 18 48t44 19t44.5 -19t18.5 -48zM377 498q0 -30 -9 -57.5t-23 -51.5t-31.5 -43.5t-34.5 -31.5q-35 -27 -53 -52.5t-20 -54.5q-1 -11 -1.5 -17t-2 -9t-4 -4.5t-8.5 -3.5q-10 -3 -22 -5h-12.5t-10.5 1q-10 2 -14 4.5
t-4 19.5q0 59 20 93q3 6 10.5 16t15.5 20t15 18.5t10 11.5q6 7 14.5 19t16.5 27.5t14 33.5t6 36q0 48 -27.5 74.5t-69.5 26.5q-19 0 -36 -5t-31.5 -12.5t-27 -16t-22.5 -15.5q-4 -2 -8 -1.5t-6 8.5q-2 7 -3.5 20t-2.5 27q-1 11 -1 21.5v16.5q1 7 4.5 9.5l10.5 7.5
q7 6 24 15.5t39 17.5t47.5 14t50.5 6q36 0 70 -11.5t60 -34.5t41.5 -57.5t15.5 -80.5z" />
    <glyph glyph-name="at" unicode="@" horiz-adv-x="621" 
d="M469 340q0 15 -5.5 30t-16.5 27t-27 19.5t-37 7.5q-23 0 -39.5 -8.5t-27 -22t-15.5 -29t-5 -29.5q0 -43 22 -69.5t56 -22.5q38 4 66.5 28.5t28.5 68.5zM569 367q0 -24 -6 -52.5t-15.5 -56t-21.5 -51.5t-24 -40q-5 -7 -18 -6t-23 4q-12 4 -16 8t-6 13q-2 16 -6.5 19
t-16.5 -8q-8 -8 -28 -18t-45 -10q-65 0 -102 46q-17 22 -27 51.5t-10 61.5q0 38 12 71t34 56q21 23 49.5 33t57.5 10t48.5 -8t30.5 -16q13 -9 20.5 -16t14.5 -7q8 0 9.5 5t1.5 10q0 25 -9.5 53t-27.5 52t-45 39.5t-62 15.5q-51 0 -93.5 -23t-74 -62t-49 -90.5t-17.5 -108.5
q0 -53 15.5 -104t45.5 -90.5t74 -64t101 -24.5q3 0 8 -1.5t5 -6.5v-56q0 -4 -5 -7t-8 -3q-68 0 -125 27.5t-98.5 75.5t-65 113.5t-23.5 140.5t26 140.5t69 113.5t98.5 75.5t114.5 27.5q62 0 106.5 -25.5t72.5 -70.5t41 -105.5t13 -130.5z" />
    <glyph glyph-name="A" unicode="A" horiz-adv-x="659" 
d="M414 320q-25 66 -40 105t-24.5 62.5t-15 35.5t-11.5 23q-6 -15 -19 -48t-27.5 -69t-26.5 -67.5t-16 -44.5q-8 -23 -11.5 -35t5 -18t30.5 -7t65 -1t66.5 0.5t32 6.5t5 19t-12.5 38zM653 13q4 -9 0.5 -11t-10.5 -2q-12 0 -28 1.5t-26 1.5q-12 0 -30.5 -1.5t-25.5 -1.5
q-9 0 -11.5 6t-6.5 17q-14 44 -22.5 69t-14.5 37.5t-11 16t-12 3.5q-8 0 -28.5 0.5t-47 0.5h-57h-57t-46.5 -0.5t-27 -0.5q-6 0 -11 -5.5t-10 -19t-12 -36.5t-18 -59q-6 -20 -8.5 -24.5t-8.5 -4.5q-11 0 -27.5 0.5t-27.5 0.5q-14 0 -29.5 -0.5t-25.5 -0.5t-9.5 6.5t6.5 22.5
q2 5 10 26.5t19 52t24 67t26 71t24 64t17 46.5q7 18 19 48t26 64.5t28.5 70t26.5 65t20 50t9 24.5q4 12 5.5 16t13.5 2q10 -2 22 -3t26 -1q11 0 24 1.5t24 3.5q6 2 9 -1.5t8 -16.5q3 -6 15 -37t29 -74t36 -92t36 -91q4 -10 15.5 -40.5t27.5 -70.5t33.5 -85t32 -83t25 -64
t11.5 -29z" />
    <glyph glyph-name="B" unicode="B" horiz-adv-x="611" 
d="M454 216q0 51 -37 72.5t-121 21.5q-42 0 -66.5 -0.5t-37 -2t-16 -4t-3.5 -6.5v-80q0 -24 1 -56t1 -52q0 -10 124 -10q45 0 74.5 7t47.5 21t25.5 36.5t7.5 52.5zM441 491q0 34 -13 55t-37 32.5t-57.5 15.5t-75.5 4q-45 0 -63.5 -3t-18.5 -9q0 -5 -0.5 -17.5t-1 -26.5
t-1 -28.5t-0.5 -24.5q0 -20 0.5 -39t0.5 -31q0 -4 2.5 -6.5t13 -4t33 -2.5t61.5 -1q73 0 115 22t42 64zM578 211q0 -46 -15 -84.5t-38 -64.5q-29 -32 -67 -46.5t-69 -14.5h-17t-34 0.5t-42.5 1t-42.5 1t-34.5 0.5h-17.5q-5 0 -26.5 -0.5t-45.5 -1.5t-44 -1.5t-22 -0.5
q-8 0 -10.5 3t-1.5 14q0 2 1 21.5t2 48.5t2.5 64t2.5 69.5t1.5 64.5t0.5 49q0 20 -0.5 51.5t-1.5 67.5t-2.5 73t-2.5 67.5t-2 51t-1 22.5q-1 11 1 14.5t11 3.5h19t35 -0.5t35.5 -0.5h19.5h153q59 0 99.5 -10t75.5 -36q29 -21 46 -56t17 -80q0 -16 -5.5 -34.5t-14.5 -35.5
t-21 -31.5t-26 -23.5q-15 -9 -14 -12.5t14 -10.5q15 -8 29.5 -22t26.5 -32.5t19 -41t7 -47.5z" />
    <glyph glyph-name="C" unicode="C" horiz-adv-x="593" 
d="M586 120q8 -8 -6 -24q-15 -16 -34.5 -35t-47 -35.5t-65.5 -28t-89 -11.5q-68 0 -126 25.5t-100 72t-66 112.5t-24 146t24 146t67 113t101 73t126 26q48 0 83.5 -8.5t62.5 -22.5t46.5 -32t36.5 -37q9 -11 8 -17t-4 -11q-3 -7 -10.5 -18.5t-12.5 -19.5q-6 -8 -12.5 -20.5
t-11.5 -17.5q-4 -4 -9 -2.5t-9 5.5q-16 16 -32 31.5t-35 27.5t-42.5 19.5t-55.5 7.5q-45 0 -81.5 -17t-62.5 -48.5t-40 -76t-14 -98.5q0 -60 15.5 -105t42.5 -76t63 -46.5t76 -15.5q57 0 97 25.5t73 60.5q4 4 8 6t9 -4q4 -5 10 -14.5t14 -20.5t15.5 -20.5t11.5 -14.5z" />
    <glyph glyph-name="D" unicode="D" horiz-adv-x="680" 
d="M532 346q0 57 -19.5 107.5t-58.5 82.5q-29 26 -66.5 38.5t-82.5 12.5q-44 0 -69.5 -0.5t-38 -3t-16 -6.5t-3.5 -10v-19.5t-0.5 -39.5t-1 -50.5t-1 -51.5t-0.5 -41.5v-22.5v-22.5t0.5 -41.5t1 -50.5t1 -49.5t0.5 -39.5v-19.5q0 -6 4 -10.5t17.5 -6.5t39 -3t69.5 -1
q55 0 93 13t70 53q23 28 42 76.5t19 105.5zM652 346q0 -73 -23.5 -135.5t-58.5 -106.5q-38 -48 -93 -77t-127 -27q-4 0 -26 0.5t-47.5 1.5t-47.5 1.5t-26 0.5q-5 0 -25.5 -0.5t-44 -1t-44 -1.5t-24.5 -1q-8 -1 -10.5 2.5t-1.5 14.5q0 2 1 21.5t1.5 48.5t1.5 64t2 69.5
t1.5 64.5t0.5 49q0 20 -0.5 51.5t-1 67.5t-1.5 73t-2 67.5t-1.5 51t-0.5 22.5q-2 11 0.5 14.5t11.5 3.5h18t29 -0.5t32.5 -0.5h28.5h144q61 0 115.5 -16t95.5 -47q25 -20 47 -47.5t39 -63t27 -77t10 -87.5z" />
    <glyph glyph-name="E" unicode="E" horiz-adv-x="538" 
d="M513 98q-2 -10 -4.5 -21.5t-4.5 -23.5q-2 -13 -4 -28t-3 -23t-9 -8.5t-22 1.5q-7 1 -25.5 2.5t-44 3t-56 2.5t-60.5 1q-20 0 -54.5 -0.5t-68.5 -1t-61 -1.5t-31 -1q-17 -1 -16 14q0 3 1 24t2.5 52t3 68.5t2.5 73t2 65.5t1 46q0 19 -0.5 50t-2 66t-2.5 71t-2.5 65.5
t-2.5 49t-1 22.5q-2 11 1.5 15t14.5 3q3 0 18.5 -0.5t37 -1t46 -1t45.5 -1t36.5 -0.5h17.5q14 0 43.5 0.5t61 1.5t57.5 1.5t34 0.5q24 0 25 -14q1 -8 1.5 -18t2.5 -17q2 -6 3 -21.5t3 -23.5t-2 -10t-14 -1q-8 1 -27 2t-40.5 2t-41 1.5t-29.5 0.5q-68 1 -103 3t-50 -5.5
t-16 -28t-1 -63.5v-57.5t5 -25.5t17.5 -6.5t37.5 0.5q35 0 72.5 0.5t70.5 1.5t59.5 2.5t39.5 3.5q5 1 8.5 -2t1.5 -11q-2 -6 -2.5 -17.5t-2.5 -25.5q-2 -15 -2 -28v-21q0 -9 -12.5 -8.5t-45.5 3.5q-14 1 -47 2t-69.5 1t-67.5 -0.5t-41 -1.5q-8 -1 -12.5 -2t-6.5 -7.5
t-2.5 -21t-0.5 -41.5q0 -54 1 -81.5t12.5 -39t38 -11.5h78.5q28 0 59 1.5t58 3.5t47.5 4t27.5 3q11 2 14.5 -0.5t2.5 -11.5z" />
    <glyph glyph-name="F" unicode="F" horiz-adv-x="533" 
d="M520 585q0 -7 -2.5 -8.5t-13.5 -0.5q-51 2 -92 3.5t-74.5 3t-61 2t-52.5 -0.5q-20 -1 -29.5 -1t-13 -6.5t-3 -24.5t0.5 -55q0 -45 -0.5 -65.5t3 -27t13 -5t30.5 1.5q27 0 68.5 1t81 2.5t69 2.5t34.5 1q6 1 9 -1.5t1 -11.5q-1 -5 -1.5 -18.5t-0.5 -25.5q0 -14 0.5 -31
t1.5 -22q0 -7 -8.5 -6.5t-21.5 1.5q-29 1 -69 2t-79 1h-69.5t-39.5 -1q-22 -1 -22 -18q0 -28 0.5 -71t1.5 -84t2 -72.5t1 -36.5q1 -10 -3 -12.5t-14 -1.5q-7 1 -21.5 2.5t-31.5 1.5q-14 0 -30 -1.5t-21 -1.5q-8 0 -10.5 3t-1.5 14q0 2 1 20.5t2 46t2 61.5t2 69t1.5 67
t0.5 56q0 72 -2.5 152t-7.5 175q-1 11 1 14.5t11 3.5q2 0 15.5 -0.5t33.5 -0.5t43.5 -0.5t45.5 -0.5h40h26q9 0 28 0.5t43.5 2t50 2.5t48 2.5t37.5 2t18 0.5q20 0 21 -16q1 -7 0.5 -20t1.5 -20q2 -8 4 -26t2 -23z" />
    <glyph glyph-name="G" unicode="G" horiz-adv-x="675" 
d="M648 31q2 -12 -1 -15.5t-11 -2.5q-3 0 -12.5 4t-21 9t-22 11t-15.5 10q-9 -6 -28.5 -16.5t-47.5 -20.5t-62.5 -17t-74.5 -7q-70 0 -129 27t-102.5 75t-68 113t-24.5 140q0 80 25 146t68.5 113t103 73t127.5 26q54 0 97 -15t75 -36t53 -43.5t31 -37.5q10 -13 4 -21
q-3 -6 -14 -17t-19 -20q-6 -6 -16 -18.5t-15 -17.5t-11.5 -3.5t-11.5 8.5q-14 21 -32 40t-39 34t-45.5 23.5t-51.5 8.5q-42 0 -79 -18t-65 -50.5t-44.5 -77t-16.5 -97.5q0 -49 15.5 -93t43.5 -77.5t65.5 -53t81.5 -19.5q28 0 50.5 3t41.5 9.5t36.5 15.5t35.5 21
q-1 11 -2 26.5t-2.5 30.5t-2.5 28t-1 19q-1 9 -2 21.5l-2 25t-1.5 22t-0.5 12.5q1 7 5.5 8t12.5 0q7 0 22 -1t26 -1q5 0 13.5 0.5t17.5 0.5t16 0.5t10 0.5q6 0 8.5 -2.5t1.5 -13.5q0 -6 -0.5 -20t-1 -32t-1 -38.5t0.5 -40.5q0 -16 0.5 -38.5t2 -45.5t3 -44t3.5 -34z" />
    <glyph glyph-name="H" unicode="H" horiz-adv-x="716" 
d="M666 17q1 -11 -1.5 -14.5t-12.5 -2.5q-3 0 -9.5 0.5t-15 1t-16 1t-11.5 0.5q-5 0 -13 -0.5t-17 -1t-16 -1t-10 -0.5q-8 0 -10 3.5t-1 12.5q0 3 0.5 22.5t1 47.5t1 60t1 59.5t1 47t0.5 22.5q0 10 -1.5 15.5t-9.5 6.5q-3 0 -30 0.5t-58.5 1.5t-56.5 1.5t-24 0.5t-10.5 -0.5
t-29.5 -0.5t-39.5 -1t-40.5 -1t-33 -0.5t-16 -0.5q-11 -1 -11 -22q0 -3 0.5 -22.5t1 -47t1 -59.5t1 -60t1 -47.5t0.5 -22.5q0 -10 -2 -13t-10 -3q-3 0 -10.5 0.5t-16 1l-17 1t-12.5 0.5t-12 -0.5l-16 -1t-15 -1t-9 -0.5q-8 0 -10.5 3t-1.5 14q0 2 1 21.5t2 48t2.5 63.5
t2.5 69.5t1.5 65t0.5 49.5t-0.5 51t-1.5 68t-2.5 73t-2.5 67.5t-2 50.5t-1 23q-1 11 1 14.5t11 3.5q3 0 10 -0.5t15.5 -1t16.5 -1t12 -0.5t12 0.5t17 1t16.5 1t9.5 0.5q8 1 10 -2t1 -13q0 -3 -0.5 -21t-1.5 -43.5t-1.5 -55.5t-1.5 -56t-1.5 -44.5t-0.5 -21.5q0 -10 1.5 -15
t8.5 -6q3 0 29.5 -0.5t57 -1.5t56.5 -1.5t29 -0.5q2 0 15 0.5t31.5 0.5t39 1t39 1t31.5 0.5t15 0.5q8 1 9.5 6.5t1.5 14.5q0 3 -0.5 21.5t-1 44.5t-1 56t-1 55.5t-1 43.5t-0.5 21q-1 10 1 13t10 2q2 0 9 -0.5t16 -1t17 -1t12 -0.5t12 0.5l16 1t15.5 1t9.5 0.5q9 0 11 -3.5
t1 -14.5q0 -3 -1 -23t-2 -50.5t-2 -67.5t-2 -73t-1.5 -68t-0.5 -51q0 -20 0.5 -50t1.5 -64.5t2.5 -69.5t2.5 -63.5t2 -48t1 -21.5z" />
    <glyph glyph-name="I" unicode="I" horiz-adv-x="237" 
d="M185 15q1 -9 -1.5 -12.5t-12.5 -2.5q-3 0 -10 0.5t-15.5 1t-16.5 1t-12 0.5t-12 -0.5t-16.5 -1t-16 -1t-9.5 -0.5q-8 0 -10.5 3t-1.5 14q0 2 1 22.5t2 50.5t2.5 66.5t2.5 72.5t1.5 67.5t0.5 50.5q0 30 -1.5 82l-3 104t-3.5 91t-2 43q-1 11 1.5 15t13.5 3q3 0 10 -0.5
t15.5 -1t16 -1t11.5 -0.5t12 0.5l16 1t15.5 1t9.5 0.5q9 0 11 -3t1 -13q0 -3 -0.5 -23.5t-1.5 -51.5t-2 -68t-1.5 -72t-1 -64t-0.5 -43q0 -12 0.5 -40.5t1.5 -64.5t2 -75t1.5 -72t1.5 -55.5t1 -24.5z" />
    <glyph glyph-name="J" unicode="J" horiz-adv-x="267" 
d="M217 667q-1 -15 -2 -52t-2.5 -81.5t-2 -88.5t-0.5 -72q0 -58 0.5 -101.5t-0.5 -77.5t-4.5 -61.5t-11.5 -52.5q-8 -26 -20 -49.5t-25.5 -42.5t-27 -33.5t-24.5 -23.5q-6 -5 -11 -7t-10 5q-2 2 -6 7t-9 11t-9.5 11.5t-6.5 7.5q-2 1 -7 6t-11 10t-11.5 10t-7.5 7q-9 7 1 16
q6 4 15.5 12t20 20t20.5 28.5t16 39.5q6 21 8.5 54.5t3 70t0.5 72v62.5q0 54 -4 131t-8 165q0 9 2 11.5t12 2.5q3 0 11 -0.5t17 -1t17 -1t11 -0.5t10.5 0.5t16.5 1t16.5 1t10.5 0.5q10 0 11.5 -3t0.5 -14z" />
    <glyph glyph-name="K" unicode="K" horiz-adv-x="596" 
d="M589 32q3 -4 2.5 -9.5t-2.5 -10.5t-5 -8.5t-7 -3.5q-8 1 -20.5 1.5t-22.5 0.5h-14.5t-20.5 -0.5t-20.5 -1t-13.5 -0.5q-5 -1 -8.5 4t-10.5 14q-14 19 -31 46.5t-34 57t-32 58t-25 51.5q-8 19 -14 32t-11.5 20.5t-12 11t-15.5 4.5q-33 1 -51.5 0.5t-28 -2.5t-12 -5.5
t-2.5 -7.5q0 -5 0.5 -26t1 -50t1 -61t1.5 -60t1.5 -48t0.5 -23q0 -10 -2 -13t-10 -3q-3 0 -10.5 0.5t-16 1l-17 1t-12.5 0.5t-12 -0.5l-16 -1t-15 -1t-9 -0.5q-8 0 -10.5 3t-1.5 14q0 2 1 21.5t2 48t2.5 63.5t2.5 69.5t1.5 65t0.5 49.5t-0.5 51t-1.5 68t-2.5 73t-2.5 67.5
t-2 50.5t-1 23q-1 11 1 14.5t11 3.5q3 0 10 -0.5t15.5 -1t16.5 -1t12 -0.5t12 0.5t16.5 1t15.5 1t9 0.5q8 1 10 -2t1 -13q0 -3 -0.5 -21t-1 -44t-1 -56.5t-1 -56.5t-1 -44.5t-0.5 -21.5q0 -22 4 -28t18 -5q56 2 88 11t51 24q13 11 26.5 31.5t26 45t23.5 51t20 50t15 42
t9 26.5q2 4 4.5 6.5t10.5 4.5q4 1 11.5 1.5t15.5 0.5h15h10q7 0 23 -1t22 -3q11 -2 8 -15q-2 -11 -8 -29.5t-14 -45.5q-12 -37 -29.5 -75t-38.5 -70q-16 -24 -38 -48.5t-36 -36.5q-8 -7 -11 -13t2 -17q5 -13 15.5 -33.5t21.5 -42.5q13 -25 28.5 -54t33.5 -55
q23 -35 47.5 -65.5t38.5 -50.5z" />
    <glyph glyph-name="L" unicode="L" horiz-adv-x="517" 
d="M511 101q-1 -5 -2 -18.5t-2 -28.5t-1.5 -27.5t-1.5 -17.5q-2 -9 -6.5 -12.5t-17.5 -1.5q-10 1 -37 2t-59 2.5t-63.5 2.5t-50.5 1h-24t-39 -0.5t-46 -1t-44.5 -1t-34.5 -0.5h-16q-8 0 -10.5 3t-1.5 14q0 2 0.5 21.5t1.5 48t2 63.5t1.5 69.5t1 65t0.5 49.5t-0.5 50.5
t-1.5 68t-2.5 73t-2.5 67t-2 50.5t-1 23q-1 11 1 14.5t11 3.5q3 0 10 -0.5t15.5 -1t16.5 -1t12 -0.5t12 0.5t17 1t16.5 1t9.5 0.5q8 0 10 -3t1 -12q0 -2 -0.5 -21t-1.5 -47t-2 -62t-1.5 -67.5t-1 -62t-0.5 -46.5q0 -52 -0.5 -113t0.5 -131q1 -11 2 -15t6 -4h31t40.5 0.5
t43.5 1t40 0.5q22 1 46 2t45.5 3t40 4t30.5 4q12 3 10 -14z" />
    <glyph glyph-name="M" unicode="M" horiz-adv-x="790" 
d="M737 17q1 -11 -1.5 -14t-10.5 -3q-3 0 -9.5 0.5t-15 1t-16.5 1t-12 0.5t-12 -0.5t-16.5 -1t-15.5 -1t-10 -0.5q-8 0 -10 3t-2 13q0 3 1 31t1.5 68.5t1.5 87t2 86.5t1.5 68t0.5 31q0 12 -4.5 9.5t-6.5 -5.5q-15 -36 -34.5 -82.5t-41 -98.5t-43.5 -107t-42 -107
q-1 -2 -6.5 -3.5t-13 -2t-14 -0.5h-8.5t-9 0.5t-14.5 1.5t-13.5 2.5t-7 3.5q-21 50 -45.5 107t-48 111.5t-44.5 101.5t-34 79q-3 7 -6.5 7t-3.5 -11q0 -16 0.5 -49t0.5 -74t1 -84.5t1 -80.5t0.5 -62t0.5 -28q0 -10 -2 -13t-10 -3q-2 0 -8.5 0.5t-14.5 1l-16 1t-12 0.5
t-12 -0.5l-16 -1t-15 -1t-9 -0.5q-8 0 -10.5 2.5t-1.5 11.5q0 3 1 22t2 48.5t2.5 64.5t2.5 69.5t1.5 65t0.5 50.5q0 19 -0.5 50.5t-1.5 67.5t-2.5 72.5t-2.5 67t-2 50t-1 22.5q-1 11 1 14t10 4q4 0 10.5 0.5t14 1t14 1t9.5 0.5q10 1 27 2t21 3q5 2 8 -0.5t10 -18.5
q18 -42 39.5 -90.5t43 -98t42 -96t37 -84.5t27.5 -63.5t14 -31.5q8 -18 14 -33t10 -15q3 0 10 14.5t11 24.5q4 11 18 44.5t32 79t38.5 98t39.5 101t34 88t22 59.5q6 19 16 19q2 0 9 -0.5t15 -1l16 -1t12 -0.5q8 0 24.5 -1t23.5 0q9 1 11 -2.5t1 -15.5q0 -3 -0.5 -23
t-1.5 -50t-1.5 -67t-1.5 -73t-1.5 -67.5t-0.5 -50.5q0 -20 0.5 -50t1.5 -64.5t2 -69.5t1.5 -63.5t1.5 -48t1 -21.5z" />
    <glyph glyph-name="N" unicode="N" horiz-adv-x="718" 
d="M665 669q0 -3 -1 -22.5t-1.5 -49t-1.5 -66t-2 -72.5t-1.5 -69t-0.5 -55v-145.5t2 -173.5q1 -10 -1.5 -13t-10.5 -3q-5 0 -20 1.5t-24 1.5q-10 0 -25 -1.5t-23 -1.5q-7 0 -11 4t-10 12q-16 21 -44.5 59.5t-64 86t-74 99t-73 97t-62 80.5t-40.5 50q-2 2 -3.5 -2t-1.5 -18
q0 -42 0.5 -96t1 -113.5t1.5 -121.5t2 -121q0 -10 -2 -13t-8 -3q-3 0 -9.5 0.5t-14.5 1t-15.5 1t-11.5 0.5q-3 0 -11 -0.5l-16 -1t-15 -1t-10 -0.5q-8 -1 -10.5 2t-1.5 13q0 3 1 22t2 48t2.5 64.5t2.5 70t1.5 65t0.5 49.5t-0.5 51t-1.5 68t-2 73t-2 67.5t-2 50.5t-1 23
q-2 9 0.5 12t10.5 2q8 0 23.5 0.5t26.5 1.5t27.5 4t23.5 3q3 0 6 -2t9 -12q35 -48 81 -110t94 -126t92.5 -123t76.5 -100q6 -8 11.5 -15t7.5 -7t2.5 10t0.5 23q1 52 0.5 112t-2 119t-4 113.5t-3.5 96.5q0 8 1.5 12t8.5 4q2 0 9 -0.5t15.5 -1t16.5 -1t12 -0.5t12.5 0.5
t17.5 1t16.5 1t9.5 0.5q7 0 9 -3t1 -13z" />
    <glyph glyph-name="O" unicode="O" horiz-adv-x="725" 
d="M578 344q0 47 -16 91t-44.5 77.5t-68 53.5t-87.5 20t-87 -20.5t-67.5 -54t-44 -77.5t-15.5 -91t15.5 -91t44 -78t68 -54t86.5 -20q48 0 87.5 20.5t68 54t44.5 77.5t16 92zM696 343q0 -74 -25.5 -139.5t-70.5 -114t-106 -76.5t-131 -28q-71 0 -132 28t-105.5 76.5t-70 114
t-25.5 139.5t26 139t71 114t105.5 77t130.5 28t131 -28t106 -77t70.5 -114t25.5 -139z" />
    <glyph glyph-name="P" unicode="P" horiz-adv-x="624" 
d="M481 425q0 28 -8 57.5t-26 52.5t-47 38t-72 15q-5 0 -28.5 -1t-50 -2.5t-48 -4t-21.5 -4.5t-0.5 -14.5t-1 -30.5t-0.5 -38.5t-0.5 -38.5t-0.5 -31v-15q0 -6 0.5 -24t0.5 -38t0.5 -37.5t0.5 -23.5q0 -3 4.5 -5t21 -3.5t48.5 -2.5t86 -1q37 0 63.5 12t44 32.5t26 48
t8.5 59.5zM604 432q0 -56 -16 -102.5t-45 -80t-70 -52t-90 -19.5q-16 -1 -40 -0.5t-50 1t-51.5 1.5t-45.5 2q-9 0 -12.5 -3.5t-3.5 -16.5q0 -9 0.5 -31.5t1.5 -47t2 -45t2 -26.5q1 -9 -1.5 -11.5t-12.5 -1.5q-7 1 -23.5 2.5t-33.5 1.5q-14 0 -30 -1.5t-21 -1.5q-8 0 -10.5 2
t-1.5 13q0 2 0.5 22t1.5 49.5t2.5 65t2.5 70.5t1.5 65.5t0.5 49.5q0 20 -0.5 50t-1.5 64.5t-2.5 69.5t-2.5 64.5t-2 51t-2 27.5q-1 11 1 14.5t11 3.5q16 0 59 -0.5t100 -0.5q45 0 83.5 2t54.5 2q54 0 99.5 -19.5t77.5 -53.5t50 -80t18 -100z" />
    <glyph glyph-name="Q" unicode="Q" horiz-adv-x="725" 
d="M579 344q0 47 -16 90.5t-45 77t-68.5 53t-87.5 19.5q-47 0 -86.5 -20t-68 -53.5t-44.5 -77t-16 -90.5t16 -91t44.5 -77.5t68 -53.5t86.5 -20q48 0 87.5 20t68.5 54t45 77.5t16 91.5zM696 344q0 -68 -22 -128t-60 -106.5t-90.5 -77t-112.5 -38.5q5 -16 12.5 -31t12.5 -24
q6 -9 18 -22t21 -21q5 -4 2 -10.5t-9 -8.5q-11 -2 -30 -2.5t-37 -0.5h-43.5t-24.5 2q-7 2 -9.5 4t-5.5 11q-5 14 -8.5 44t-4.5 60q-60 12 -110.5 43.5t-87 77t-57 104t-20.5 124.5q0 74 26 139t71.5 113.5t106 76.5t129.5 28t129.5 -28t106 -76.5t71.5 -113.5t26 -139z" />
    <glyph glyph-name="R" unicode="R" horiz-adv-x="594" 
d="M445 447q0 40 -9 67t-30.5 43.5t-57.5 23t-89 6.5q-51 0 -66 -4t-15 -9q0 -8 -0.5 -25t-1 -37t-1 -41.5t-0.5 -37.5v-93q0 -2 14 -3t34 -2t43.5 -1.5t43.5 -0.5q69 0 102 27.5t33 86.5zM573 19q5 -12 5.5 -15.5t-7.5 -3.5q-3 0 -10 0.5t-15.5 1l-17 1t-14.5 0.5
t-15.5 -0.5l-19 -1t-17 -1t-9.5 -0.5q-8 0 -11 2t-6 10q-1 3 -7.5 18t-15.5 35.5t-19.5 45t-20 46t-16.5 38.5t-10 23q-3 7 -8 12t-20.5 7.5t-46.5 2.5t-85 -2q-7 0 -8.5 -6.5t-1.5 -18.5q0 -14 1 -45t2 -63.5t2 -59.5t1 -32q1 -9 -1.5 -12t-12.5 -2q-7 1 -22.5 2.5
t-32.5 1.5q-15 0 -30.5 -1.5t-20.5 -1.5q-8 0 -10.5 3t-1.5 14q0 2 1 21.5t2 49t2.5 65t2.5 70.5t1.5 65t0.5 49q0 20 -0.5 50t-1.5 64.5t-2.5 70t-2.5 65.5t-2 51.5t-2 27.5q-1 11 1 14.5t11 3.5h17t31 0.5t38.5 1t39.5 0.5q13 0 32.5 0.5t39 0.5t36.5 0.5t25 0.5
q53 0 98 -13.5t78 -40t51.5 -66.5t18.5 -94q0 -46 -8 -78t-21.5 -54.5t-30.5 -37.5t-36 -27q-7 -5 -8.5 -9.5t2.5 -12.5q3 -5 10.5 -22t18 -39.5t22.5 -49t23 -51t20 -44.5t14 -30z" />
    <glyph glyph-name="S" unicode="S" horiz-adv-x="467" 
d="M437 626q-4 -7 -11.5 -19.5t-10.5 -19.5q-5 -10 -10 -23.5t-9 -19.5q-5 -8 -19 -1q-38 19 -71.5 26.5t-60 4t-44.5 -16.5t-24 -35q-5 -16 -4.5 -32t11 -31.5t33.5 -31t64 -30.5q62 -23 98.5 -68.5t36.5 -109.5q0 -58 -25.5 -103t-68.5 -74.5t-101 -42.5t-122 -7
q-16 2 -17 10q-1 7 -3 25t-6 29t-5.5 21.5t-6.5 22.5q-5 16 6 15q110 -13 161.5 8t59.5 62q3 16 2 32t-12 32.5t-34.5 33.5t-65.5 35q-51 22 -78 52.5t-37.5 65t-7.5 69.5t13 65q9 28 29.5 50t47 37.5t57.5 23.5t62 8q22 0 47 -4t48.5 -10.5t44 -15t33.5 -17.5q6 -5 5 -7.5
t-5 -8.5z" />
    <glyph glyph-name="T" unicode="T" horiz-adv-x="513" 
d="M505 593q1 -13 -9 -13q-3 0 -23 1t-46.5 1.5t-55 1.5t-48.5 2q0 -14 -1 -47.5t-1.5 -71t-1 -71.5t-0.5 -49q0 -12 0.5 -40.5t1.5 -64.5t2 -75t1.5 -72t1.5 -55.5t1 -24.5q1 -9 -1.5 -12.5t-12.5 -2.5q-3 0 -10 0.5t-15 1t-16.5 1t-12.5 0.5t-12 -0.5t-16.5 -1t-15.5 -1
t-10 -0.5q-8 0 -10.5 3t-1.5 14q0 2 1 22.5t2 50.5t2 66.5t2 72.5t1.5 67.5t0.5 50.5q0 47 -1.5 108.5t-3.5 130.5q-18 -1 -48 -2.5t-59.5 -2.5t-52 -2t-25.5 -1q-4 1 -5 3t1 8q1 3 4 16.5t5 28.5q3 16 4 29.5t3 17.5q2 5 4 6t10 0q4 -1 32 -2.5t64 -3t72.5 -3t59.5 -1.5
q22 0 58 1.5t71 3.5t62 4t32 3q8 0 10 -1t4 -8q0 -5 -0.5 -20.5t-0.5 -26.5q0 -8 1.5 -20.5t1.5 -19.5z" />
    <glyph glyph-name="U" unicode="U" horiz-adv-x="660" 
d="M610 667q0 -3 -1 -23t-2 -50.5t-2 -67l-2 -73t-1.5 -68t-0.5 -50.5q0 -35 1 -71t0 -70t-5 -62.5t-14 -48.5q-13 -26 -34 -44.5t-52.5 -29.5t-74.5 -16t-99 -5q-62 0 -106 6.5t-73.5 20t-47.5 34t-27 47.5q-7 19 -9.5 50t-2.5 64.5t1 67t1 57.5q0 19 -0.5 50.5t-1.5 68
l-2 73t-2 67t-2 51t-1 22.5q-2 11 0.5 14.5t11.5 3.5q5 0 23 -1t30 -1t30.5 0.5t24.5 0.5q8 1 10 -2t1 -13q0 -3 -0.5 -32.5t-1.5 -74.5t-1.5 -97.5t-1 -100.5t-1 -85t-0.5 -50q0 -44 9 -71.5t28 -42.5t48.5 -20.5t70.5 -5.5q39 0 68 5.5t48.5 19t28.5 37t9 60.5
q0 10 -0.5 47t-1 87t-1 106t-1 103.5t-1 79.5t-0.5 35q-1 10 1 12.5t10 2.5q2 0 9 -0.5t16 -0.5t17 -0.5t12 -0.5t12 0.5l16 1t15.5 1t9.5 0.5q9 0 11 -3.5t1 -14.5z" />
    <glyph glyph-name="V" unicode="V" horiz-adv-x="619" 
d="M589 441q0 -5 -4.5 -17t-15.5 -36t-31 -62.5t-50 -94.5q-20 -38 -40 -74.5t-36 -66.5t-27 -50.5t-13 -25.5q-4 -8 -6.5 -11.5t-9.5 -2.5q-4 0 -19 0.5t-30 0.5q-15 1 -30 0t-19 -1q-6 0 -8 3t-6 11q-2 3 -13 23.5t-27.5 51.5t-36.5 68.5t-39 75.5q-30 55 -49 92t-30 60
t-15 34t-4 16q0 25 1 63.5t2 74.5t1.5 63t0.5 31q0 11 2 14.5t10 3.5q3 0 10 -0.5t15.5 -1t16.5 -1t12 -0.5t12 0.5t17 1t16 1t9 0.5q8 1 10 -2t1 -13q0 -5 -1 -22t-2 -41.5t-2.5 -51.5t-2.5 -51.5t-1.5 -43t-0.5 -23.5q0 -12 15 -44.5t37.5 -75t49 -89.5t49.5 -87
q11 18 26.5 46t32.5 60l34 64t31 59.5t22.5 47t8.5 24.5t-0.5 23t-1 42.5t-1 52t-1 51t-1 40t-0.5 19.5q-1 10 1 13t10 2q2 0 9 -0.5t16 -1t17 -1t12 -0.5t12 0.5l16 1t15.5 1t9.5 0.5q9 0 11 -3.5t1 -14.5v-30t0.5 -60.5t1 -72t0.5 -63.5z" />
    <glyph glyph-name="W" unicode="W" horiz-adv-x="892" 
d="M863 435q0 -9 -25 -59t-73 -150q-19 -39 -36.5 -76t-31 -66.5t-22.5 -48.5t-10 -22q-4 -8 -6 -10.5t-7 -2.5q-4 0 -17.5 0.5t-27.5 0.5q-13 0 -26 -0.5t-17 -0.5q-8 -1 -10 2t-5 11q-2 4 -14 34.5t-28 72t-33 85.5t-29 76q-13 -33 -30 -77.5t-33 -85.5t-28 -71t-14 -34
q-3 -8 -5 -11t-10 -2q-3 0 -16.5 0.5t-25.5 0.5q-14 0 -28 -0.5t-17 -0.5q-6 0 -8 2.5t-6 10.5q-2 3 -10.5 22t-22.5 48.5t-31.5 66.5t-36.5 76q-48 99 -70.5 149.5t-22.5 59.5q0 25 1 64t1.5 76t1.5 64.5t1 31.5q-1 8 1 11t11 3q2 0 9.5 -0.5t15.5 -1l16 -1t12 -0.5
t11.5 0.5t15.5 0.5t14.5 0.5t8.5 0.5q7 1 9 -1.5t1 -10.5q-1 -5 -1.5 -22.5t-1.5 -41.5t-2 -51.5t-2 -52t-1.5 -42.5t-0.5 -24t9.5 -30t24 -56.5t31.5 -68.5t31.5 -66.5t25.5 -50.5t12 -20q2 0 10 20t19 50t23.5 65.5t23 67t17.5 53.5t7 26q1 14 1 50v76t-1 74t-2 45
q-1 8 1 10.5t9 1.5q2 0 9.5 -0.5t17 -1t18 -1t11.5 -0.5t10 0.5t15.5 1t15.5 1t9 0.5q8 0 10 -2.5t1 -10.5q-1 -11 -2 -41.5t-1.5 -67.5t-0.5 -73.5t1 -58.5q0 -5 7 -27t18 -53t23.5 -66t23.5 -64.5t19 -49t10 -19.5q1 0 11.5 19.5t25 49.5t31 65.5t30.5 67t23.5 55.5
t9.5 30q0 5 -0.5 23.5t-1.5 43t-2 52t-2 51.5t-2 42t-1 22q-1 8 0.5 10.5t9.5 1.5q2 0 9 -0.5t15 -1l16 -1t12 -0.5t12 0.5t16.5 1t15.5 1t10 0.5q9 0 11 -3t1 -11q0 -4 0.5 -31.5t1.5 -64.5t2 -76t1 -64z" />
    <glyph glyph-name="X" unicode="X" horiz-adv-x="573" 
d="M548 6q0 -4 -3.5 -5t-7.5 -1h-7.5t-12 0.5t-13 0.5h-9.5t-9.5 -0.5t-13 -0.5h-12h-8.5t-21.5 27.5t-43.5 65t-50.5 77t-41.5 64.5q-5 8 -6.5 7.5t-6.5 -7.5q-11 -17 -26.5 -40.5t-33 -49.5l-35 -52t-32 -46t-24 -33t-11.5 -13q-5 0 -19.5 0.5t-19.5 0.5h-9t-13 -0.5
t-13 -0.5h-7q-4 0 -7.5 1.5t-3.5 6.5q0 4 0.5 16.5t0.5 17.5v7t-0.5 11t-0.5 11v7q0 3 0.5 5t4.5 7q6 8 28 38.5t49.5 68t54.5 74.5t42 58q8 11 0 24q-20 29 -48 68t-54.5 75t-46.5 63.5t-24 33.5q-5 7 -5 12q0 4 0.5 18.5t0.5 19.5q0 4 -0.5 18t-0.5 19q0 7 13 7
q7 -1 21 -2t22 -1t21 0.5t18 0.5q3 0 21.5 -27t43 -65t50 -78.5l42.5 -67.5q5 -8 8.5 -7.5t8.5 8.5q17 27 43 67t50.5 78t43.5 65t22 27q6 0 18.5 -0.5t20.5 -0.5q7 0 20.5 0.5t17.5 0.5q13 0 13 -7q0 -4 -0.5 -18t-0.5 -19v-7.5t0.5 -12t0.5 -12v-6.5q0 -3 -0.5 -5t-3.5 -7
q-5 -8 -24 -34t-44.5 -61t-54 -74t-52.5 -71q-5 -5 -4 -9.5t5 -9.5q17 -24 44 -62t54 -75.5t48.5 -67.5t28.5 -40q3 -4 3.5 -6t0.5 -5v-35v-35z" />
    <glyph glyph-name="Y" unicode="Y" horiz-adv-x="587" 
d="M572 501q0 -8 -1.5 -14.5t-7.5 -15.5q-11 -16 -34 -52t-56 -81q-28 -38 -56 -74.5t-47 -59.5q-14 -18 -14 -38q2 -65 3.5 -106t1.5 -47q1 -8 -1.5 -11t-10.5 -2q-3 0 -10.5 0.5t-16.5 0.5t-17.5 0.5t-12.5 0.5t-13 -0.5t-18 -0.5t-17 -0.5t-11 -0.5q-10 0 -10 14
q0 3 1 17.5t2 36t2 47.5t2 51q0 8 -2.5 18.5t-9.5 20.5q-17 22 -46.5 59.5t-58.5 77.5q-32 42 -53.5 74.5t-32.5 49.5q-7 11 -8 16.5t-1 11.5q0 23 -0.5 52.5t-0.5 56v46v23.5q0 8 1.5 10.5t10.5 2.5q3 0 9.5 -0.5t14.5 -1t15 -1t10 -0.5t12 0.5t18.5 1t18 1t10.5 0.5
q6 1 8 -1.5t1 -10.5q0 -5 -1 -27.5t-2 -49.5t-2 -51.5t-1 -31.5q0 -8 15 -31t38.5 -53t50.5 -62.5t51 -59.5q16 18 41.5 49.5t49.5 63t41.5 57.5t17.5 35q0 6 -1 30.5t-2.5 52.5t-3 51t-1.5 26q0 8 1.5 11t9.5 2q2 0 9 -0.5t16 -1t17 -1t12 -0.5t12 0.5t17 1t16.5 1
t10.5 0.5q8 0 10 -2.5t2 -13.5q0 -4 0.5 -21t0.5 -40.5t0.5 -51.5t0.5 -55z" />
    <glyph glyph-name="Z" unicode="Z" horiz-adv-x="505" 
d="M476 106q0 -3 -1 -10t-2.5 -15t-2.5 -15.5t-1 -11.5q-2 -10 -3.5 -26.5t-1.5 -20.5q0 -13 -12 -11q-2 0 -14 0.5t-30 1t-39 1t-39.5 1t-33 0.5h-18.5h-232q-8 0 -11.5 1.5t-4.5 8.5q0 4 -1 13t-2 18.5t-2.5 19t-2.5 14.5q-2 7 -3 13t2 11q1 1 12 18t26.5 42t34.5 54.5
t35.5 55.5t28.5 45t15 24t14 23t26.5 42.5t32.5 52t31.5 51.5t24.5 40.5t11 18.5q5 8 3.5 11.5t-12.5 3.5h-23h-48h-60h-60h-47.5h-21.5q-12 0 -10 10q0 1 1 6.5t2.5 12.5t2.5 13.5t2 9.5t2 10t2.5 14.5t2.5 14.5t1 10q1 6 5 6.5t13 0.5q4 0 17 -1t29 -2.5t32.5 -2.5
t27.5 -1h274q7 0 8.5 -1t2.5 -7q2 -5 3.5 -17.5t1.5 -19.5q1 -5 1.5 -15.5t0.5 -15.5q1 -8 -6 -18q-2 -3 -13 -20l-27.5 -42.5t-35 -55t-35.5 -56t-30 -47.5t-18 -28q-4 -7 -16 -26t-27.5 -44t-32 -51.5t-31 -49.5t-24.5 -38.5t-11 -17.5q-3 -6 -2 -8t9 -2q28 0 64 1t68.5 2
t56 2t28.5 1q4 0 14 1t21 2t22 2.5t19 2.5q13 2 16 0.5t1 -10.5z" />
    <glyph glyph-name="bracketleft" unicode="[" horiz-adv-x="359" 
d="M346 -85q0 -5 -0.5 -14.5t-0.5 -19t-0.5 -18t-0.5 -10.5q0 -6 -2 -7.5t-8 -1.5q-2 0 -19 0.5t-39 1.5t-44 1.5t-33 0.5t-30 -0.5t-38.5 -1t-34.5 -1t-17 -0.5q-8 0 -10.5 2t-3.5 10q0 5 0.5 32.5t1.5 67t2 85t2.5 87t2 72.5t0.5 41t-1 45t-2.5 81.5t-3 99t-3 97.5t-2 76
t-0.5 36q1 9 4 11.5t11 2.5q2 0 17.5 -0.5t35 -1l39 -1t30.5 -0.5t33 0.5l44 1t39 1t19 0.5q6 0 8.5 -1.5t2.5 -8.5v-10t0.5 -17.5t0.5 -18.5v-12q0 -8 -2 -9.5t-8 -1.5q-2 0 -13 1t-24.5 2t-27.5 2t-22 1q-16 0 -28 0.5t-19 -0.5q-8 -1 -10.5 -3.5t-3.5 -13.5
q-1 -17 -2 -48.5t-2 -69t-2 -77.5t-1.5 -74.5t-1 -59t-0.5 -30.5v-27.5t0.5 -49.5t1 -62t1.5 -65t2 -59.5t2 -45.5q1 -11 3.5 -13.5t10.5 -3.5q7 -1 19.5 -0.5t28.5 0.5q8 0 22 1t28 2.5t25 2.5t13 1q9 0 10 -8z" />
    <glyph glyph-name="backslash" unicode="\" horiz-adv-x="286" 
d="M266 -16q-1 -5 -8.5 -11.5t-10.5 -8.5t-16 -7.5t-17 -7.5t-9 -3t-8 0q-3 7 -7.5 20.5t-9.5 30t-10.5 35.5t-10.5 38q-6 22 -16 62.5t-22 88t-24.5 97t-22.5 88.5q-7 28 -15.5 64.5t-17 71t-14.5 63t-8 39.5q3 6 10 11.5t12 8.5q6 5 15 9t14 6q9 7 18 5q3 -7 7 -21t9 -31
t10 -34.5t9 -32.5q8 -31 19.5 -76.5t23.5 -93t23 -91.5t19 -73q8 -35 18 -75.5t18.5 -76.5t14.5 -62.5t7 -32.5z" />
    <glyph glyph-name="bracketright" unicode="]" horiz-adv-x="359" 
d="M297 677q0 -5 -0.5 -36t-2 -76t-3 -97.5t-3 -99t-2.5 -81.5t-1 -45t0.5 -41t2 -72.5t2.5 -87t2 -85t1.5 -67t0.5 -32.5q-1 -8 -3.5 -10t-10.5 -2q-2 0 -17 0.5t-34.5 1l-39 1t-29.5 0.5q-11 0 -33 -0.5t-44 -1.5t-39.5 -1.5t-18.5 -0.5q-6 0 -8 1.5t-2 7.5q0 2 -0.5 10.5
t-0.5 18t-0.5 19t-0.5 14.5q1 8 10 8q2 0 13 -1t25 -2.5t28 -2.5t22 -1q16 0 28.5 -0.5t19.5 0.5q8 1 10.5 3.5t3.5 13.5q1 17 2 45t2 60t1.5 65t1 61.5t0.5 49.5v28q0 6 -0.5 30.5t-1 59t-1.5 74.5t-2 77.5t-2 69t-2 48.5q-1 11 -3.5 13.5t-10.5 3.5q-7 1 -19 0.5t-28 -0.5
q-8 0 -22 -1t-27.5 -2t-24.5 -2t-13 -1q-6 0 -8 1.5t-2 9.5v12t0.5 18.5t0.5 17.5v10q0 7 2.5 8.5t8.5 1.5q1 0 18.5 -0.5t39.5 -1l44 -1t33 -0.5q10 0 30 0.5t39.5 1t35 1t17.5 0.5q8 0 11 -2.5t4 -11.5z" />
    <glyph glyph-name="asciicircum" unicode="^" horiz-adv-x="467" 
d="M441 172q-5 -2 -14 -6.5l-17 -8.5q-8 -3 -17 -9t-14 -10t-8.5 -3t-10.5 9q-30 36 -60.5 76.5t-66.5 97.5q-4 6 -5 5.5t-4 -5.5q-17 -27 -31 -48.5t-28 -41t-29 -38.5t-34 -42q-6 -7 -9.5 -8.5t-8.5 2.5t-15 10t-17 10t-15 8.5t-13 6.5q-9 2 2 17q8 10 21 29t27.5 41
t28 43.5t22.5 36.5q17 31 31.5 64.5t28.5 77.5q3 10 11 9q6 0 16 -1t17 -1q6 0 18 1t17 1q10 1 11 -9q4 -15 10.5 -34t15 -37.5t17 -36t15.5 -29.5q7 -13 20.5 -35t29.5 -45.5t31 -45t24 -33.5q7 -8 7.5 -12t-4.5 -6z" />
    <glyph glyph-name="underscore" unicode="_" horiz-adv-x="435" 
d="M438 -119q0 -7 -0.5 -20t-1.5 -17v-19.5t-1 -19.5q0 -10 -12 -8q-3 0 -27.5 1t-58.5 2t-72 1.5t-68 0.5q-23 0 -54.5 -0.5t-61.5 -1.5t-52 -2t-26 -1q-13 -1 -13 11q1 6 2 20.5t1 18.5q0 3 0.5 8t0.5 11t0.5 11.5t0.5 7.5q0 11 8 9q12 0 40.5 -1t61.5 -2t63.5 -1.5
t46.5 -0.5q9 0 40.5 0.5t68 1t68 1t39.5 0.5t7 -11z" />
    <glyph glyph-name="grave" unicode="`" horiz-adv-x="292" 
d="M281 585q1 -4 -1 -10t-4 -11t-3 -10.5t-3 -9.5q-2 -3 -3 -6t-5 -1q-20 7 -53.5 22.5t-68.5 32.5q-63 32 -109 61q-6 4 -5 6.5t5 7.5q5 6 12 12.5t12 10.5q7 6 13.5 10.5t11.5 7.5q5 4 7 3t7 -3q11 -5 38 -21t53 -33q10 -7 23.5 -15.5t26.5 -17.5t23 -16t14 -11
q5 -4 6.5 -5t2.5 -4z" />
    <glyph glyph-name="a" unicode="a" 
d="M400 238q0 31 -10 58t-28 47.5t-42 32t-52 11.5t-52.5 -11.5t-43 -32t-29 -47.5t-10.5 -58t10.5 -58t29 -47t43 -31.5t52.5 -11.5q27 0 51 11.5t42 31.5t28.5 47t10.5 58zM523 433q-3 -18 -6.5 -42t-6.5 -50t-4.5 -52.5t-1.5 -48.5q0 -31 1.5 -64t3 -63t3.5 -54.5
t4 -37.5q1 -11 -1.5 -16t-10.5 -5q-7 0 -17.5 -0.5t-19.5 -1.5q-8 -1 -20.5 -2t-18.5 -2q-10 -2 -12 4q-5 17 -7 28.5t-4 28.5q0 8 -5.5 7t-8.5 -3q-14 -13 -30 -26t-34 -23t-39 -16t-46 -6q-52 0 -89.5 20.5t-66.5 51.5q-32 33 -48.5 80t-16.5 92q0 54 19 104t54 87
q30 31 71 46.5t89 15.5q54 0 92 -23.5t64 -56.5q6 -8 8 9q1 4 2.5 12.5t3 16.5t4 14.5t4.5 7.5q2 0 7.5 -0.5t12.5 -2t14 -2.5t11 -2q8 -1 22.5 -4.5t18.5 -4.5q8 -2 5 -16z" />
    <glyph glyph-name="b" unicode="b" 
d="M424 240q0 30 -10.5 57.5t-28.5 48t-42 32.5t-52 12q-29 0 -53.5 -12t-42.5 -32.5t-28.5 -47.5t-10.5 -58q0 -26 8.5 -52.5t26 -48.5t43 -35.5t58.5 -13.5q25 0 48.5 10.5t42 30t30 47.5t11.5 62zM534 236q0 -57 -22.5 -109t-60.5 -84q-24 -20 -61 -36t-75 -16
q-45 0 -83 15.5t-62 46.5q-2 2 -6 3t-5 -7t-1.5 -17t-1.5 -16.5t-2.5 -12t-4.5 -4.5q-9 0 -24.5 1t-25.5 1q-4 0 -11.5 -0.5t-15.5 -0.5t-15 -0.5t-11 -0.5q-6 1 -6 5t1 10q1 12 2 35t2 51.5t2 60.5t1.5 61t0.5 53v38q0 21 -1 60.5t-2.5 89t-4 105t-5.5 108.5q-1 9 2 11
t11 3q14 1 28 1t24 1q12 1 31 3.5t25 2.5q5 0 7 -2.5t1 -13.5q-1 -10 -3 -34.5t-2 -62.5q0 -8 -0.5 -29t-1.5 -45t-1.5 -46.5t-0.5 -32.5q0 -19 5.5 -18.5t8.5 5.5q24 32 57.5 49.5t84.5 17.5q47 0 85 -17.5t68 -46.5q35 -34 52 -84t17 -102z" />
    <glyph glyph-name="c" unicode="c" horiz-adv-x="402" 
d="M390 439q-1 -7 -4.5 -19.5t-5.5 -19.5t-5 -19t-5 -17q-4 -10 -12 -4q-40 27 -87 27q-25 0 -50 -10t-45 -29t-32.5 -47t-12.5 -63t12.5 -62.5t33 -46.5t45.5 -29t49 -10q35 0 55 10.5t32 19.5q8 6 12 -5q2 -8 4 -21.5t4 -19.5q2 -8 3.5 -20.5t2.5 -18.5q2 -8 -0.5 -10.5
t-12.5 -7.5q-15 -8 -46 -18.5t-68 -10.5q-48 0 -91 19t-75.5 52.5t-52 79t-19.5 99.5q0 52 18 98t50 79.5t75.5 53t93.5 19.5q42 0 71.5 -10.5t53.5 -24.5q6 -4 8.5 -6.5t0.5 -7.5z" />
    <glyph glyph-name="d" unicode="d" horiz-adv-x="556" 
d="M397 237q0 33 -11 61t-29.5 47.5t-42.5 30.5t-49 11q-30 0 -55 -12t-43 -33t-28 -48.5t-10 -58.5q0 -28 10 -54.5t28 -47.5t43 -33.5t55 -12.5t54.5 12.5t42 33.5t26.5 48t9 56zM519 681q0 -3 -1 -24t-2 -53.5t-2.5 -72t-2.5 -80.5t-2 -79.5t-1 -67.5v-39.5t0.5 -53.5
t1.5 -60t2 -58t2 -49t2 -32q1 -6 0.5 -9t-5.5 -3h-10h-15.5t-16 0.5t-11.5 0.5q-8 0 -20.5 -1.5t-22.5 -1.5q-3 0 -4.5 6t-2.5 15t-1.5 19.5t-0.5 19.5q0 8 -2 9t-8 -7q-8 -10 -22 -22.5t-33.5 -23.5t-44 -18.5t-54.5 -7.5q-47 0 -88.5 19.5t-70.5 51.5q-30 33 -46.5 80
t-16.5 95q0 51 17 98.5t49 82.5q30 32 70.5 50t89.5 18q54 0 86.5 -21.5t54.5 -46.5q2 -3 7 -5t5 7v158q0 38 -1 61t-2 33q-1 16 8 16q6 0 24.5 1.5t27.5 1.5q21 0 50 3q8 1 10.5 -1t2.5 -9z" />
    <glyph glyph-name="e" unicode="e" horiz-adv-x="482" 
d="M347 297q-7 43 -36.5 72t-74.5 26q-24 -2 -42.5 -12t-31.5 -25t-21.5 -34.5t-11.5 -38.5q-2 -12 2.5 -15t23.5 -2q10 0 30 1.5t44 3.5l48 4t42 5q14 2 22 3.5t6 11.5zM463 267q1 -17 -6 -32.5t-25 -20.5q-3 -1 -22.5 -3t-48.5 -5t-63.5 -6t-67.5 -6t-60 -5.5t-40 -3.5
q3 -24 17.5 -43.5t34.5 -33t42.5 -20t42.5 -5.5q25 1 43.5 5t33.5 10t29 15t30 20q8 5 12.5 10.5t7.5 1.5q1 -2 3.5 -6.5t5.5 -10t5.5 -10.5t4.5 -8q4 -6 9 -17t7 -13q4 -5 -7 -16q-14 -14 -30.5 -27.5t-39 -24t-50.5 -17.5t-64 -7q-63 0 -110 20.5t-77.5 54.5t-45.5 79
t-15 94q0 52 18.5 98.5t50 80.5t73.5 54t89 20q39 0 75.5 -13.5t66 -41t48.5 -69.5t23 -98z" />
    <glyph glyph-name="f" unicode="f" horiz-adv-x="294" 
d="M301 630q3 -10 -8 -11q-68 0 -90 -24q-17 -17 -20.5 -53t-3.5 -78q6 0 22 -0.5t33 -0.5t31 -0.5t17 -0.5q6 0 9 -1.5t3 -7.5v-40q0 -8 0.5 -21t1.5 -20q1 -9 -10 -9q-10 0 -24 0.5t-28.5 1t-28 1t-22.5 0.5v-142q0 -13 1 -46t1.5 -68.5t1.5 -64t1 -32.5q0 -8 -1.5 -10.5
t-8.5 -2.5q-9 0 -23.5 0.5t-22.5 0.5t-22.5 -0.5t-20.5 -0.5q-9 0 -11 3t-2 12v336q0 11 -8 11q-19 1 -36.5 1.5t-19.5 2.5q-1 1 -1 6v12v13.5v9.5q0 7 -0.5 21.5t-1.5 19.5q0 8 10 9q8 1 23 2.5t29 2.5q-1 24 -1.5 48t2 47.5t9 44t19.5 37.5q19 25 43 38.5t46 21.5t46 10.5
t39 4.5q10 2 11 -5q2 -6 4 -21t4 -21q2 -7 4.5 -19.5z" />
    <glyph glyph-name="g" unicode="g" horiz-adv-x="520" 
d="M363 254q0 31 -9.5 56t-25.5 42.5t-37 26.5t-44 9t-44 -9.5t-36.5 -26.5t-25 -42t-9.5 -56q0 -30 9 -54.5t25 -42t36.5 -27.5t44.5 -10t45 10t36.5 28t25 42.5t9.5 53.5zM480 455q0 -5 -0.5 -27.5t-1 -53t-1 -65t-0.5 -62.5v-29t0.5 -40t0.5 -41.5v-33.5
q0 -49 -9.5 -90.5t-30.5 -69.5q-25 -32 -67 -51t-110 -19q-48 0 -97.5 11t-81.5 31q-6 4 -9 6.5t-1 10.5q2 7 4 15.5t4 15.5t3.5 18t2.5 18q2 13 13 6q26 -17 68 -29.5t79 -12.5q54 0 85.5 25t31.5 67q0 8 -0.5 20t-1.5 26q-9 -11 -22 -22.5t-30 -21.5t-38.5 -16t-47.5 -6
q-44 0 -81 16.5t-64.5 45.5t-43 69t-15.5 88q0 46 14.5 87.5t41 72.5t63.5 49t83 18q43 0 76.5 -18t51.5 -44q8 -11 12.5 -10.5t2.5 14.5q-1 7 -1.5 18.5t-0.5 21.5t1.5 17.5t4.5 7.5q4 0 11.5 -1.5t16 -3t16.5 -3t11 -2.5t10.5 -2t15 -2.5t14.5 -3t10 -2.5q5 -2 6 -4.5
t1 -8.5z" />
    <glyph glyph-name="h" unicode="h" horiz-adv-x="520" 
d="M476 17q0 -11 -1.5 -14.5t-8.5 -3.5t-22.5 1t-24.5 1q-7 0 -23 -0.5t-22 -0.5q-8 0 -10 3t-2 13q0 6 0.5 26t1 43.5t1 44.5t0.5 28t-0.5 27.5t-1 43.5t-1 42t-0.5 24q0 18 -3.5 34t-12.5 28t-25 19t-42 7q-22 0 -43 -10t-37.5 -23.5t-26.5 -27t-10 -19.5t-0.5 -26.5
t-0.5 -44t-0.5 -44.5t-0.5 -29t0.5 -30t0.5 -46t0.5 -44.5t0.5 -25.5q0 -14 -10 -14q-8 0 -23 1t-23 1t-20.5 -0.5t-24.5 -0.5q-11 0 -11 13v236q0 15 -1 49.5t-2 78t-2.5 91t-3.5 89t-3.5 71.5t-2.5 38q-2 16 5 18q3 0 10 0.5t16 1t17 1t12 0.5t12.5 0.5t17.5 1.5t16 2t9 2
q12 4 12 -8q0 -2 -0.5 -11t-0.5 -21t-0.5 -25t-0.5 -23q0 -13 -1 -37.5t-2 -53t-1.5 -57t-0.5 -48.5q0 -9 2 -11t10 5q12 12 26.5 24t29.5 21q21 14 48 22t53 8q31 0 58 -8t45 -22q23 -18 35.5 -46.5t12.5 -61.5v-32t-0.5 -37t-0.5 -37v-31t0.5 -42t0.5 -60t0.5 -55.5
t0.5 -28.5z" />
    <glyph glyph-name="i" unicode="i" horiz-adv-x="220" 
d="M173 447q-1 -12 -2.5 -43t-3 -66t-2.5 -67t-1 -47q0 -17 0.5 -49t1 -65.5t1 -61.5t0.5 -37q-1 -10 -9 -10q-5 0 -20.5 1t-26.5 1t-27 -1t-21 -1t-7.5 2t-2.5 11v35t1 61t1.5 65t0.5 49q0 15 -1.5 47t-3.5 67t-3.5 66t-2.5 44q0 8 1 11t9 2q8 0 24 -2.5t31 -2.5
q14 0 30.5 2.5t24.5 2.5q6 0 7.5 -3t0.5 -11zM177 584q0 -26 -14.5 -43t-52.5 -17q-34 0 -51 17t-17 43q0 25 19 43t49 18q29 0 48 -18t19 -43z" />
    <glyph glyph-name="j" unicode="j" horiz-adv-x="221" 
d="M174 453q0 -6 -1 -24t-1 -28q0 -4 -0.5 -24.5t-1.5 -44.5t-1.5 -45.5t-0.5 -27.5v-20t0.5 -38t0.5 -47.5t0.5 -48t0.5 -39.5v-22q0 -86 -45 -131.5t-135 -56.5q-10 -2 -10 7q1 10 1 22.5v17.5t-1 16t-2 18q-2 14 6 14q21 2 35.5 6t24.5 14t14.5 26t4.5 42q0 4 -0.5 20.5
t-0.5 38.5t-1 47t-1 47t-0.5 37.5t-0.5 19.5q0 22 -1 51.5t-3 57.5t-4 51t-3 34q-1 6 0 9.5t8 4.5q3 1 10.5 1.5t15.5 0.5t16 0.5t12 0.5t12 0.5l16 1t14.5 1.5t8.5 2q6 2 9.5 -0.5t3.5 -11.5zM180 585q0 -25 -15 -42t-53 -17q-33 0 -50.5 17t-17.5 42q0 26 19 43.5t49 17.5
t49 -17.5t19 -43.5z" />
    <glyph glyph-name="k" unicode="k" horiz-adv-x="547" 
d="M412 312q0 30 -22 50t-68 20q-39 0 -78.5 -27t-73.5 -63v-73q12 -2 37.5 -4t48.5 -3q30 -1 58.5 4.5t50 18t34.5 32t13 45.5zM530 335q0 -64 -31 -107t-87 -63q0 -6 2 -14.5t9 -19.5q7 -12 17.5 -27t21.5 -30.5t22.5 -30.5t21.5 -26q7 -8 -0.5 -12t-44.5 -5
q-26 -1 -42 -1.5t-26 1t-15.5 4.5t-8.5 9q-12 22 -30.5 50.5t-41.5 63.5q-2 2 -17.5 3.5t-35.5 2.5t-40.5 1h-31.5v-121q0 -10 -2.5 -13t-8.5 -2q-3 0 -10 0.5t-14.5 1t-14.5 0.5h-11q-7 0 -21.5 -0.5t-20.5 -0.5q-7 0 -9 3.5t-2 15.5v304q0 26 -0.5 65t-2 86.5t-3 99.5
t-3.5 105q0 6 2 7.5t7 2.5q14 1 26.5 1t22.5 1q4 0 12 1t16.5 2t16.5 2t12 1t6 -2t1 -10q0 -5 -1 -24.5t-1.5 -44.5t-1.5 -51t-1 -42v-121q0 -9 3 -10t6 2q18 17 40 33.5t46 29t49.5 20t51.5 7.5q66 0 115 -35q25 -19 39 -47.5t14 -65.5z" />
    <glyph glyph-name="l" unicode="l" horiz-adv-x="220" 
d="M173 671q-1 -9 -2 -33t-2 -55t-2.5 -66.5t-2.5 -67t-1.5 -56t-0.5 -34.5t0.5 -38.5t0.5 -65.5t1 -78t1 -76.5t0.5 -60t0.5 -29.5q0 -11 -8 -11q-5 0 -20.5 1t-26.5 1t-26 -0.5t-20 -1.5t-7 1t-2 10v27.5t0.5 59.5t0.5 76.5t0.5 79t0.5 66.5v39t-0.5 34.5t-1.5 56.5
t-2.5 67.5t-2.5 67t-2 55t-1 31.5q-1 8 0.5 11t9.5 3q7 -1 23 -2t30 -1t30 1.5t24 1.5q7 0 8 -3t0 -11z" />
    <glyph glyph-name="m" unicode="m" horiz-adv-x="839" 
d="M792 18q0 -19 -11 -19q-7 0 -22.5 1.5t-22.5 1.5q-4 0 -11 -0.5t-15 -0.5t-14.5 -0.5t-9.5 -0.5q-6 0 -8 3.5t-2 19.5q0 6 0.5 25t1 40.5t1 41.5t0.5 27v28v44.5t-0.5 42.5t-0.5 23q-3 51 -21.5 70.5t-66.5 19.5q-20 0 -40 -10t-36 -24.5t-25.5 -30t-9.5 -25.5
q0 -8 -0.5 -29t-1 -44t-0.5 -42.5v-23.5q0 -13 0.5 -35.5t1.5 -45.5t1.5 -41t0.5 -22q0 -13 -9 -13q-3 0 -10 0.5t-14.5 1l-15 1t-11.5 0.5q-8 0 -24.5 -1t-21.5 -1q-10 0 -10 14q0 6 0.5 26.5t1 44t1 45t0.5 28.5v115q0 62 -18 87t-66 25q-23 0 -44.5 -9.5t-38.5 -23
t-27 -27.5t-10 -23v-143v-28.5t0.5 -46t0.5 -45v-25.5q0 -14 -11 -14q-7 0 -20.5 1t-23.5 1t-22 -1t-25 -1q-10 0 -10 13v21v43t0.5 54t0.5 54.5v43.5v22q0 45 -4.5 90.5t-14.5 87.5q-3 17 3 18q3 1 10.5 2t15.5 1.5t15.5 1.5t11.5 2t11 2.5t14.5 3t13.5 3t9 2.5q6 2 10 -8
q3 -10 5 -23l4 -26q1 -16 11 -8q17 17 36.5 32t32.5 23q26 13 50.5 18.5t39.5 5.5q27 0 53.5 -8t44.5 -19q17 -10 27.5 -27.5t17.5 -37.5q17 23 40 40.5t35 24.5q14 8 40 17.5t55 9.5t58 -8.5t47 -22.5q24 -20 34 -49.5t10 -56.5v-32t-0.5 -37.5t-0.5 -38v-31.5t0.5 -42
t1 -59.5t1 -55t0.5 -28.5z" />
    <glyph glyph-name="n" unicode="n" horiz-adv-x="523" 
d="M480 10q0 -11 -10 -11q-5 0 -20.5 1t-23.5 1h-11t-16 -0.5t-15.5 -0.5h-9.5q-9 0 -9 14q0 6 0.5 27t1 45t1 45.5t0.5 28.5v24.5t-0.5 37t-0.5 35.5v20q0 58 -19 82t-69 24q-20 0 -40 -10t-36.5 -23t-27 -26.5t-10.5 -19.5v-143v-150q0 -8 -1.5 -10t-7.5 -2q-5 0 -22 1
t-25 1q-10 0 -22.5 -0.5t-24.5 -0.5q-10 0 -10 11v20t0.5 42t0.5 53t0.5 53t0.5 42.5v21.5q0 22 -2 48.5t-5 52.5t-7 50t-8 41q-3 12 5 13q3 1 10 2t15.5 2t16.5 2t11 2q4 1 12 2t16.5 2.5t16 3t9.5 1.5q7 3 8 -7q2 -6 3.5 -22.5l2.5 -27.5q2 -10 4.5 -11.5t10.5 6.5
q10 8 25 20.5t32 23.5q20 12 46.5 21.5t52.5 9.5q37 0 65.5 -10.5t46.5 -27.5t27.5 -41t9.5 -50v-144q0 -13 0.5 -44t0.5 -63t0.5 -58t0.5 -30z" />
    <glyph glyph-name="o" unicode="o" horiz-adv-x="511" 
d="M389 237q0 31 -10.5 58t-28.5 46.5t-42 30.5t-52 11t-52.5 -11t-42.5 -30.5t-28.5 -46.5t-10.5 -58t10.5 -58t29 -46.5t43 -31t51.5 -11.5q28 0 52 11.5t42 31.5t28.5 46.5t10.5 57.5zM492 238q0 -51 -17.5 -95.5t-47.5 -77.5q-33 -37 -77 -56.5t-94 -19.5
q-51 0 -95.5 20t-77.5 57q-30 33 -47 76.5t-17 94.5q1 51 15.5 91t51.5 82q32 35 77 54.5t93 19.5t91 -18.5t75 -51.5q33 -34 51.5 -78t18.5 -98z" />
    <glyph glyph-name="p" unicode="p" horiz-adv-x="564" 
d="M424 237q0 30 -10 57t-28 48t-42.5 33t-52.5 12q-26 0 -49 -11.5t-40 -32t-27 -48t-10 -59.5q0 -30 9.5 -57.5t26.5 -48.5t41 -33t53 -12q24 0 47 11.5t41.5 31.5t29.5 48t11 61zM538 235q0 -55 -20 -103.5t-55 -81.5q-31 -29 -68.5 -46t-81.5 -17t-78 18t-60 52
q-2 3 -7.5 6t-5.5 -8q0 -9 -0.5 -38t-0.5 -61.5v-60v-32.5q0 -16 -11 -16q-5 0 -20 1t-25 1q-9 0 -21 -0.5t-23 0.5q-11 0 -11 13q0 4 0.5 41.5t0.5 92t0.5 118.5t0.5 123q0 27 -1.5 58t-3.5 60t-4.5 54.5t-5.5 42.5q-1 6 -1 9.5t5 5.5q3 1 10.5 1.5t15.5 1l16 1t12 1.5
t12 2.5t16.5 3t15.5 2.5t10 1q8 0 8 -7q2 -16 3 -32t2 -29q1 -8 3 -7.5t8 6.5q28 32 61.5 51t76.5 19q48 0 86.5 -18t65.5 -45q35 -35 55 -85.5t20 -98.5z" />
    <glyph glyph-name="q" unicode="q" horiz-adv-x="560" 
d="M401 238q0 33 -9.5 61t-27 48t-41.5 31.5t-53 11.5t-53 -12t-42 -32.5t-28 -48t-10 -57.5q0 -33 11 -61t30 -47.5t43.5 -30.5t51.5 -11q59 0 93.5 41t34.5 107zM523 453q-3 -16 -6.5 -47.5t-6 -70.5t-4 -81.5t-1.5 -79.5q0 -27 0.5 -62t1 -75.5t1.5 -84t3 -87.5
q0 -12 -10 -12q-12 0 -23.5 -0.5t-20.5 -0.5t-25 -1t-22 -1q-7 -1 -8.5 0.5t-1.5 10.5v193q0 16 -13 0q-8 -11 -21.5 -23t-32 -21.5t-41 -15.5t-47.5 -6q-43 0 -79 17.5t-66 46.5q-35 33 -54 80.5t-19 102.5q0 49 16 97t48 84q26 29 67 49t87 20q49 0 87 -17t59 -50
q2 -3 7.5 -5.5t5.5 6.5v24t-1 29q-1 5 0.5 7.5t7.5 2.5q8 -1 26.5 -2.5t26.5 -3.5q8 -1 25.5 -3t28.5 -4q5 -1 6 -4t-1 -12z" />
    <glyph glyph-name="r" unicode="r" horiz-adv-x="333" 
d="M329 454q-2 -8 -3 -23t-2 -22q0 -4 -0.5 -11t-0.5 -14.5t-0.5 -13.5t-0.5 -9q-1 -8 -4 -10t-11 -1q-16 2 -39 3.5t-40 -0.5q-27 -4 -45.5 -20t-20.5 -36q-1 -11 -1.5 -40.5t-0.5 -62.5t0.5 -61.5t0.5 -36.5t0.5 -20t1.5 -25t1.5 -23.5t0.5 -15.5q0 -13 -11 -13
q-8 0 -21 1t-23 1t-22 -0.5t-26 -0.5q-11 0 -11 12v21t0.5 43t0.5 54t0.5 55t0.5 44v22q0 22 -1.5 50t-4.5 55t-7 50.5t-9 38.5q-3 11 5 14q3 0 10 1t15 1.5t15.5 1.5t10.5 2q9 2 24 5l20 4q6 2 8 0t4 -8t3 -15t1 -17q1 -8 3 -13.5t7 -2.5q20 16 39.5 27t45.5 18
q15 5 37.5 5.5t39.5 -1.5q11 -2 10 -13z" />
    <glyph glyph-name="s" unicode="s" horiz-adv-x="299" 
d="M270 98q-9 -27 -30.5 -48t-51 -34.5t-63 -19t-64.5 -0.5q-5 0 -8.5 2.5t-2.5 10.5t0.5 18t-1.5 18t-2 19.5t-2 18.5q-2 11 8 9q11 -2 33.5 -2t37.5 3q7 1 15.5 4t16.5 8.5t14 13.5t8 20q3 22 -13 38t-66 39q-27 13 -44 31t-25 39.5t-8 44.5t7 45q14 45 56 75.5t114 30.5
q5 0 8.5 -0.5t5.5 -5.5q3 -8 6.5 -20t6.5 -22q3 -9 4.5 -18t3.5 -16q2 -10 -9 -11t-23 -2t-23 -3q-21 -3 -36.5 -11t-17.5 -25q-2 -10 0.5 -17.5t11 -15.5t25 -18t44.5 -25q25 -14 41.5 -33.5t24 -42.5t7 -48.5t-8.5 -49.5z" />
    <glyph glyph-name="t" unicode="t" horiz-adv-x="342" 
d="M322 90q-1 -4 -1.5 -12.5t-1.5 -17.5t-1 -17t-1 -12q0 -7 -1.5 -10.5t-9.5 -7.5q-19 -8 -50 -13.5t-76 -5.5q-56 0 -86 25t-28 84q0 9 0.5 30t1 47t1 54t1 52t0.5 41v20q0 11 -2 15t-10 5q-3 0 -9.5 0.5t-13.5 0.5t-13 0.5t-8 0.5q-7 1 -8 11q-1 5 -1.5 14t-0.5 15
q0 5 0.5 14.5t1.5 15.5q1 7 2.5 9t9.5 4q16 2 31.5 3t17.5 7q1 3 1 11.5t-0.5 19t-1 22t-0.5 20.5v20.5v23v21v14.5q1 8 3 11.5t10 3.5q6 0 21 -1.5t26 -3.5q10 -2 24 -5.5t21 -4.5q5 -1 8.5 -3t2.5 -8q-1 -14 -2 -33.5l-2 -39t-1.5 -35t-0.5 -21.5q0 -11 2.5 -12.5
t10.5 -1.5h21h37h37.5h21.5q11 1 8 -11q-3 -17 -3 -33q0 -9 0.5 -24.5t0.5 -20.5q0 -10 -18 -9q-6 0 -22.5 1t-35.5 2t-35.5 1.5t-20.5 0.5q-3 0 -4.5 -12.5t-2 -31.5t-1 -41.5t-0.5 -43v-35v-18.5q-1 -39 3.5 -60.5t17.5 -30.5q10 -7 24.5 -8t30.5 1t32 5.5t30 5.5
q8 2 10 0t2 -8z" />
    <glyph glyph-name="u" unicode="u" horiz-adv-x="552" 
d="M502 443q0 -10 -1 -36t-2 -58t-2 -65t-1 -57v-52.5t0.5 -59t1.5 -55.5t2 -40q1 -11 -1 -14t-8 -5q-2 -1 -8.5 -1h-14t-15 0.5t-10.5 0.5q-8 0 -24 -0.5t-21 -0.5q-6 -1 -7.5 0.5t-3.5 9.5q-1 4 -1.5 11t-1 14.5t-0.5 14.5v11q0 20 -12 8q-14 -14 -32.5 -28t-34.5 -21
q-17 -8 -42 -15t-52 -7q-40 0 -68 10t-44 24q-31 28 -43 83q-3 14 -5 35t-3 43.5t-1 43v34.5q1 25 3 51.5t4.5 49.5t5.5 41.5t5 28.5q2 12 5 15.5t11 3.5q6 0 19.5 -1t21.5 -1t23.5 0.5t20.5 0.5q6 0 8.5 -3.5t0.5 -15.5l-3 -21t-4 -31.5t-3.5 -35.5t-2.5 -34
q0 -13 -0.5 -33t-0.5 -41.5t1 -42t3 -34.5q3 -17 9 -32t18 -26t30 -17t44 -6q17 0 38 9.5t39 23.5t30 29.5t12 28.5q1 16 1.5 36.5l1 41t1 37t0.5 24.5t-0.5 26t-0.5 36.5t-0.5 35t-0.5 21.5q0 14 4.5 19t15.5 5q6 0 16 -0.5t18 -0.5t21.5 0.5t25.5 0.5q14 0 14 -17z" />
    <glyph glyph-name="v" unicode="v" horiz-adv-x="506" 
d="M471 335v-28.5t-0.5 -27.5t-1.5 -22.5t-2 -13.5q-1 -3 -8.5 -17t-19 -33.5t-25.5 -41.5t-29 -41q-26 -35 -42.5 -58t-30.5 -42q-3 -5 -6 -6.5t-6 -3.5q-4 -2 -19.5 -2.5t-21.5 -0.5q-7 0 -22 0.5t-21 2.5q-6 1 -13 10q-8 10 -31.5 40.5t-50.5 67.5q-14 19 -27.5 38.5
t-24 36.5t-17.5 28.5t-8 14.5q-2 4 -4 14t-4 23.5t-3 28.5t-1 29t0.5 32.5t0.5 36t0.5 31.5t0.5 20q0 8 3 9.5t8 1.5q2 0 9 -0.5t14.5 -0.5t14.5 -0.5t10 -0.5h11t14.5 -0.5t14 -0.5h8.5q6 0 7.5 -2.5t1.5 -7.5q-2 -23 -3 -49t-1 -43q0 -15 1.5 -41t3.5 -41q1 -10 9 -25.5
t19 -33.5t24.5 -36.5t25 -33.5t20 -24.5t10.5 -9.5q3 0 18 20t32.5 46t31.5 52.5t16 39.5q3 20 3.5 44.5t0.5 39.5q0 7 -1 20.5t-2 28t-2 26.5t-1 17q-1 12 7 12h8.5t14 0.5t14.5 0.5h10q7 0 22.5 1t20.5 1q6 1 8 -0.5t4 -7.5q1 -6 2.5 -19.5t2.5 -31t1.5 -35.5t0.5 -32z
" />
    <glyph glyph-name="w" unicode="w" horiz-adv-x="729" 
d="M705 350q0 -9 -1 -27t-2.5 -36.5t-3.5 -33.5t-3 -18q-3 -5 -9 -17t-13.5 -26.5t-16 -29.5t-16.5 -27q-6 -9 -18.5 -29t-25.5 -40.5t-23.5 -36.5t-12.5 -19q-8 -10 -14 -11q-4 -1 -14 -1h-18h-18.5t-16.5 1q-4 1 -7 4t-6 7q-2 1 -8.5 10.5t-16 22t-19.5 27.5t-19 29
q-12 19 -20 33.5t-20 34.5q-17 -25 -25 -40t-16 -28q-23 -36 -40.5 -61t-20.5 -28q-3 -4 -6 -7t-7 -4q-5 -1 -15 -1h-17h-17.5t-15.5 1q-8 2 -14 11q-2 2 -12 17.5t-22.5 35t-25.5 39.5t-20 31q-7 10 -14.5 23.5t-15 27.5t-13.5 27.5t-10 23.5q-2 4 -3.5 19t-3.5 33.5t-3 36
t-1 26.5q0 29 1.5 57.5t3.5 40.5q1 8 3 9.5t9 1.5q5 0 20 -0.5t21 -0.5h10t14.5 -0.5t14 -0.5h8.5q5 0 7 -2.5t2 -12.5t-1 -30t-1 -35v-22t1 -31t1.5 -35t2.5 -32q1 -8 14 -31t28.5 -47.5t29 -43.5t15.5 -19t13.5 17.5t25.5 41t26.5 46t15.5 32.5q4 21 5 51t1 54
q0 12 -0.5 27.5t-1.5 30t-1.5 25.5t-0.5 15q0 11 9 11h46h47q4 0 6.5 -2.5t1.5 -10.5q0 -3 -0.5 -14.5t-1 -26l-1 -29t-0.5 -24.5q0 -24 0.5 -51t2.5 -49q4 -12 18.5 -35.5t31 -46.5t30 -40.5t15.5 -17.5q1 0 7 9t14 22.5t17.5 30t17.5 32t13.5 27.5t6.5 17q2 14 3 31.5
t1 34.5v31v22q0 15 -1.5 36t-3.5 31t0.5 12t8.5 2h8.5t14 0.5t14.5 0.5h10q6 0 20.5 0.5t19.5 0.5q7 0 9 -1t4 -9q2 -12 3 -41.5t1 -58.5z" />
    <glyph glyph-name="x" unicode="x" horiz-adv-x="434" 
d="M416 9q0 -6 -2 -7.5t-9 -1.5h-38q-8 0 -17 0.5t-17 1.5q-4 1 -6.5 1.5t-5.5 5.5q-7 9 -23.5 33t-34 49t-31.5 44.5t-15 19.5t-8.5 -9.5t-18 -24t-22.5 -32t-23.5 -33.5t-20.5 -29t-12 -18q-2 -4 -5 -5t-7 -2q-6 -1 -17 -1.5t-17 -0.5h-35q-8 0 -10 2t-2 7t0.5 13t0.5 13
q0 6 -0.5 14.5t-0.5 12.5q0 5 8 14q4 6 19 24t33.5 40.5t36.5 45.5t29 38q5 6 4 9.5t-5 8.5q-15 20 -34 44t-37 46l-31.5 38.5t-17.5 21.5q-2 4 -3.5 6t-1.5 6v26v26q0 5 2 7.5t10 2.5q4 0 18 -1t19 -1q6 0 18.5 -1t17.5 -1t7 -1.5t5 -5.5q4 -7 13 -20t20 -29.5t22.5 -34
t21.5 -31.5t16.5 -23t7.5 -9q2 0 16 20t31.5 46t34 50.5t22.5 32.5q3 7 11 7h35q6 0 19.5 1t17.5 1q9 0 10.5 -2t1.5 -8v-25v-26q0 -5 -5 -13q-4 -5 -17.5 -21t-31 -38t-37 -46t-34.5 -45q-5 -7 -5.5 -10t4.5 -8q12 -15 30.5 -38l37 -46t33 -41.5t19.5 -24.5q6 -7 6 -13
q0 -4 -0.5 -12.5t-0.5 -13.5t0.5 -13t0.5 -13z" />
    <glyph glyph-name="y" unicode="y" horiz-adv-x="476" 
d="M461 340v-30t-1 -30t-2 -25t-2 -15q0 -3 -10.5 -21t-25.5 -42t-31.5 -49.5t-28.5 -43.5q-8 -12 -24.5 -35t-34 -48t-32.5 -46.5t-21 -29.5q-29 -46 -49 -66q-4 -4 -17.5 -7t-30.5 -5q-14 -2 -32.5 -3.5t-24.5 -1.5q-8 0 -20.5 -0.5t-16.5 2.5q-5 5 -7 11t-5 14
q-3 9 -7.5 19t-6.5 15q-2 7 -3.5 13t2.5 8q8 5 23 5q30 0 46.5 2.5t34.5 13.5q4 2 11.5 12t15 22t13 23.5t4.5 16.5t-8 16.5t-18 26t-24 31t-26 32.5q-15 19 -29 39t-24.5 36t-17 27t-7.5 13q-3 8 -5 37.5t-2 58.5v31t0.5 33t0.5 29v19q0 8 3.5 9.5t8.5 1.5q2 0 8.5 -0.5
t13.5 -1t13.5 -1t9.5 -0.5h11t14.5 -0.5t13.5 -0.5h8q8 0 8 -10q-1 -23 -2 -44t-1 -38q0 -8 0.5 -20t1 -24.5l1 -25t1.5 -19.5q1 -14 18.5 -41.5t37.5 -55.5t38 -48.5t21 -20.5q2 0 17.5 20.5t33 47.5t32.5 54t17 40q3 20 3.5 47t0.5 42q0 7 -1 19t-2 25t-2 23.5t-1 15.5
q0 12 8 12q5 0 20.5 1t21.5 1q3 0 10.5 0.5t15 0.5t14 0.5t8.5 0.5q6 1 8 -0.5t4 -7.5q1 -6 2.5 -18.5t2.5 -28t1.5 -32.5t0.5 -31z" />
    <glyph glyph-name="z" unicode="z" horiz-adv-x="421" 
d="M411 87q-2 -6 -5 -16t-5 -23q-2 -12 -3 -19l-2 -14q-1 -17 -9 -17q-3 0 -15 0.5t-26.5 1.5t-28.5 2t-21 1q-13 0 -39 0.5t-55 0.5q-32 0 -62 -1.5t-43 -2.5q-21 -2 -37.5 -3.5t-24.5 -1.5q-7 0 -9 1.5t-4 7.5q-2 8 -3 21.5t-3 21.5q-2 9 -1 17.5t1 18.5q0 9 10 16
q9 9 27.5 29t42.5 45t49.5 53t49.5 54t42.5 48t27.5 34q-13 0 -35.5 1t-42.5 1h-33t-44 -0.5t-39.5 -1t-20.5 -0.5q-6 0 -7 2t-1 8q0 9 1.5 18t2.5 20q1 9 4.5 25t3.5 21t4 5.5t10 0.5q9 0 26 -0.5t28 -1.5q5 0 33 -1.5t76 -1.5h46.5h45.5t37 -0.5t22 -1.5q8 -1 10 -2t2 -8
q0 -5 -0.5 -16t-0.5 -19t-0.5 -17t0.5 -15q1 -5 -0.5 -8t-4.5 -8q-2 -3 -18.5 -21.5t-40 -45.5t-51.5 -58.5t-54 -60.5t-46.5 -51.5t-28.5 -31.5q10 0 31 0.5t46.5 1t53.5 0.5t53 0.5t43.5 1t24.5 0.5q8 0 10 -1.5t0 -8.5z" />
    <glyph glyph-name="braceleft" unicode="{" horiz-adv-x="341" 
d="M329 -142q1 -8 -7 -9q-5 -2 -14.5 -3t-21 -2.5t-23.5 -2t-21 -0.5q-34 0 -64.5 4t-51.5 14q-28 11 -40.5 34t-12.5 56q0 12 5 29.5t11 37.5t12 41t8 41q5 53 0 79t-27 38q-6 3 -20.5 7.5t-28.5 4.5q-9 0 -9 10q0 5 2 13.5t2 17.5q0 8 -2 16.5t-2 13.5q0 10 9 10
q14 0 28.5 4t20.5 8q22 13 27.5 44t-2.5 74q-2 10 -7.5 30t-11.5 42t-10.5 43t-4.5 33q0 30 11 52.5t42 36.5q20 11 52 15t64 4q9 0 21 -0.5t23.5 -1.5t21 -2.5t14.5 -2.5q8 -3 7 -10q-2 -7 -3 -19t-2 -19v-30q0 -9 -9 -9q-22 4 -39.5 7t-46.5 3q-25 0 -35.5 -14t-7.5 -35
q1 -11 5.5 -30t9.5 -40.5t9 -41.5t4 -32q0 -29 -6 -55.5t-19.5 -47.5t-35 -33.5t-52.5 -12.5q63 0 88 -39t25 -104q0 -14 -3.5 -35t-8.5 -44t-9.5 -43.5t-6.5 -32.5q-3 -22 7.5 -36t41.5 -14q30 0 46 4t34 9q7 2 9 -0.5t2 -7.5q0 -7 -0.5 -20t-0.5 -18q0 -8 1 -15.5t3 -13.5
z" />
    <glyph glyph-name="bar" unicode="|" horiz-adv-x="245" 
d="M167 -46q0 -10 -6 -11q-3 0 -15.5 -1t-17.5 -3q-4 -1 -19 -3.5t-19 -3.5q-3 -2 -6 0t-2 9v69.5v95v106.5v104v91.5t-1 97.5t-2 90.5t-2 70.5q0 7 0.5 11.5t4.5 6.5q6 4 17 6t19 3t18.5 0.5t15.5 -0.5q11 0 10 -13q-1 -22 -1 -65.5v-94.5v-102.5v-89.5q0 -53 0.5 -113
t1.5 -113.5t2 -94t2 -53.5z" />
    <glyph glyph-name="braceright" unicode="}" horiz-adv-x="341" 
d="M320 237q0 -10 -9 -10q-14 0 -28.5 -4.5t-20.5 -7.5q-22 -12 -27 -38t0 -79q2 -20 8 -41t12 -41t11 -37.5t5 -29.5q0 -33 -12.5 -56t-40.5 -34q-21 -10 -51.5 -14t-64.5 -4q-9 0 -21 0.5t-23.5 2t-21 2.5t-14.5 3q-8 1 -7 9q2 6 3 13.5t1 15.5q0 5 -0.5 18t-0.5 20
q0 5 2 7.5t9 0.5q18 -5 34 -9t46 -4q31 0 41.5 14t7.5 36q-2 12 -6.5 32.5t-9.5 43.5t-8.5 44t-3.5 35q0 65 25 104t88 39q-31 0 -52.5 12.5t-35 33.5t-19.5 47.5t-6 55.5q0 12 4 32t9 41.5t9.5 40.5t5.5 30q3 21 -7.5 35t-35.5 14q-29 0 -46.5 -3t-39.5 -7q-9 0 -9 9v30
q-1 7 -2 19t-3 19q-1 7 7 10q5 1 14.5 2.5t21 2.5t23.5 1.5t21 0.5q32 0 64 -4t52 -15q31 -14 42 -36.5t11 -52.5q0 -12 -4.5 -33t-10.5 -43t-11.5 -42t-7.5 -30q-8 -43 -2.5 -74t27.5 -44q6 -4 20.5 -8t28.5 -4q9 0 9 -10q0 -5 -2 -13.5t-2 -16.5q0 -9 2 -17.5t2 -13.5z
" />
    <glyph glyph-name="asciitilde" unicode="~" horiz-adv-x="487" 
d="M474 311q6 -7 5 -10.5t-7 -7.5q-11 -8 -26.5 -19t-35.5 -22q-23 -14 -45.5 -22t-47.5 -8q-21 0 -42.5 6t-35.5 14q-11 7 -23.5 11t-27.5 5q-13 1 -25 -5t-26 -14q-10 -5 -22 -13t-19 -13q-6 -4 -10 -4t-9 5t-13 16.5t-14 19.5t-15 17t-15 14q-9 8 5 16q9 7 27 19t38 24
q20 11 41.5 20.5t41.5 10.5q23 1 40 -5.5t30 -14.5q11 -8 26.5 -14t33.5 -5q17 1 30.5 7t26.5 13q12 6 24 14t21 15q11 8 19 -2q4 -5 13 -17.5t15 -20.5q5 -8 11 -15.5t11 -14.5z" />
    <glyph glyph-name="Adieresis" unicode="&#xc4;" horiz-adv-x="659" 
d="M414 320q-25 66 -40 105t-24.5 62.5t-15 35.5t-11.5 23q-6 -15 -19 -48t-27.5 -69t-26.5 -67.5t-16 -44.5q-8 -23 -11.5 -35t5 -18t30.5 -7t65 -1t66.5 0.5t32 6.5t5 19t-12.5 38zM653 13q4 -9 0.5 -11t-10.5 -2q-12 0 -28 1.5t-26 1.5q-12 0 -30.5 -1.5t-25.5 -1.5
q-9 0 -11.5 6t-6.5 17q-14 44 -22.5 69t-14.5 37.5t-11 16t-12 3.5q-8 0 -28.5 0.5t-47 0.5h-57h-57t-46.5 -0.5t-27 -0.5q-6 0 -11 -5.5t-10 -19t-12 -36.5t-18 -59q-6 -20 -8.5 -24.5t-8.5 -4.5q-11 0 -27.5 0.5t-27.5 0.5q-14 0 -29.5 -0.5t-25.5 -0.5t-9.5 6.5t6.5 22.5
q2 5 10 26.5t19 52t24 67t26 71t24 64t17 46.5q7 18 19 48t26 64.5t28.5 70t26.5 65t20 50t9 24.5q4 12 5.5 16t13.5 2q10 -2 22 -3t26 -1q11 0 24 1.5t24 3.5q6 2 9 -1.5t8 -16.5q3 -6 15 -37t29 -74t36 -92t36 -91q4 -10 15.5 -40.5t27.5 -70.5t33.5 -85t32 -83t25 -64
t11.5 -29zM183 644q0 -29 3 -41.5t0 -16t-16 -2t-45 1.5q-26 0 -37.5 -1.5t-14.5 1.5t-1.5 14.5t1.5 38.5q0 33 -2.5 48t1 19.5t17 2.5t44.5 -2q27 0 38 1t14 -4t0.5 -18.5t-2.5 -41.5zM573 645q0 -26 3.5 -38.5t1 -17t-15.5 -4t-46 0.5q-26 0 -37 -1.5t-15 2.5t-2.5 16.5
t1.5 41.5q0 32 -1.5 46t2 17.5t16.5 1t43 -2.5q28 0 39.5 1t13.5 -3.5t-0.5 -17.5t-2.5 -42z" />
    <glyph glyph-name="Aring" unicode="&#xc5;" horiz-adv-x="659" 
d="M414 320q-25 66 -40 105t-24.5 62.5t-15 35.5t-11.5 23q-6 -15 -19 -48t-27.5 -69t-26.5 -67.5t-16 -44.5q-8 -23 -11.5 -35t5 -18t30.5 -7t65 -1t66.5 0.5t32 6.5t5 19t-12.5 38zM376 670q0 24 -15 40.5t-38 16.5t-38 -16.5t-15 -40.5q0 -21 15.5 -37t36.5 -16
q23 0 38.5 15.5t15.5 37.5zM653 13q4 -9 0.5 -11t-10.5 -2q-12 0 -28 1.5t-26 1.5q-12 0 -30.5 -1.5t-25.5 -1.5q-9 0 -11.5 6t-6.5 17q-14 44 -22.5 69t-14.5 37.5t-11 16t-12 3.5q-8 0 -28.5 0.5t-47 0.5h-57h-57t-46.5 -0.5t-27 -0.5q-6 0 -11 -5.5t-10 -19t-12 -36.5
t-18 -59q-6 -20 -8.5 -24.5t-8.5 -4.5q-11 0 -27.5 0.5t-27.5 0.5q-14 0 -29.5 -0.5t-25.5 -0.5t-9.5 6.5t6.5 22.5q2 5 10 26.5t19 52t24 67t26 71t24 64t17 46.5q11 29 26 66.5t29 72t24.5 61t12.5 34.5q-13 16 -22 36.5t-9 43.5q0 27 10.5 51t28 41.5t41.5 27.5t51 10
t51 -10t41.5 -27.5t28 -41.5t10.5 -51q0 -21 -8.5 -40t-20.5 -35q11 -28 24 -61q11 -29 26.5 -66.5t32.5 -82.5q4 -10 15.5 -40.5t27.5 -70.5t33.5 -85t32 -83t25 -64t11.5 -29z" />
    <glyph glyph-name="Ccedilla" unicode="&#xc7;" horiz-adv-x="593" 
d="M586 120q8 -8 -6 -24q-14 -15 -31.5 -32.5t-42 -33.5t-57 -28t-75.5 -15q6 -8 16 -21t15 -21q0 -38 -11.5 -65.5t-28.5 -42.5q-21 -19 -45 -27t-50 -8q-23 0 -43.5 11t-36.5 29q-5 6 2.5 13t18.5 18q4 5 8.5 12t8.5 12.5t7.5 8.5t6.5 1q7 -9 15 -13t22 -7q13 -3 26 4.5
t21 21.5q6 11 2.5 33t-18.5 42q-62 6 -113.5 34t-89 74t-58.5 108.5t-21 137.5q0 80 24 146t67 113t101 73t126 26q48 0 83.5 -8.5t62.5 -22.5t46.5 -32t36.5 -37q9 -11 8 -17t-4 -11q-3 -7 -10.5 -18.5t-12.5 -19.5q-6 -8 -12.5 -20.5t-11.5 -17.5q-4 -4 -9 -2.5t-9 5.5
q-16 16 -32 31.5t-35 27.5t-42.5 19.5t-55.5 7.5q-45 0 -81.5 -17t-62.5 -48.5t-40 -76t-14 -98.5q0 -60 15.5 -105t42.5 -76t63 -46.5t76 -15.5q57 0 97 25.5t73 60.5q4 4 8 6t9 -4q4 -5 10 -14.5t14 -20.5t15.5 -20.5t11.5 -14.5z" />
    <glyph glyph-name="Eacute" unicode="&#xc9;" horiz-adv-x="538" 
d="M513 98q-2 -10 -4.5 -21.5t-4.5 -23.5q-2 -13 -4 -28t-3 -23t-9 -8.5t-22 1.5q-7 1 -25.5 2.5t-44 3t-56 2.5t-60.5 1q-20 0 -54.5 -0.5t-68.5 -1t-61 -1.5t-31 -1q-17 -1 -16 14q0 3 1 24t2.5 52t3 68.5t2.5 73t2 65.5t1 46q0 19 -0.5 50t-2 66t-2.5 71t-2.5 65.5
t-2.5 49t-1 22.5q-2 11 1.5 15t14.5 3q3 0 18.5 -0.5t37 -1t46 -1t45.5 -1t36.5 -0.5h17.5q14 0 43.5 0.5t61 1.5t57.5 1.5t34 0.5q24 0 25 -14q1 -8 1.5 -18t2.5 -17q2 -6 3 -21.5t3 -23.5t-2 -10t-14 -1q-8 1 -27 2t-40.5 2t-41 1.5t-29.5 0.5q-68 1 -103 3t-50 -5.5
t-16 -28t-1 -63.5v-57.5t5 -25.5t17.5 -6.5t37.5 0.5q35 0 72.5 0.5t70.5 1.5t59.5 2.5t39.5 3.5q5 1 8.5 -2t1.5 -11q-2 -6 -2.5 -17.5t-2.5 -25.5q-2 -15 -2 -28v-21q0 -9 -12.5 -8.5t-45.5 3.5q-14 1 -47 2t-69.5 1t-67.5 -0.5t-41 -1.5q-8 -1 -12.5 -2t-6.5 -7.5
t-2.5 -21t-0.5 -41.5q0 -54 1 -81.5t12.5 -39t38 -11.5h78.5q28 0 59 1.5t58 3.5t47.5 4t27.5 3q11 2 14.5 -0.5t2.5 -11.5zM415 821q-26 -23 -49 -36.5t-54 -30.5q-34 -18 -67 -33t-54 -20q-5 -1 -9 7q-2 5 -4.5 14t-4.5 16q-2 5 -2 10.5v9.5t9 9q17 8 41.5 20.5t45.5 26.5
q26 17 45.5 32t34.5 27q5 4 7 4.5t7 -4.5q5 -4 11 -10t14 -11q5 -4 13.5 -8.5t15.5 -8.5q10 -6 0 -14z" />
    <glyph glyph-name="Ntilde" unicode="&#xd1;" horiz-adv-x="718" 
d="M665 669q0 -3 -1 -22.5t-1.5 -49t-1.5 -66t-2 -72.5t-1.5 -69t-0.5 -55v-145.5t2 -173.5q1 -10 -1.5 -13t-10.5 -3q-5 0 -20 1.5t-24 1.5q-10 0 -25 -1.5t-23 -1.5q-7 0 -11 4t-10 12q-16 21 -44.5 59.5t-64 86t-74 99t-73 97t-62 80.5t-40.5 50q-2 2 -3.5 -2t-1.5 -18
q0 -42 0.5 -96t1 -113.5t1.5 -121.5t2 -121q0 -10 -2 -13t-8 -3q-3 0 -9.5 0.5t-14.5 1t-15.5 1t-11.5 0.5q-3 0 -11 -0.5l-16 -1t-15 -1t-10 -0.5q-8 -1 -10.5 2t-1.5 13q0 3 1 22t2 48t2.5 64.5t2.5 70t1.5 65t0.5 49.5t-0.5 51t-1.5 68t-2 73t-2 67.5t-2 50.5t-1 23
q-2 9 0.5 12t10.5 2q8 0 23.5 0.5t26.5 1.5t27.5 4t23.5 3q3 0 6 -2t9 -12q35 -48 81 -110t94 -126t92.5 -123t76.5 -100q6 -8 11.5 -15t7.5 -7t2.5 10t0.5 23q1 52 0.5 112t-2 119t-4 113.5t-3.5 96.5q0 8 1.5 12t8.5 4q2 0 9 -0.5t15.5 -1t16.5 -1t12 -0.5t12.5 0.5
t17.5 1t16.5 1t9.5 0.5q7 0 9 -3t1 -13zM521 744q-14 -14 -38.5 -31.5t-50.5 -22.5q-4 -1 -11 -1t-16 0.5t-18 3t-16 6.5q-13 8 -26.5 16t-28.5 8t-26.5 -9t-21.5 -20q-5 -5 -10 -3t-7 4l-17 17q-5 5 -12.5 11t-9.5 8t-3.5 4t0.5 6q2 5 15 18.5t24 19.5t26 12.5t32 6.5
t33 -5t28 -11q14 -7 27 -11.5t23 -4.5q5 0 13.5 4.5t17.5 10t16 10.5t9 6q4 2 7 3t6 -2t10 -11t9 -11l8 -12t7 -11t2 -4.5t-1 -4.5z" />
    <glyph glyph-name="Odieresis" unicode="&#xd6;" horiz-adv-x="725" 
d="M578 344q0 47 -16 91t-44.5 77.5t-68 53.5t-87.5 20t-87 -20.5t-67.5 -54t-44 -77.5t-15.5 -91t15.5 -91t44 -78t68 -54t86.5 -20q48 0 87.5 20.5t68 54t44.5 77.5t16 92zM696 343q0 -74 -25.5 -139.5t-70.5 -114t-106 -76.5t-131 -28q-71 0 -132 28t-105.5 76.5t-70 114
t-25.5 139.5t26 139t71 114t105.5 77t130.5 28t131 -28t106 -77t70.5 -114t25.5 -139zM716 673q0 -26 3.5 -38.5t1 -17t-15.5 -4t-46 0.5q-26 0 -37 -1.5t-15 2.5t-2.5 16.5t1.5 41.5q0 32 -1.5 46t2 17.5t16.5 1t43 -2.5q28 0 39.5 1t13.5 -3.5t-0.5 -17.5t-2.5 -42z
M116 674q0 -29 3 -41.5t0 -16t-16 -2t-45 1.5q-26 0 -37.5 -1.5t-14.5 1.5t-1.5 14.5t1.5 38.5q0 33 -2.5 48t1 19.5t17 2.5t44.5 -2q27 0 38 1t14 -4t0.5 -18.5t-2.5 -41.5z" />
    <glyph glyph-name="Udieresis" unicode="&#xdc;" horiz-adv-x="660" 
d="M610 507q0 -4 -1.5 -20.5t-3 -40.5t-3 -53t-1.5 -58q0 -35 1 -71t0 -70t-5 -62.5t-14 -48.5q-13 -26 -34 -44.5t-52.5 -29.5t-74.5 -16t-99 -5q-62 0 -106 6.5t-73.5 20t-47.5 34t-27 47.5q-7 19 -9.5 50t-2.5 64.5t1 67t1 57.5q0 29 -1.5 59t-3 54.5t-3 41.5t-1.5 21
q-2 11 0.5 14.5t11.5 3.5q5 0 23 -1t30 -1t30.5 0.5t24.5 0.5q8 1 10 -2t1 -13q0 -3 -0.5 -21t-1.5 -45.5t-1.5 -60t-1 -63t-1 -56t-0.5 -38.5q0 -44 9 -71.5t28 -42.5t48.5 -20.5t70.5 -5.5q39 0 68 5.5t48.5 19t28.5 37t9 60.5q0 10 -0.5 35t-1 57.5t-1 67.5t-1 65
t-1 50.5t-0.5 22.5q-1 10 1 12.5t10 2.5q2 0 9 -0.5t16 -0.5t17 -0.5t12 -0.5t12 0.5l16 1t15.5 1t9.5 0.5q9 0 11 -3.5t1 -14.5zM181 630q0 -29 1.5 -41.5t-3.5 -16t-19.5 -2t-46.5 1.5q-26 0 -39 -1.5t-18 1.5t-5 14.5v38.5q0 33 -0.5 48t4.5 19.5t20 2.5t46 -2
q27 0 39.5 1t17 -4t4 -18.5t-0.5 -41.5zM608 631q0 -26 2 -38.5t-2.5 -17t-19 -4t-47.5 0.5q-26 0 -39 -1.5t-18 2.5t-5.5 16.5t-0.5 41.5v46t6 17.5t20.5 1t43.5 -2.5q28 0 41 1t17 -3.5t3 -17.5t-1 -42z" />
    <glyph glyph-name="aacute" unicode="&#xe1;" 
d="M400 238q0 31 -10 58t-28 47.5t-42 32t-52 11.5t-52.5 -11.5t-43 -32t-29 -47.5t-10.5 -58t10.5 -58t29 -47t43 -31.5t52.5 -11.5q27 0 51 11.5t42 31.5t28.5 47t10.5 58zM523 433q-3 -18 -6.5 -42t-6.5 -50t-4.5 -52.5t-1.5 -48.5q0 -31 1.5 -64t3 -63t3.5 -54.5
t4 -37.5q1 -11 -1.5 -16t-10.5 -5q-7 0 -17.5 -0.5t-19.5 -1.5q-8 -1 -20.5 -2t-18.5 -2q-10 -2 -12 4q-5 17 -7 28.5t-4 28.5q0 8 -5.5 7t-8.5 -3q-14 -13 -30 -26t-34 -23t-39 -16t-46 -6q-52 0 -89.5 20.5t-66.5 51.5q-32 33 -48.5 80t-16.5 92q0 54 19 104t54 87
q30 31 71 46.5t89 15.5q54 0 92 -23.5t64 -56.5q6 -8 8 9q1 4 2.5 12.5t3 16.5t4 14.5t4.5 7.5q2 0 7.5 -0.5t12.5 -2t14 -2.5t11 -2q8 -1 22.5 -4.5t18.5 -4.5q8 -2 5 -16zM432 639q-26 -23 -49 -36.5t-54 -30.5q-34 -18 -67 -33t-54 -20q-5 -1 -9 7q-2 5 -4.5 14t-4.5 16
q-2 5 -2 10.5v9.5t9 9q17 8 41.5 20.5t45.5 26.5q26 17 45.5 32t34.5 27q5 4 7 4.5t7 -4.5q5 -4 11 -10t14 -11q5 -4 13.5 -8.5t15.5 -8.5q10 -6 0 -14z" />
    <glyph glyph-name="agrave" unicode="&#xe0;" 
d="M400 238q0 31 -10 58t-28 47.5t-42 32t-52 11.5t-52.5 -11.5t-43 -32t-29 -47.5t-10.5 -58t10.5 -58t29 -47t43 -31.5t52.5 -11.5q27 0 51 11.5t42 31.5t28.5 47t10.5 58zM523 433q-3 -18 -6.5 -42t-6.5 -50t-4.5 -52.5t-1.5 -48.5q0 -31 1.5 -64t3 -63t3.5 -54.5
t4 -37.5q1 -11 -1.5 -16t-10.5 -5q-7 0 -17.5 -0.5t-19.5 -1.5q-8 -1 -20.5 -2t-18.5 -2q-10 -2 -12 4q-5 17 -7 28.5t-4 28.5q0 8 -5.5 7t-8.5 -3q-14 -13 -30 -26t-34 -23t-39 -16t-46 -6q-52 0 -89.5 20.5t-66.5 51.5q-32 33 -48.5 80t-16.5 92q0 54 19 104t54 87
q30 31 71 46.5t89 15.5q54 0 92 -23.5t64 -56.5q6 -8 8 9q1 4 2.5 12.5t3 16.5t4 14.5t4.5 7.5q2 0 7.5 -0.5t12.5 -2t14 -2.5t11 -2q8 -1 22.5 -4.5t18.5 -4.5q8 -2 5 -16zM383 577q1 -4 -1 -10t-4 -11t-3 -10.5t-3 -9.5q-2 -3 -3 -6t-5 -1q-20 7 -53.5 22.5t-68.5 32.5
q-63 32 -109 61q-6 4 -5 6.5t5 7.5q5 6 12 12.5t12 10.5q7 6 13.5 10.5t11.5 7.5q5 4 7 3t7 -3q11 -5 38 -21t53 -33q10 -7 23.5 -15.5t26.5 -17.5t23 -16t14 -11q5 -4 6.5 -5t2.5 -4z" />
    <glyph glyph-name="acircumflex" unicode="&#xe2;" 
d="M400 238q0 31 -10 58t-28 47.5t-42 32t-52 11.5t-52.5 -11.5t-43 -32t-29 -47.5t-10.5 -58t10.5 -58t29 -47t43 -31.5t52.5 -11.5q27 0 51 11.5t42 31.5t28.5 47t10.5 58zM523 433q-3 -18 -6.5 -42t-6.5 -50t-4.5 -52.5t-1.5 -48.5q0 -31 1.5 -64t3 -63t3.5 -54.5
t4 -37.5q1 -11 -1.5 -16t-10.5 -5q-7 0 -17.5 -0.5t-19.5 -1.5q-8 -1 -20.5 -2t-18.5 -2q-10 -2 -12 4q-5 17 -7 28.5t-4 28.5q0 8 -5.5 7t-8.5 -3q-14 -13 -30 -26t-34 -23t-39 -16t-46 -6q-52 0 -89.5 20.5t-66.5 51.5q-32 33 -48.5 80t-16.5 92q0 54 19 104t54 87
q30 31 71 46.5t89 15.5q54 0 92 -23.5t64 -56.5q6 -8 8 9q1 4 2.5 12.5t3 16.5t4 14.5t4.5 7.5q2 0 7.5 -0.5t12.5 -2t14 -2.5t11 -2q8 -1 22.5 -4.5t18.5 -4.5q8 -2 5 -16zM405 550q-3 -1 -9 -4t-11 -5t-11.5 -5.5t-10.5 -4.5q-5 -3 -7 -2t-7 3q-17 12 -40.5 33t-39.5 41
q-3 4 -4.5 3t-3.5 -4q-7 -9 -17 -20t-20 -21.5t-19.5 -19t-16.5 -12.5q-4 -2 -6.5 -2.5t-7.5 1.5t-11.5 5.5t-11.5 5.5q-13 6 -19 8q-5 3 -4.5 4.5t3.5 6.5l15 15t17.5 19.5t16.5 20t13 17.5q4 7 10.5 17t12.5 20t10.5 18t5.5 11q2 5 4 6.5t7 1.5q4 0 11.5 -0.5t12.5 -0.5
t14 0.5t13 0.5q5 0 6 -1.5t3 -6.5q1 -5 5.5 -13.5t10.5 -18t11.5 -19t10.5 -15.5q5 -7 13.5 -17t17.5 -20.5t18 -19.5l15 -15q6 -7 0 -11z" />
    <glyph glyph-name="adieresis" unicode="&#xe4;" 
d="M400 238q0 31 -10 58t-28 47.5t-42 32t-52 11.5t-52.5 -11.5t-43 -32t-29 -47.5t-10.5 -58t10.5 -58t29 -47t43 -31.5t52.5 -11.5q27 0 51 11.5t42 31.5t28.5 47t10.5 58zM523 433q-3 -18 -6.5 -42t-6.5 -50t-4.5 -52.5t-1.5 -48.5q0 -31 1.5 -64t3 -63t3.5 -54.5
t4 -37.5q1 -11 -1.5 -16t-10.5 -5q-7 0 -17.5 -0.5t-19.5 -1.5q-8 -1 -20.5 -2t-18.5 -2q-10 -2 -12 4q-5 17 -7 28.5t-4 28.5q0 8 -5.5 7t-8.5 -3q-14 -13 -30 -26t-34 -23t-39 -16t-46 -6q-52 0 -89.5 20.5t-66.5 51.5q-32 33 -48.5 80t-16.5 92q0 54 19 104t54 87
q30 31 71 46.5t89 15.5q54 0 92 -23.5t64 -56.5q6 -8 8 9q1 4 2.5 12.5t3 16.5t4 14.5t4.5 7.5q2 0 7.5 -0.5t12.5 -2t14 -2.5t11 -2q8 -1 22.5 -4.5t18.5 -4.5q8 -2 5 -16zM214 589q0 -29 3 -41.5t0 -16t-16 -2t-45 1.5q-26 0 -37.5 -1.5t-14.5 1.5t-1.5 14.5t1.5 38.5
q0 33 -2.5 48t1 19.5t17 2.5t44.5 -2q27 0 38 1t14 -4t0.5 -18.5t-2.5 -41.5zM413 590q0 -26 3.5 -38.5t1 -17t-15.5 -4t-46 0.5q-26 0 -37 -1.5t-15 2.5t-2.5 16.5t1.5 41.5q0 32 -1.5 46t2.5 17.5t17 1t42 -2.5q28 0 39.5 1t13.5 -3.5t-0.5 -17.5t-2.5 -42z" />
    <glyph glyph-name="atilde" unicode="&#xe3;" 
d="M400 238q0 31 -10 58t-28 47.5t-42 32t-52 11.5t-52.5 -11.5t-43 -32t-29 -47.5t-10.5 -58t10.5 -58t29 -47t43 -31.5t52.5 -11.5q27 0 51 11.5t42 31.5t28.5 47t10.5 58zM523 433q-3 -18 -6.5 -42t-6.5 -50t-4.5 -52.5t-1.5 -48.5q0 -31 1.5 -64t3 -63t3.5 -54.5
t4 -37.5q1 -11 -1.5 -16t-10.5 -5q-7 0 -17.5 -0.5t-19.5 -1.5q-8 -1 -20.5 -2t-18.5 -2q-10 -2 -12 4q-5 17 -7 28.5t-4 28.5q0 8 -5.5 7t-8.5 -3q-14 -13 -30 -26t-34 -23t-39 -16t-46 -6q-52 0 -89.5 20.5t-66.5 51.5q-32 33 -48.5 80t-16.5 92q0 54 19 104t54 87
q30 31 71 46.5t89 15.5q54 0 92 -23.5t64 -56.5q6 -8 8 9q1 4 2.5 12.5t3 16.5t4 14.5t4.5 7.5q2 0 7.5 -0.5t12.5 -2t14 -2.5t11 -2q8 -1 22.5 -4.5t18.5 -4.5q8 -2 5 -16zM424 587q-14 -14 -38.5 -31.5t-50.5 -22.5q-4 -1 -11 -1t-16 0.5t-18 3t-16 6.5q-13 8 -26.5 16
t-28.5 8t-26.5 -9t-21.5 -20q-5 -5 -10 -3t-7 4l-17 17q-5 5 -12.5 11t-9.5 8t-3.5 4t0.5 6q2 5 15 18.5t24 19.5t26 12.5t32 6.5t33 -5t28 -11q14 -7 27 -11.5t23 -4.5q5 0 13.5 4.5t17.5 10t16 10.5t9 6q4 2 7 3t6 -2t10 -11t9 -11l8 -12t7 -11t2 -4.5t-1 -4.5z" />
    <glyph glyph-name="aring" unicode="&#xe5;" 
d="M400 238q0 31 -10 58t-28 47.5t-42 32t-52 11.5t-52.5 -11.5t-43 -32t-29 -47.5t-10.5 -58t10.5 -58t29 -47t43 -31.5t52.5 -11.5q27 0 51 11.5t42 31.5t28.5 47t10.5 58zM523 433q-3 -18 -6.5 -42t-6.5 -50t-4.5 -52.5t-1.5 -48.5q0 -31 1.5 -64t3 -63t3.5 -54.5
t4 -37.5q1 -11 -1.5 -16t-10.5 -5q-7 0 -17.5 -0.5t-19.5 -1.5q-8 -1 -20.5 -2t-18.5 -2q-10 -2 -12 4q-5 17 -7 28.5t-4 28.5q0 8 -5.5 7t-8.5 -3q-14 -13 -30 -26t-34 -23t-39 -16t-46 -6q-52 0 -89.5 20.5t-66.5 51.5q-32 33 -48.5 80t-16.5 92q0 54 19 104t54 87
q30 31 71 46.5t89 15.5q54 0 92 -23.5t64 -56.5q6 -8 8 9q1 4 2.5 12.5t3 16.5t4 14.5t4.5 7.5q2 0 7.5 -0.5t12.5 -2t14 -2.5t11 -2q8 -1 22.5 -4.5t18.5 -4.5q8 -2 5 -16zM332 631q0 27 -17 45t-42 18t-42 -18t-17 -45q0 -23 17.5 -41t40.5 -18q26 0 43 18t17 41zM390 631
q0 -24 -9.5 -44.5t-25 -36t-37 -24.5t-45.5 -9t-45 9t-37 24.5t-25 36t-9 44.5q0 25 9 46t25 37t37 25t45 9t45.5 -9t37 -25t25 -37t9.5 -46z" />
    <glyph glyph-name="ccedilla" unicode="&#xe7;" horiz-adv-x="402" 
d="M390 439q-1 -7 -4.5 -19.5t-5.5 -19.5t-5 -19t-5 -17q-2 -6 -4.5 -6t-7.5 2q-38 27 -87 27q-25 0 -50 -10t-44.5 -29t-31.5 -47t-12 -63t12.5 -62.5t32 -46.5t44.5 -29t49 -10q35 0 55 10.5t32 19.5q8 6 12 -5q2 -8 4 -21.5t4 -19.5q2 -8 3.5 -20.5t2.5 -18.5
q2 -8 -0.5 -10.5t-12.5 -7.5q-13 -7 -37.5 -16t-55.5 -12q7 -9 14.5 -18t14.5 -20q0 -38 -11.5 -65.5t-28.5 -42.5q-21 -19 -45 -27t-50 -8q-23 0 -43.5 11t-36.5 29q-5 6 2.5 13t18.5 18q4 5 8.5 12t8.5 12.5t7.5 8.5t6.5 1q7 -9 15 -13t22 -7q13 -3 26 4.5t21 21.5
q7 11 3.5 32.5t-21.5 41.5q-40 8 -74.5 30t-60.5 54t-41 73t-15 88q0 52 18 98t50 79.5t75.5 53t93.5 19.5q42 0 71.5 -10.5t53.5 -24.5q6 -4 8.5 -6.5t0.5 -7.5z" />
    <glyph glyph-name="eacute" unicode="&#xe9;" horiz-adv-x="482" 
d="M347 297q-7 43 -36.5 72t-74.5 26q-24 -2 -42.5 -12t-31.5 -25t-21.5 -34.5t-11.5 -38.5q-2 -12 2.5 -15t23.5 -2q10 0 30 1.5t44 3.5l48 4t42 5q14 2 22 3.5t6 11.5zM463 267q1 -17 -6 -32.5t-25 -20.5q-3 -1 -22.5 -3t-48.5 -5t-63.5 -6t-67.5 -6t-60 -5.5t-40 -3.5
q3 -24 17.5 -43.5t34.5 -33t42.5 -20t42.5 -5.5q25 1 43.5 5t33.5 10t29 15t30 20q8 5 12.5 10.5t7.5 1.5q1 -2 3.5 -6.5t5.5 -10t5.5 -10.5t4.5 -8q4 -6 9 -17t7 -13q4 -5 -7 -16q-14 -14 -30.5 -27.5t-39 -24t-50.5 -17.5t-64 -7q-63 0 -110 20.5t-77.5 54.5t-45.5 79
t-15 94q0 52 18.5 98.5t50 80.5t73.5 54t89 20q39 0 75.5 -13.5t66 -41t48.5 -69.5t23 -98zM389 639q-26 -23 -49 -36.5t-54 -30.5q-34 -18 -67 -33t-54 -20q-5 -1 -9 7q-2 5 -4.5 14t-4.5 16q-2 5 -2 10.5v9.5t9 9q17 8 41.5 20.5t45.5 26.5q26 17 45.5 32t34.5 27
q5 4 7 4.5t7 -4.5q5 -4 11 -10t14 -11q5 -4 13.5 -8.5t15.5 -8.5q10 -6 0 -14z" />
    <glyph glyph-name="egrave" unicode="&#xe8;" horiz-adv-x="482" 
d="M347 297q-7 43 -36.5 72t-74.5 26q-24 -2 -42.5 -12t-31.5 -25t-21.5 -34.5t-11.5 -38.5q-2 -12 2.5 -15t23.5 -2q10 0 30 1.5t44 3.5l48 4t42 5q14 2 22 3.5t6 11.5zM463 267q1 -17 -6 -32.5t-25 -20.5q-3 -1 -22.5 -3t-48.5 -5t-63.5 -6t-67.5 -6t-60 -5.5t-40 -3.5
q3 -24 17.5 -43.5t34.5 -33t42.5 -20t42.5 -5.5q25 1 43.5 5t33.5 10t29 15t30 20q8 5 12.5 10.5t7.5 1.5q1 -2 3.5 -6.5t5.5 -10t5.5 -10.5t4.5 -8q4 -6 9 -17t7 -13q4 -5 -7 -16q-14 -14 -30.5 -27.5t-39 -24t-50.5 -17.5t-64 -7q-63 0 -110 20.5t-77.5 54.5t-45.5 79
t-15 94q0 52 18.5 98.5t50 80.5t73.5 54t89 20q39 0 75.5 -13.5t66 -41t48.5 -69.5t23 -98zM357 577q1 -4 -1 -10t-4 -11t-3 -10.5t-3 -9.5q-2 -3 -3 -6t-5 -1q-20 7 -53.5 22.5t-68.5 32.5q-63 32 -109 61q-6 4 -5 6.5t5 7.5q5 6 12 12.5t12 10.5q7 6 13.5 10.5t11.5 7.5
q5 4 7 3t7 -3q11 -5 38 -21t53 -33q10 -7 23.5 -15.5t26.5 -17.5t23 -16t14 -11q5 -4 6.5 -5t2.5 -4z" />
    <glyph glyph-name="ecircumflex" unicode="&#xea;" horiz-adv-x="482" 
d="M347 297q-7 43 -36.5 72t-74.5 26q-24 -2 -42.5 -12t-31.5 -25t-21.5 -34.5t-11.5 -38.5q-2 -12 2.5 -15t23.5 -2q10 0 30 1.5t44 3.5l48 4t42 5q14 2 22 3.5t6 11.5zM463 267q1 -17 -6 -32.5t-25 -20.5q-3 -1 -22.5 -3t-48.5 -5t-63.5 -6t-67.5 -6t-60 -5.5t-40 -3.5
q3 -24 17.5 -43.5t34.5 -33t42.5 -20t42.5 -5.5q25 1 43.5 5t33.5 10t29 15t30 20q8 5 12.5 10.5t7.5 1.5q1 -2 3.5 -6.5t5.5 -10t5.5 -10.5t4.5 -8q4 -6 9 -17t7 -13q4 -5 -7 -16q-14 -14 -30.5 -27.5t-39 -24t-50.5 -17.5t-64 -7q-63 0 -110 20.5t-77.5 54.5t-45.5 79
t-15 94q0 52 18.5 98.5t50 80.5t73.5 54t89 20q39 0 75.5 -13.5t66 -41t48.5 -69.5t23 -98zM376 550q-3 -1 -9 -4t-11 -5t-11.5 -5.5t-10.5 -4.5q-5 -3 -7 -2t-7 3q-17 12 -40.5 33t-39.5 41q-3 4 -4.5 3t-3.5 -4q-7 -9 -17 -20t-20 -21.5t-19.5 -19t-16.5 -12.5
q-4 -2 -6.5 -2.5t-7.5 1.5t-11.5 5.5t-11.5 5.5q-13 6 -19 8q-5 3 -4.5 4.5t3.5 6.5l15 15t17.5 19.5t16.5 20t13 17.5q4 7 10.5 17t12.5 20t10.5 18t5.5 11q2 5 4 6.5t7 1.5q4 0 11.5 -0.5t12.5 -0.5t14 0.5t13 0.5q5 0 6 -1.5t3 -6.5q1 -5 5.5 -13.5t10.5 -18t11.5 -19
t10.5 -15.5q5 -7 13.5 -17t17.5 -20.5t18 -19.5l15 -15q6 -7 0 -11z" />
    <glyph glyph-name="edieresis" unicode="&#xeb;" horiz-adv-x="482" 
d="M347 297q-7 43 -36.5 72t-74.5 26q-24 -2 -42.5 -12t-31.5 -25t-21.5 -34.5t-11.5 -38.5q-2 -12 2.5 -15t23.5 -2q10 0 30 1.5t44 3.5l48 4t42 5q14 2 22 3.5t6 11.5zM463 267q1 -17 -6 -32.5t-25 -20.5q-3 -1 -22.5 -3t-48.5 -5t-63.5 -6t-67.5 -6t-60 -5.5t-40 -3.5
q3 -24 17.5 -43.5t34.5 -33t42.5 -20t42.5 -5.5q25 1 43.5 5t33.5 10t29 15t30 20q8 5 12.5 10.5t7.5 1.5q1 -2 3.5 -6.5t5.5 -10t5.5 -10.5t4.5 -8q4 -6 9 -17t7 -13q4 -5 -7 -16q-14 -14 -30.5 -27.5t-39 -24t-50.5 -17.5t-64 -7q-63 0 -110 20.5t-77.5 54.5t-45.5 79
t-15 94q0 52 18.5 98.5t50 80.5t73.5 54t89 20q39 0 75.5 -13.5t66 -41t48.5 -69.5t23 -98zM198 589q0 -29 3 -41.5t0 -16t-16 -2t-45 1.5q-26 0 -37.5 -1.5t-14.5 1.5t-1.5 14.5t1.5 38.5q0 33 -2.5 48t1 19.5t17 2.5t44.5 -2q27 0 38 1t14 -4t0.5 -18.5t-2.5 -41.5z
M397 590q0 -26 3.5 -38.5t1 -17t-15.5 -4t-46 0.5q-26 0 -37 -1.5t-15 2.5t-2.5 16.5t1.5 41.5q0 32 -1.5 46t2.5 17.5t17 1t42 -2.5q28 0 39.5 1t13.5 -3.5t-0.5 -17.5t-2.5 -42z" />
    <glyph glyph-name="iacute" unicode="&#xed;" horiz-adv-x="215" 
d="M174 461q-1 -16 -3.5 -49.5t-4.5 -70t-4 -69.5t-2 -48t0.5 -47.5t1.5 -67t1 -63v-34.5q0 -11 -9 -11q-5 0 -20.5 1t-26.5 1t-25 -1t-19 -1q-6 0 -8.5 2t-2.5 11q0 5 0.5 32.5t0.5 62t0.5 67.5t0.5 48t-1.5 49t-3.5 71.5t-4.5 70.5t-3.5 45q-1 10 1 13.5t11 3.5q7 0 23 -3
t31 -3t31.5 3t24.5 3q9 0 10.5 -3t0.5 -13zM243 639q-26 -23 -49 -36.5t-54 -30.5q-34 -18 -67 -33t-54 -20q-5 -1 -9 7q-2 5 -4.5 14t-4.5 16q-2 5 -2 10.5v9.5t9 9q17 8 41.5 20.5t45.5 26.5q26 17 45.5 32t34.5 27q5 4 7 4.5t7 -4.5q5 -4 11 -10t14 -11q5 -4 13.5 -8.5
t15.5 -8.5q10 -6 0 -14z" />
    <glyph glyph-name="igrave" unicode="&#xec;" horiz-adv-x="215" 
d="M174 461q-1 -16 -3.5 -49.5t-4.5 -70t-4 -69.5t-2 -48t0.5 -47.5t1.5 -67t1 -63v-34.5q0 -11 -9 -11q-5 0 -20.5 1t-26.5 1t-25 -1t-19 -1q-6 0 -8.5 2t-2.5 11q0 5 0.5 32.5t0.5 62t0.5 67.5t0.5 48t-1.5 49t-3.5 71.5t-4.5 70.5t-3.5 45q-1 10 1 13.5t11 3.5q7 0 23 -3
t31 -3t31.5 3t24.5 3q9 0 10.5 -3t0.5 -13zM216 577q1 -4 -1 -10t-4 -11t-3 -10.5t-3 -9.5q-2 -3 -3 -6t-5 -1q-20 7 -53.5 22.5t-68.5 32.5q-63 32 -109 61q-6 4 -5 6.5t5 7.5q5 6 12 12.5t12 10.5q7 6 13.5 10.5t11.5 7.5q5 4 7 3t7 -3q11 -5 38 -21t53 -33
q10 -7 23.5 -15.5t26.5 -17.5t23 -16t14 -11q5 -4 6.5 -5t2.5 -4z" />
    <glyph glyph-name="icircumflex" unicode="&#xee;" horiz-adv-x="215" 
d="M174 461q-1 -16 -3.5 -49.5t-4.5 -70t-4 -69.5t-2 -48t0.5 -47.5t1.5 -67t1 -63v-34.5q0 -11 -9 -11q-5 0 -20.5 1t-26.5 1t-25 -1t-19 -1q-6 0 -8.5 2t-2.5 11q0 5 0.5 32.5t0.5 62t0.5 67.5t0.5 48t-1.5 49t-3.5 71.5t-4.5 70.5t-3.5 45q-1 10 1 13.5t11 3.5q7 0 23 -3
t31 -3t31.5 3t24.5 3q9 0 10.5 -3t0.5 -13zM245 550q-3 -1 -9 -4t-11 -5t-11.5 -5.5t-10.5 -4.5q-5 -3 -7 -2t-7 3q-17 12 -40.5 33t-39.5 41q-3 4 -4.5 3t-3.5 -4q-7 -9 -17 -20t-20 -21.5t-19.5 -19t-16.5 -12.5q-4 -2 -6.5 -2.5t-7.5 1.5t-11.5 5.5t-11.5 5.5
q-13 6 -19 8q-5 3 -4.5 4.5t3.5 6.5l15 15t17.5 19.5t16.5 20t13 17.5q4 7 10.5 17t12.5 20t10.5 18t5.5 11q2 5 4 6.5t7 1.5q4 0 11.5 -0.5t12.5 -0.5t14 0.5t13 0.5q5 0 6 -1.5t3 -6.5q1 -5 5.5 -13.5t10.5 -18t11.5 -19t10.5 -15.5q5 -7 13.5 -17t17.5 -20.5t18 -19.5
l15 -15q6 -7 0 -11z" />
    <glyph glyph-name="idieresis" unicode="&#xef;" horiz-adv-x="215" 
d="M174 461q-1 -16 -3.5 -49.5t-4.5 -70t-4 -69.5t-2 -48t0.5 -47.5t1.5 -67t1 -63v-34.5q0 -11 -9 -11q-5 0 -20.5 1t-26.5 1t-25 -1t-19 -1q-6 0 -8.5 2t-2.5 11q0 5 0.5 32.5t0.5 62t0.5 67.5t0.5 48t-1.5 49t-3.5 71.5t-4.5 70.5t-3.5 45q-1 10 1 13.5t11 3.5q7 0 23 -3
t31 -3t31.5 3t24.5 3q9 0 10.5 -3t0.5 -13zM61 598q0 -29 3 -41.5t0 -16t-16 -2t-45 1.5q-26 0 -37.5 -1.5t-14.5 1.5t-1.5 14.5t1.5 38.5q0 33 -2.5 48t1 19.5t17 2.5t44.5 -2q27 0 38 1t14 -4t0.5 -18.5t-2.5 -41.5zM260 599q0 -26 3.5 -38.5t1 -17t-15.5 -4t-46 0.5
q-26 0 -37 -1.5t-15 2.5t-2.5 16.5t1.5 41.5q0 32 -1.5 46t2.5 17.5t17 1t42 -2.5q28 0 39.5 1t13.5 -3.5t-0.5 -17.5t-2.5 -42z" />
    <glyph glyph-name="ntilde" unicode="&#xf1;" horiz-adv-x="523" 
d="M480 10q0 -11 -10 -11q-5 0 -20.5 1t-23.5 1h-11t-16 -0.5t-15.5 -0.5h-9.5q-9 0 -9 14q0 6 0.5 27t1 45t1 45.5t0.5 28.5v24.5t-0.5 37t-0.5 35.5v20q0 58 -19 82t-69 24q-20 0 -40 -10t-36.5 -23t-27 -26.5t-10.5 -19.5v-143v-150q0 -8 -1.5 -10t-7.5 -2q-5 0 -22 1
t-25 1q-10 0 -22.5 -0.5t-24.5 -0.5q-10 0 -10 11v20t0.5 42t0.5 53t0.5 53t0.5 42.5v21.5q0 22 -2 48.5t-5 52.5t-7 50t-8 41q-3 12 5 13q3 1 10 2t15.5 2t16.5 2t11 2q4 1 12 2t16.5 2.5t16 3t9.5 1.5q7 3 8 -7q2 -6 3.5 -22.5l2.5 -27.5q2 -10 4.5 -11.5t10.5 6.5
q10 8 25 20.5t32 23.5q20 12 46.5 21.5t52.5 9.5q37 0 65.5 -10.5t46.5 -27.5t27.5 -41t9.5 -50v-144q0 -13 0.5 -44t0.5 -63t0.5 -58t0.5 -30zM417 582q-14 -14 -38.5 -31.5t-50.5 -22.5q-4 -1 -11 -1t-16 0.5t-18 3t-16 6.5q-13 8 -26.5 16t-28.5 8t-26.5 -9t-21.5 -20
q-5 -5 -10 -3t-7 4l-17 17q-5 5 -12.5 11t-9.5 8t-3.5 4t0.5 6q2 5 15 18.5t24 19.5t26 12.5t32 6.5t33 -5t28 -11q14 -7 27 -11.5t23 -4.5q5 0 13.5 4.5t17.5 10t16 10.5t9 6q4 2 7 3t6 -2t10 -11t9 -11l8 -12t7 -11t2 -4.5t-1 -4.5z" />
    <glyph glyph-name="oacute" unicode="&#xf3;" horiz-adv-x="511" 
d="M389 237q0 31 -10.5 58t-28.5 46.5t-42 30.5t-52 11t-52.5 -11t-42.5 -30.5t-28.5 -46.5t-10.5 -58t10.5 -58t29 -46.5t43 -31t51.5 -11.5q28 0 52 11.5t42 31.5t28.5 46.5t10.5 57.5zM492 238q0 -51 -17.5 -95.5t-47.5 -77.5q-33 -37 -77 -56.5t-94 -19.5
q-51 0 -95.5 20t-77.5 57q-30 33 -47 76.5t-17 94.5q1 51 15.5 91t51.5 82q32 35 77 54.5t93 19.5t91 -18.5t75 -51.5q33 -34 51.5 -78t18.5 -98zM399 639q-26 -23 -49 -36.5t-54 -30.5q-34 -18 -67 -33t-54 -20q-5 -1 -9 7q-2 5 -4.5 14t-4.5 16q-2 5 -2 10.5v9.5t9 9
q17 8 41.5 20.5t45.5 26.5q26 17 45.5 32t34.5 27q5 4 7 4.5t7 -4.5q5 -4 11 -10t14 -11q5 -4 13.5 -8.5t15.5 -8.5q10 -6 0 -14z" />
    <glyph glyph-name="ograve" unicode="&#xf2;" horiz-adv-x="511" 
d="M389 237q0 31 -10.5 58t-28.5 46.5t-42 30.5t-52 11t-52.5 -11t-42.5 -30.5t-28.5 -46.5t-10.5 -58t10.5 -58t29 -46.5t43 -31t51.5 -11.5q28 0 52 11.5t42 31.5t28.5 46.5t10.5 57.5zM492 238q0 -51 -17.5 -95.5t-47.5 -77.5q-33 -37 -77 -56.5t-94 -19.5
q-51 0 -95.5 20t-77.5 57q-30 33 -47 76.5t-17 94.5q1 51 15.5 91t51.5 82q32 35 77 54.5t93 19.5t91 -18.5t75 -51.5q33 -34 51.5 -78t18.5 -98zM339 577q1 -4 -1 -10t-4 -11t-3 -10.5t-3 -9.5q-2 -3 -3 -6t-5 -1q-20 7 -53.5 22.5t-68.5 32.5q-63 32 -109 61q-6 4 -5 6.5
t5 7.5q5 6 12 12.5t12 10.5q7 6 13.5 10.5t11.5 7.5q5 4 7 3t7 -3q11 -5 38 -21t53 -33q10 -7 23.5 -15.5t26.5 -17.5t23 -16t14 -11q5 -4 6.5 -5t2.5 -4z" />
    <glyph glyph-name="ocircumflex" unicode="&#xf4;" horiz-adv-x="511" 
d="M389 237q0 31 -10.5 58t-28.5 46.5t-42 30.5t-52 11t-52.5 -11t-42.5 -30.5t-28.5 -46.5t-10.5 -58t10.5 -58t29 -46.5t43 -31t51.5 -11.5q28 0 52 11.5t42 31.5t28.5 46.5t10.5 57.5zM492 238q0 -51 -17.5 -95.5t-47.5 -77.5q-33 -37 -77 -56.5t-94 -19.5
q-51 0 -95.5 20t-77.5 57q-30 33 -47 76.5t-17 94.5q1 51 15.5 91t51.5 82q32 35 77 54.5t93 19.5t91 -18.5t75 -51.5q33 -34 51.5 -78t18.5 -98zM390 550q-3 -1 -9 -4t-11 -5t-11.5 -5.5t-10.5 -4.5q-5 -3 -7 -2t-7 3q-17 12 -40.5 33t-39.5 41q-3 4 -4.5 3t-3.5 -4
q-7 -9 -17 -20t-20 -21.5t-19.5 -19t-16.5 -12.5q-4 -2 -6.5 -2.5t-7.5 1.5t-11.5 5.5t-11.5 5.5q-13 6 -19 8q-5 3 -4.5 4.5t3.5 6.5l15 15t17.5 19.5t16.5 20t13 17.5q4 7 10.5 17t12.5 20t10.5 18t5.5 11q2 5 4 6.5t7 1.5q4 0 11.5 -0.5t12.5 -0.5t14 0.5t13 0.5
q5 0 6 -1.5t3 -6.5q1 -5 5.5 -13.5t10.5 -18t11.5 -19t10.5 -15.5q5 -7 13.5 -17t17.5 -20.5t18 -19.5l15 -15q6 -7 0 -11z" />
    <glyph glyph-name="odieresis" unicode="&#xf6;" horiz-adv-x="511" 
d="M389 237q0 31 -10.5 58t-28.5 46.5t-42 30.5t-52 11t-52.5 -11t-42.5 -30.5t-28.5 -46.5t-10.5 -58t10.5 -58t29 -46.5t43 -31t51.5 -11.5q28 0 52 11.5t42 31.5t28.5 46.5t10.5 57.5zM492 238q0 -51 -17.5 -95.5t-47.5 -77.5q-33 -37 -77 -56.5t-94 -19.5
q-51 0 -95.5 20t-77.5 57q-30 33 -47 76.5t-17 94.5q1 51 15.5 91t51.5 82q32 35 77 54.5t93 19.5t91 -18.5t75 -51.5q33 -34 51.5 -78t18.5 -98zM209 589q0 -29 3 -41.5t0 -16t-16 -2t-45 1.5q-26 0 -37.5 -1.5t-14.5 1.5t-1.5 14.5t1.5 38.5q0 33 -2.5 48t1 19.5t17 2.5
t44.5 -2q27 0 38 1t14 -4t0.5 -18.5t-2.5 -41.5zM408 590q0 -26 3.5 -38.5t1 -17t-15.5 -4t-46 0.5q-26 0 -37 -1.5t-15 2.5t-2.5 16.5t1.5 41.5q0 32 -1.5 46t2.5 17.5t17 1t42 -2.5q28 0 39.5 1t13.5 -3.5t-0.5 -17.5t-2.5 -42z" />
    <glyph glyph-name="otilde" unicode="&#xf5;" horiz-adv-x="511" 
d="M389 237q0 31 -10.5 58t-28.5 46.5t-42 30.5t-52 11t-52.5 -11t-42.5 -30.5t-28.5 -46.5t-10.5 -58t10.5 -58t29 -46.5t43 -31t51.5 -11.5q28 0 52 11.5t42 31.5t28.5 46.5t10.5 57.5zM492 238q0 -51 -17.5 -95.5t-47.5 -77.5q-33 -37 -77 -56.5t-94 -19.5
q-51 0 -95.5 20t-77.5 57q-30 33 -47 76.5t-17 94.5q1 51 15.5 91t51.5 82q32 35 77 54.5t93 19.5t91 -18.5t75 -51.5q33 -34 51.5 -78t18.5 -98zM410 587q-14 -14 -38.5 -31.5t-50.5 -22.5q-4 -1 -11 -1t-16 0.5t-18 3t-16 6.5q-13 8 -26.5 16t-28.5 8t-26.5 -9t-21.5 -20
q-5 -5 -10 -3t-7 4l-17 17q-5 5 -12.5 11t-9.5 8t-3.5 4t0.5 6q2 5 15 18.5t24 19.5t26 12.5t32 6.5t33 -5t28 -11q14 -7 27 -11.5t23 -4.5q5 0 13.5 4.5t17.5 10t16 10.5t9 6q4 2 7 3t6 -2t10 -11t9 -11l8 -12t7 -11t2 -4.5t-1 -4.5z" />
    <glyph glyph-name="uacute" unicode="&#xfa;" horiz-adv-x="552" 
d="M502 443q0 -10 -1 -36t-2 -58t-2 -65t-1 -57v-52.5t0.5 -59t1.5 -55.5t2 -40q1 -11 -1 -14t-8 -5q-2 -1 -8.5 -1h-14t-15 0.5t-10.5 0.5q-8 0 -24 -0.5t-21 -0.5q-6 -1 -7.5 0.5t-3.5 9.5q-1 4 -1.5 11t-1 14.5t-0.5 14.5v11q0 20 -12 8q-14 -14 -32.5 -28t-34.5 -21
q-17 -8 -42 -15t-52 -7q-40 0 -68 10t-44 24q-31 28 -43 83q-3 14 -5 35t-3 43.5t-1 43v34.5q1 25 3 51.5t4.5 49.5t5.5 41.5t5 28.5q2 12 5 15.5t11 3.5q6 0 19.5 -1t21.5 -1t23.5 0.5t20.5 0.5q6 0 8.5 -3.5t0.5 -15.5l-3 -21t-4 -31.5t-3.5 -35.5t-2.5 -34
q0 -13 -0.5 -33t-0.5 -41.5t1 -42t3 -34.5q3 -17 9 -32t18 -26t30 -17t44 -6q17 0 38 9.5t39 23.5t30 29.5t12 28.5q1 16 1.5 36.5l1 41t1 37t0.5 24.5t-0.5 26t-0.5 36.5t-0.5 35t-0.5 21.5q0 14 4.5 19t15.5 5q6 0 16 -0.5t18 -0.5t21.5 0.5t25.5 0.5q14 0 14 -17z
M429 639q-26 -23 -49 -36.5t-54 -30.5q-34 -18 -67 -33t-54 -20q-5 -1 -9 7q-2 5 -4.5 14t-4.5 16q-2 5 -2 10.5v9.5t9 9q17 8 41.5 20.5t45.5 26.5q26 17 45.5 32t34.5 27q5 4 7 4.5t7 -4.5q5 -4 11 -10t14 -11q5 -4 13.5 -8.5t15.5 -8.5q10 -6 0 -14z" />
    <glyph glyph-name="ugrave" unicode="&#xf9;" horiz-adv-x="552" 
d="M502 443q0 -10 -1 -36t-2 -58t-2 -65t-1 -57v-52.5t0.5 -59t1.5 -55.5t2 -40q1 -11 -1 -14t-8 -5q-2 -1 -8.5 -1h-14t-15 0.5t-10.5 0.5q-8 0 -24 -0.5t-21 -0.5q-6 -1 -7.5 0.5t-3.5 9.5q-1 4 -1.5 11t-1 14.5t-0.5 14.5v11q0 20 -12 8q-14 -14 -32.5 -28t-34.5 -21
q-17 -8 -42 -15t-52 -7q-40 0 -68 10t-44 24q-31 28 -43 83q-3 14 -5 35t-3 43.5t-1 43v34.5q1 25 3 51.5t4.5 49.5t5.5 41.5t5 28.5q2 12 5 15.5t11 3.5q6 0 19.5 -1t21.5 -1t23.5 0.5t20.5 0.5q6 0 8.5 -3.5t0.5 -15.5l-3 -21t-4 -31.5t-3.5 -35.5t-2.5 -34
q0 -13 -0.5 -33t-0.5 -41.5t1 -42t3 -34.5q3 -17 9 -32t18 -26t30 -17t44 -6q17 0 38 9.5t39 23.5t30 29.5t12 28.5q1 16 1.5 36.5l1 41t1 37t0.5 24.5t-0.5 26t-0.5 36.5t-0.5 35t-0.5 21.5q0 14 4.5 19t15.5 5q6 0 16 -0.5t18 -0.5t21.5 0.5t25.5 0.5q14 0 14 -17z
M378 577q1 -4 -1 -10t-4 -11t-3 -10.5t-3 -9.5q-2 -3 -3 -6t-5 -1q-20 7 -53.5 22.5t-68.5 32.5q-63 32 -109 61q-6 4 -5 6.5t5 7.5q5 6 12 12.5t12 10.5q7 6 13.5 10.5t11.5 7.5q5 4 7 3t7 -3q11 -5 38 -21t53 -33q10 -7 23.5 -15.5t26.5 -17.5t23 -16t14 -11q5 -4 6.5 -5
t2.5 -4z" />
    <glyph glyph-name="ucircumflex" unicode="&#xfb;" horiz-adv-x="552" 
d="M502 443q0 -10 -1 -36t-2 -58t-2 -65t-1 -57v-52.5t0.5 -59t1.5 -55.5t2 -40q1 -11 -1 -14t-8 -5q-2 -1 -8.5 -1h-14t-15 0.5t-10.5 0.5q-8 0 -24 -0.5t-21 -0.5q-6 -1 -7.5 0.5t-3.5 9.5q-1 4 -1.5 11t-1 14.5t-0.5 14.5v11q0 20 -12 8q-14 -14 -32.5 -28t-34.5 -21
q-17 -8 -42 -15t-52 -7q-40 0 -68 10t-44 24q-31 28 -43 83q-3 14 -5 35t-3 43.5t-1 43v34.5q1 25 3 51.5t4.5 49.5t5.5 41.5t5 28.5q2 12 5 15.5t11 3.5q6 0 19.5 -1t21.5 -1t23.5 0.5t20.5 0.5q6 0 8.5 -3.5t0.5 -15.5l-3 -21t-4 -31.5t-3.5 -35.5t-2.5 -34
q0 -13 -0.5 -33t-0.5 -41.5t1 -42t3 -34.5q3 -17 9 -32t18 -26t30 -17t44 -6q17 0 38 9.5t39 23.5t30 29.5t12 28.5q1 16 1.5 36.5l1 41t1 37t0.5 24.5t-0.5 26t-0.5 36.5t-0.5 35t-0.5 21.5q0 14 4.5 19t15.5 5q6 0 16 -0.5t18 -0.5t21.5 0.5t25.5 0.5q14 0 14 -17z
M419 550q-3 -1 -9 -4t-11 -5t-11.5 -5.5t-10.5 -4.5q-5 -3 -7 -2t-7 3q-17 12 -40.5 33t-39.5 41q-3 4 -4.5 3t-3.5 -4q-7 -9 -17 -20t-20 -21.5t-19.5 -19t-16.5 -12.5q-4 -2 -6.5 -2.5t-7.5 1.5t-11.5 5.5t-11.5 5.5q-13 6 -19 8q-5 3 -4.5 4.5t3.5 6.5l15 15t17.5 19.5
t16.5 20t13 17.5q4 7 10.5 17t12.5 20t10.5 18t5.5 11q2 5 4 6.5t7 1.5q4 0 11.5 -0.5t12.5 -0.5t14 0.5t13 0.5q5 0 6 -1.5t3 -6.5q1 -5 5.5 -13.5t10.5 -18t11.5 -19t10.5 -15.5q5 -7 13.5 -17t17.5 -20.5t18 -19.5l15 -15q6 -7 0 -11z" />
    <glyph glyph-name="udieresis" unicode="&#xfc;" horiz-adv-x="552" 
d="M502 443q0 -10 -1 -36t-2 -58t-2 -65t-1 -57v-52.5t0.5 -59t1.5 -55.5t2 -40q1 -11 -1 -14t-8 -5q-2 -1 -8.5 -1h-14t-15 0.5t-10.5 0.5q-8 0 -24 -0.5t-21 -0.5q-6 -1 -7.5 0.5t-3.5 9.5q-1 4 -1.5 11t-1 14.5t-0.5 14.5v11q0 20 -12 8q-14 -14 -32.5 -28t-34.5 -21
q-17 -8 -42 -15t-52 -7q-40 0 -68 10t-44 24q-31 28 -43 83q-3 14 -5 35t-3 43.5t-1 43v34.5q1 25 3 51.5t4.5 49.5t5.5 41.5t5 28.5q2 12 5 15.5t11 3.5q6 0 19.5 -1t21.5 -1t23.5 0.5t20.5 0.5q6 0 8.5 -3.5t0.5 -15.5l-3 -21t-4 -31.5t-3.5 -35.5t-2.5 -34
q0 -13 -0.5 -33t-0.5 -41.5t1 -42t3 -34.5q3 -17 9 -32t18 -26t30 -17t44 -6q17 0 38 9.5t39 23.5t30 29.5t12 28.5q1 16 1.5 36.5l1 41t1 37t0.5 24.5t-0.5 26t-0.5 36.5t-0.5 35t-0.5 21.5q0 14 4.5 19t15.5 5q6 0 16 -0.5t18 -0.5t21.5 0.5t25.5 0.5q14 0 14 -17z
M237 589q0 -29 3 -41.5t0 -16t-16 -2t-45 1.5q-26 0 -37.5 -1.5t-14.5 1.5t-1.5 14.5t1.5 38.5q0 33 -2.5 48t1 19.5t17 2.5t44.5 -2q27 0 38 1t14 -4t0.5 -18.5t-2.5 -41.5zM436 590q0 -26 3.5 -38.5t1 -17t-15.5 -4t-46 0.5q-26 0 -37 -1.5t-15 2.5t-2.5 16.5t1.5 41.5
q0 32 -1.5 46t2.5 17.5t17 1t42 -2.5q28 0 39.5 1t13.5 -3.5t-0.5 -17.5t-2.5 -42z" />
    <glyph glyph-name="dagger" unicode="&#x2020;" horiz-adv-x="418" 
d="M401 459q0 -5 -1 -17t-1 -28t0.5 -23.5t0.5 -15.5q0 -7 -2.5 -9.5t-12.5 -2.5q-3 0 -14 0.5t-27.5 1.5t-37.5 2t-44 2v-21t-0.5 -26t-0.5 -23v-13v-39.5t0.5 -69t1 -82.5t0.5 -80.5v-63.5v-31q-1 -8 -3 -10t-7 -2t-19.5 1t-25.5 1t-25.5 -1t-19.5 -1q-7 0 -9 1.5t-3 9.5
v31t0.5 63t1.5 80.5t1.5 82.5t1 68.5t0.5 39.5v84l-42 -2t-38 -1.5t-28.5 -1t-14.5 -0.5q-9 0 -11.5 2t-2.5 9t0.5 15t0.5 24q0 17 -1 28.5t-1 16.5t1.5 8t8.5 3q3 0 14 -0.5t28 -1t38 -1t44 -0.5q0 30 -0.5 65t-1 66.5t-0.5 54.5v29q0 11 1 14.5t10 3.5q6 0 20.5 -1
t29.5 -1q14 0 28 1t20 1q7 0 8 -3t1 -13v-30.5t-0.5 -55.5t-1 -67t-1.5 -64q23 0 44.5 0.5t38 1t27 1t13.5 0.5q8 0 10.5 -2.5t2.5 -7.5z" />
    <glyph glyph-name="degree" unicode="&#xb0;" horiz-adv-x="392" 
d="M285 513q0 48 -24 78.5t-66 30.5q-41 0 -65.5 -30.5t-24.5 -78.5q0 -23 7 -42.5t19 -34t28.5 -23t35.5 -8.5q42 0 66 31.5t24 76.5zM354 513q0 -37 -12.5 -69.5t-34 -56.5t-50.5 -38t-62 -14t-62 14t-50.5 38t-34 56.5t-12.5 69.5t12.5 69.5t34 56.5t50.5 38t62 14
t62 -14t50.5 -38t34 -56.5t12.5 -69.5z" />
    <glyph glyph-name="cent" unicode="&#xa2;" horiz-adv-x="346" 
d="M203 427q-17 -4 -32 -14t-26 -26t-17 -36t-5 -43q1 -33 13.5 -56.5t32.5 -39.5q10 54 18 107.5t16 107.5zM324 473q-2 -5 -4 -16t-4 -16q-2 -6 -4.5 -16t-3.5 -15q-2 -8 -9 -3q-11 9 -24 15t-31 8q-4 -25 -8.5 -55t-9 -61t-9.5 -61.5t-9 -57.5q9 -3 21 -3q28 0 43.5 8.5
t24.5 15.5q7 5 10 -4q2 -6 4 -16.5t3 -15.5q1 -6 2.5 -16t2.5 -16q2 -6 -0.5 -9t-10.5 -7q-14 -6 -38 -13t-53 -7q-5 0 -11 0.5t-11 1.5q-4 -36 -8 -63.5t-6 -42.5q-1 -11 -7 -8q-6 2 -16 4q-5 0 -10.5 -0.5t-7.5 1.5q-3 1 -2 11q2 7 6 36t12 72q-25 9 -48 25t-41 39.5
t-29 54t-11 68.5q0 43 14.5 80t40 63.5t59 41.5t72.5 15h3q5 30 7.5 50t4.5 28t2.5 9t4.5 -1q3 -2 8 -3.5t9 -3.5t7.5 -3t8.5 -3q3 -3 1 -15q-2 -5 -5 -21.5t-7 -39.5v-1q36 -6 59 -22q9 -7 8 -12z" />
    <glyph glyph-name="sterling" unicode="&#xa3;" horiz-adv-x="467" 
d="M481 87q-2 -5 -5 -20.5t-4 -20.5t-2 -16.5t-2 -19.5q-1 -10 -14 -10h-17t-34 0.5t-44 0.5t-46 0.5t-41 1t-29 0.5h-36t-41.5 -0.5t-37 -2t-23.5 -2.5q-8 -2 -21.5 -4.5t-22.5 -4.5q-10 -2 -12.5 0t-4.5 8q-2 5 -4 17.5t-4 20.5q-2 9 -5 22t-5 20q-4 17 11 18h8.5t9.5 1
q46 12 71 27.5t35 33t8 35.5t-9 35q-6 -1 -19 -1.5t-28.5 -0.5h-32h-30.5q-7 0 -8.5 2t-3.5 16q-1 18 0 34l2 22t3 17q3 8 5 9.5t9 1.5q12 0 23.5 -0.5t20.5 -0.5q-15 26 -27 50.5t-15 47.5q-6 48 14 83.5t62 61.5q26 16 62.5 24t75.5 7q29 -1 71 -10.5t81 -35.5
q5 -3 6.5 -10t-1.5 -13q-2 -5 -4 -15t-4 -17q-2 -5 -3 -17.5t-2 -19.5q-1 -6 -1.5 -10.5t-4.5 -6.5t-8 0t-7 4q-14 11 -42.5 25.5t-59.5 21.5q-17 4 -39 4q-35 0 -61 -15t-26 -46q0 -7 2.5 -16t4.5 -15q6 -16 19.5 -36.5t30.5 -49.5q8 0 25.5 -0.5t38.5 -1t42.5 -0.5h37.5
q5 0 7.5 -1t2.5 -8q0 -10 -0.5 -20t-0.5 -18q1 -10 1 -18.5t2 -19.5q1 -10 -9 -10h-27h-30.5t-26 0.5t-13.5 1.5q22 -72 -34 -128q36 0 72 0.5t67 0.5t54.5 0.5t35.5 0.5q10 0 12 -2.5t-1 -11.5z" />
    <glyph glyph-name="section" unicode="&#xa7;" horiz-adv-x="406" 
d="M267 299q-1 15 -15.5 34.5t-42.5 36.5q-32 19 -44 19q-8 -1 -13.5 -8.5t-13.5 -22.5q-7 -11 -5 -22q0 -31 44 -58q24 -15 37.5 -21.5t21.5 -5.5q8 2 14 10t15 22q2 3 2 7v9zM373 89q0 -28 -11 -55.5t-34 -49t-57.5 -35t-80.5 -13.5q-18 0 -38.5 3t-41 10t-39.5 18.5
t-34 27.5q-7 8 -8 11t3 10q3 7 8.5 14.5t9.5 14.5l7.5 15t8.5 16q4 9 14 -1q24 -24 50 -40.5t53 -16.5q22 0 38 6t25.5 15t14 20.5t4.5 23.5q0 18 -11.5 31t-39.5 29q-17 8 -37.5 17.5t-43.5 22.5q-48 27 -72 54.5t-24 65.5t11.5 59.5t28.5 41.5q7 8 10.5 15.5t-9.5 20.5
q-17 17 -31 41t-14 66q0 30 10 56.5t31 46.5t52.5 31.5t75.5 11.5q34 0 68.5 -8.5t61.5 -38.5q11 -11 4 -19q-4 -7 -8 -12.5t-7 -13.5l-8 -16t-7 -15q-3 -9 -13 1q-25 21 -45 33t-45 12q-38 0 -53.5 -16t-15.5 -37q0 -11 2 -21t9.5 -20t21.5 -21t39 -26q35 -20 63 -37
t46 -31q22 -15 37.5 -36t15.5 -47q0 -29 -12.5 -53t-34.5 -46q-10 -11 -10 -15.5t11 -13.5q12 -10 21 -19.5t16 -21.5t10.5 -27.5t3.5 -38.5z" />
    <glyph glyph-name="bullet" unicode="&#x2022;" horiz-adv-x="451" 
d="M412 290q0 -43 -14.5 -82.5t-40.5 -67.5q-26 -27 -60.5 -41t-72.5 -14q-35 0 -67.5 12.5t-57.5 35.5q-30 28 -46 69t-16 88q0 38 10.5 73.5t32.5 62.5q26 32 64 50t80 18t79 -17t63 -48q23 -27 34.5 -63t11.5 -76z" />
    <glyph glyph-name="paragraph" unicode="&#xb6;" horiz-adv-x="543" 
d="M317 427v13t-0.5 30t-0.5 38t-0.5 38t-0.5 31v15q0 5 -5.5 7.5t-20.5 2.5q-33 0 -56.5 -11t-38.5 -31t-22 -47t-7 -60q0 -66 30 -96.5t87 -10.5q12 5 19 8t12 7q2 9 3 19.5t1 20.5v17v9zM488 641v-66t-0.5 -84.5t-0.5 -78.5v-49q0 -73 -13.5 -130.5t-42.5 -106.5
q-26 -43 -64 -73t-81 -48q-62 -25 -140 -29q-21 -3 -25 9q-2 6 -5 15.5t-5 17.5t1.5 11t9.5 3q33 2 71.5 4t74.5 19t62 40.5t39 43.5q21 34 34 78t18 111q1 9 1 28.5t0.5 44t0 51.5t-0.5 51t-0.5 42t-0.5 26q-4 7 -12 10.5t-15 5.5q-15 3 -28 3q2 -10 3.5 -29.5t2.5 -44.5
t1.5 -53.5t0.5 -55.5t-0.5 -50.5t-2.5 -38.5q-11 -86 -38.5 -134t-76.5 -77q-16 -10 -34.5 -16t-37 -10t-35.5 -5t-29 0q-7 1 -14 4t-10 10q-6 14 -8 27t-2 25q0 8 3.5 12t15.5 0q11 -4 30.5 -8t42.5 -4q66 0 99 51q10 15 16 34t9 36t1.5 27t-6.5 7q-14 -10 -40 -20t-59 -10
q-30 0 -59 11.5t-51.5 34t-36.5 56t-14 77.5q0 57 18 102.5t50 77t76.5 48.5t98.5 17q25 0 51.5 -3t51 -7t45 -9t34.5 -8q17 -4 21.5 -7.5t4.5 -15.5z" />
    <glyph glyph-name="germandbls" unicode="&#xdf;" horiz-adv-x="500" 
d="M474 238q0 -85 -48.5 -142t-145.5 -99q-12 -5 -16.5 -3t-9.5 11q-3 5 -8.5 14t-10.5 18t-9 16t-5 9q-4 7 14 15q22 9 45 23t41.5 33t30 43t11.5 53q0 37 -15.5 60.5t-37.5 35t-46.5 12.5t-43.5 -6q-11 -4 -14 -4t-4 8q0 4 -1 13.5t-2 20t-1.5 19t-0.5 11.5q0 5 0.5 7.5
t9.5 6.5q39 14 65.5 40.5t26.5 71.5q0 39 -13.5 56.5t-43.5 17.5q-15 0 -29.5 -6.5t-26 -19.5t-18.5 -31.5t-7 -42.5q0 -12 1 -42.5t2 -73t2 -92.5t2.5 -100.5t2.5 -98t2 -83.5q0 -10 -4.5 -11t-15.5 1q-8 2 -19 2.5t-22 0.5q-10 0 -21.5 -1t-22.5 -1q-5 0 -9.5 2.5
t-3.5 12.5q1 17 2 54t1.5 77.5t1 77t0.5 52.5t-1 44t-1.5 58.5t-1.5 59t-1 46.5q0 31 10.5 66.5t33 66t57.5 50.5t84 20q33 0 61.5 -10t49.5 -28t32.5 -44.5t11.5 -59.5q0 -21 -5.5 -39t-13.5 -32.5t-16.5 -25t-15.5 -16.5q-12 -11 -10.5 -16.5t18.5 -10.5
q33 -10 56.5 -28.5t38 -41.5t21 -48t6.5 -49z" />
    <glyph glyph-name="registered" unicode="&#xae;" horiz-adv-x="618" 
d="M446 183q-5 0 -9 0.5t-8 0.5t-10.5 -0.5t-13.5 -0.5t-13 -0.5t-7 -0.5q-5 0 -6 2l-3 6q-1 2 -8 18.5t-16 37t-17 38.5t-11 23q-7 6 -13 7t-28 2q-26 1 -32 -1.5t-6 -10.5q0 -9 2 -27.5t4.5 -37.5t4.5 -34.5t2 -18.5q1 -6 -0.5 -7t-6.5 0h-8.5t-15 0.5t-16.5 0.5h-14h-15
t-12 -1q28 -26 62.5 -40t76.5 -14t72 12.5t61 34.5q2 2 5 6t-1 5zM163 354q0 23 -2.5 55t-5.5 62.5t-6.5 54t-6.5 29.5q-24 -35 -41 -77t-17 -98q0 -52 15.5 -94t43.5 -79q3 -4 9 -4t6 5q1 11 1.5 29t1.5 39t1.5 41.5t0.5 36.5zM534 380q0 49 -16 95.5t-45.5 82.5t-71 57.5
t-92.5 21.5q-38 0 -68 -11.5t-51 -25.5q-5 -4 -6 -10t2 -5q13 2 30.5 3t31.5 2q17 1 40 1h33q65 0 107.5 -32t42.5 -96q0 -26 -5 -44.5t-13.5 -32t-20 -23t-25.5 -17.5q-8 -5 -3 -14q2 -5 11 -20t21 -33.5t24 -36t20 -27.5q25 29 39.5 71.5t14.5 93.5zM379 447q0 27 -8.5 43
t-22.5 24.5t-31 11t-34 2.5q-20 0 -28 -2t-14 -4q-1 -8 -1.5 -30.5t-0.5 -43.5v-48q0 -1 7 -1.5t17.5 -1t23.5 -1t25 -0.5q30 0 48.5 14t18.5 37zM581 380q0 -59 -20 -114t-56 -97t-86 -67t-110 -25q-59 0 -109 25t-86 67t-56.5 97t-20.5 114q0 60 20 114.5t56 96.5t86 67
t110 25t110 -25t86 -67t56 -96.5t20 -114.5z" />
    <glyph glyph-name="copyright" unicode="&#xa9;" horiz-adv-x="616" 
d="M432 542q-1 -4 -6 -12.5t-10.5 -18.5t-10.5 -18t-6 -11q-2 -5 -2.5 -6.5t-2.5 0.5q-12 10 -32 17t-36 7q-18 0 -35 -6t-29.5 -19.5t-20 -35.5t-7.5 -55q0 -32 7.5 -54t21 -36t31.5 -20t38 -6q22 0 31.5 4.5t25.5 13.5q7 3 8 -4q1 -1 5.5 -9t9.5 -18t9.5 -19.5t5.5 -12.5
q1 -6 -1 -8t-10 -6q-12 -6 -36.5 -14t-54.5 -8q-42 0 -76.5 14.5t-59.5 41t-38.5 62.5t-13.5 78t13.5 78t38.5 62.5t59.5 41.5t75.5 15q35 0 58 -7.5t43 -19.5q8 -4 7 -11zM528 381q0 48 -16 93t-45 80t-69.5 56.5t-89.5 21.5q-50 0 -90.5 -21t-69 -55.5t-44.5 -80
t-16 -94.5t16 -94.5t45 -80t69.5 -55.5t89.5 -21t90 21.5t69.5 56.5t44.5 80t16 93zM580 380q0 -59 -20 -114t-56 -97t-86 -67t-110 -25q-59 0 -109 25t-86 67t-56.5 97t-20.5 114q0 60 19.5 114.5t55.5 96.5t86 67t111 25q60 0 110 -25t86 -67t56 -96.5t20 -114.5z" />
    <glyph glyph-name="trademark" unicode="&#x2122;" horiz-adv-x="627" 
d="M259 658v-8.5t-0.5 -15.5l-1 -18t-1.5 -16q-1 -5 -1 -6.5t-5 -0.5h-10t-18.5 -0.5t-21.5 -0.5h-19q0 -7 -0.5 -19t-0.5 -24.5v-23.5v-15q0 -13 0.5 -32.5t1.5 -38.5t1.5 -33t0.5 -16q0 -7 -7 -6q-2 0 -9 0.5t-14.5 0.5h-14.5h-8h-8.5t-14.5 -0.5t-15 -0.5h-8q-7 -1 -6 6
q0 2 0.5 16t1.5 33t1.5 38.5t0.5 32.5v79q-9 -1 -21.5 -1.5t-24 -1t-20.5 -1t-10 -0.5q-2 0 -3.5 0.5t0.5 5.5q0 1 1 9t1.5 18.5t1.5 20.5t1 14q1 7 1.5 14t1.5 9q1 4 7 4q2 0 16.5 0.5t33 1t37 1.5t28.5 1t28 0.5t35.5 1t31.5 1t17 0.5q9 0 10 -4q1 -5 2 -12.5t1 -12.5z
M602 390q1 -8 -6 -6q-4 0 -18 1t-18 1q-5 0 -17.5 -1t-16.5 -1q-6 -1 -6 8q0 12 0.5 29t0.5 35.5t0.5 37t0.5 32.5q0 6 -2 6.5t-4 -3.5q-5 -14 -10.5 -35t-10.5 -42.5t-9.5 -39.5t-7.5 -26q0 -2 -5.5 -2t-12 0.5t-12 1t-6.5 0.5t-6.5 -0.5t-11.5 -1t-11.5 -0.5t-6.5 2
q-3 6 -8.5 27.5t-11.5 45.5t-11.5 44.5t-7.5 25.5q-2 4 -3.5 3.5t-1.5 -6.5q0 -15 0.5 -35t1 -39.5t1 -36t0.5 -23.5q0 -9 -7 -8q-4 0 -16.5 1t-16.5 1q-5 0 -18.5 -1t-17.5 -1q-9 -2 -7 6q0 2 0.5 19.5t1.5 41t1.5 46.5t0.5 35t-0.5 36l-1 48t-1 43t-0.5 21q0 5 0.5 6
t5.5 1h7.5t12 0.5t12 0.5h7.5q4 0 17.5 1t16.5 2q5 1 9 -6q5 -5 13.5 -18t17.5 -29t16.5 -32t11.5 -28q2 -7 6.5 -18.5t6.5 -11.5q1 0 5.5 10.5t6.5 19.5q3 10 10.5 24.5t16 30t17 29.5t14.5 22q2 3 5.5 5.5t7.5 0.5q3 -1 12.5 -1.5t12.5 -0.5h44q7 1 6 -7q0 -2 -0.5 -21
t-0.5 -43.5t-0.5 -48.5t-0.5 -36t0.5 -35t1 -46.5t1 -41t0.5 -19.5z" />
    <glyph glyph-name="acute" unicode="&#xb4;" horiz-adv-x="292" 
d="M267 653q-26 -23 -49 -36.5t-54 -30.5q-34 -18 -67 -33t-54 -20q-5 -1 -9 7q-2 5 -4.5 14t-4.5 16q-2 5 -2 10.5v9.5t9 9q17 8 41.5 20.5t45.5 26.5q26 17 45.5 32t34.5 27q5 4 7 4.5t7 -4.5q5 -4 11 -10t14 -11q5 -4 13.5 -8.5t15.5 -8.5q10 -6 0 -14z" />
    <glyph glyph-name="dieresis" unicode="&#xa8;" horiz-adv-x="373" 
d="M140 644q0 -29 3 -41.5t0 -16t-16 -2t-45 1.5q-26 0 -37.5 -1.5t-14.5 1.5t-1.5 14.5t1.5 38.5q0 33 -2.5 48t1 19.5t17 2.5t44.5 -2q27 0 38 1t14 -4t0.5 -18.5t-2.5 -41.5zM339 645q0 -26 3.5 -38.5t1 -17t-15.5 -4t-46 0.5q-26 0 -37 -1.5t-15 2.5t-2.5 16.5t1.5 41.5
q0 32 -1.5 46t2.5 17.5t17 1t42 -2.5q28 0 39.5 1t13.5 -3.5t-0.5 -17.5t-2.5 -42z" />
    <glyph glyph-name="notequal" unicode="&#x2260;" horiz-adv-x="590" 
d="M597 630q3 -10 -8 -11q-66 0 -90 -24q-13 -14 -17 -43.5t-4 -88.5q38 -1 67 -1h35q8 0 10 -3.5t2 -14.5v-14.5v-21.5v-21v-13q1 -7 -0.5 -12.5t-9.5 -3.5q-3 1 -32.5 2t-71.5 3q0 -30 0.5 -64.5t0.5 -74.5q0 -13 1 -46t1.5 -68.5t1.5 -64t1 -32.5q0 -8 -1.5 -10.5
t-8.5 -2.5q-9 0 -23.5 0.5t-22.5 0.5t-22.5 -0.5t-20.5 -0.5q-9 0 -11 3t-2 12q0 84 -0.5 176.5t-2.5 175.5q-28 1 -49.5 1.5t-32.5 0.5q-14 0 -43 -0.5t-64 -1.5q3 -63 3 -143q0 -13 1 -46t1.5 -68.5t1.5 -64t1 -32.5q0 -8 -1.5 -10.5t-8.5 -2.5q-9 0 -23.5 0.5t-22.5 0.5
t-22.5 -0.5t-20.5 -0.5q-9 0 -11 3t-2 12q0 89 1 178.5t-1 170.5q-21 -1 -35 -1h-16q-11 0 -13 11q-1 5 -1.5 14.5t-0.5 18.5q0 8 0.5 20.5t-0.5 16.5t3 8t12 6q2 1 15 1t33 1q-2 56 2 94t25 65q19 25 43 38.5t46 21.5q11 4 26.5 6.5t31 4t29 2t21.5 0.5q9 2 11 -6
q2 -6 2.5 -21t1.5 -21q1 -7 2.5 -20t2.5 -18q2 -11 -9 -10q-36 6 -65 -2t-40 -19q-14 -14 -19 -42.5t-5 -70.5q42 1 77 1.5t44 0.5h67q-1 32 -1 57.5t2.5 46.5t9 38.5t18.5 32.5q19 25 43 38.5t46 21.5t46 10.5t39 4.5q10 2 11 -5q2 -6 4 -21t4 -21q2 -7 4.5 -19.5z" />
    <glyph glyph-name="AE" unicode="&#xc6;" horiz-adv-x="827" 
d="M395 252v29v36t-0.5 34t-0.5 24q-1 20 -1 43.5v46.5v43t-1 33q-2 25 -7 23t-16 -25q-4 -9 -13.5 -29.5t-21.5 -47.5t-25.5 -57t-26 -57.5t-21.5 -49t-13 -30.5q-6 -17 -1.5 -21t15.5 -4q5 0 24.5 1t42 2.5t42 3t24.5 2.5zM799 94q-2 -8 -4 -19.5t-4 -21.5q-2 -9 -4.5 -25
t-2.5 -21q0 -11 -23 -8q-8 0 -29.5 1t-49.5 2t-59.5 1.5t-58.5 0.5q-20 0 -45 -0.5t-48.5 -1t-41.5 -1.5t-22 -1q-15 -1 -15 14q0 2 0.5 24t1.5 48q1 30 1 68q-13 2 -23 2.5t-36 0.5q-13 0 -32 -0.5t-37.5 -1t-33 -1.5t-18.5 -1q-8 -1 -11.5 -2.5t-6.5 -9.5
q-2 -5 -10.5 -24.5t-17.5 -42t-17 -41t-10 -22.5q-3 -6 -4 -8.5t-6 -2.5q-6 0 -21.5 1t-22.5 1q-3 0 -9.5 -0.5t-13.5 -0.5t-12.5 -0.5t-8.5 -0.5q-8 0 -10 2t-2 11t0.5 12t0.5 9q0 5 -0.5 14t-0.5 14t4.5 12t10.5 21q2 4 10 20.5t19 40t24.5 51t26 54.5t23.5 51t17 39
t18.5 43.5t27.5 61.5t30.5 68t29 64t22 48.5t10.5 22.5q5 10 6.5 13.5t9.5 5.5q11 1 29.5 3t38.5 3t38.5 1.5t28.5 0.5q4 0 21 0.5t39 1t47.5 1t47.5 1t37.5 1t18.5 0.5q6 0 19.5 0.5t27.5 1.5t26.5 1.5t17.5 0.5q18 0 21 -14q1 -6 1.5 -19t2.5 -20q2 -8 4 -23.5t3 -20.5
q0 -5 -2.5 -6.5t-13.5 -0.5h-21.5t-39.5 -0.5t-49 -1t-48.5 -1.5t-39.5 -1.5t-22 -0.5q-14 -1 -23.5 -1t-15 -7t-8 -24.5t-2.5 -52.5q0 -33 0.5 -53.5t4 -31.5t12 -14.5t24.5 -3.5q20 0 51.5 1t63.5 2t60 2.5t42 3.5q8 1 11.5 -1.5t1.5 -13.5q-1 -5 -2.5 -16t-2.5 -23
q-2 -14 -2 -27v-18q0 -8 -8.5 -7.5t-20.5 2.5q-7 1 -28.5 2t-47.5 2t-50 1.5t-35 0.5q-30 0 -45 -2t-21.5 -11t-7 -29.5t-0.5 -58.5q0 -44 2 -66.5t9.5 -32.5t23 -11t43.5 -1q7 0 35 1.5t60.5 3.5t62.5 4t42 4q13 2 16 -1.5t0 -14.5z" />
    <glyph glyph-name="Oslash" unicode="&#xd8;" horiz-adv-x="725" 
d="M580 342q0 47 -13 88t-39 73q-45 -51 -88.5 -99t-76.5 -85q-12 -14 -30 -36t-38 -45t-39 -45t-32 -37q29 -29 64.5 -44.5t73.5 -15.5q42 0 81.5 19t70 52t48.5 78t18 97zM489 542q-29 22 -61 34.5t-66 12.5q-42 0 -81.5 -19t-69.5 -52.5t-48.5 -78.5t-18.5 -97
q0 -84 43 -145q15 17 37 42t44.5 51t43.5 50.5t36 41.5q28 32 62.5 71t78.5 89zM696 342q0 -75 -27 -140.5t-72.5 -113.5t-106.5 -75.5t-128 -27.5q-61 0 -117 23t-101 64q-23 -26 -40.5 -46t-26.5 -29q-9 -10 -15 -3q-4 5 -7.5 11t-5.5 8q-2 4 -6.5 11.5t-5.5 10.5
q-2 3 11 16q6 6 21.5 22.5t36.5 40.5q-36 46 -56.5 104t-20.5 124q0 75 27 140.5t72.5 114t106 76t127.5 27.5q57 0 110.5 -20t95.5 -55q14 15 23 26t15 18q6 6 8.5 6.5t4.5 -2.5q4 -4 7.5 -9.5t7.5 -11.5q4 -5 5.5 -10t3.5 -11q0 -7 -9 -17q-4 -5 -10.5 -12t-16.5 -17
q42 -48 65.5 -109.5t23.5 -133.5z" />
    <glyph glyph-name="infinity" unicode="&#x221e;" horiz-adv-x="806" 
d="M765 448q-2 -16 -4 -47.5t-4.5 -65.5t-4 -65t-1.5 -46t1 -47.5t2.5 -67t2.5 -63t1 -34.5q0 -11 -9 -11q-5 0 -22 1t-28 1t-24.5 -1t-18.5 -1q-7 0 -9 2t-3 11q0 4 0.5 25.5t0.5 49t0.5 55.5t0.5 44q0 29 0.5 74t0.5 86q0 9 -4.5 12.5t-10.5 3.5q-10 0 -32 0.5t-46 0.5
t-45 0.5t-30 1.5v-27t0.5 -44.5t0.5 -44v-27.5q0 -13 1 -46t2 -68.5t2 -64t1 -32.5q0 -13 -10 -13t-22 0.5t-26 0.5q-8 0 -22.5 -0.5t-20.5 -0.5q-9 0 -11 3t-2 12q0 84 -0.5 176.5t-2.5 175.5q-28 1 -49.5 1.5t-32.5 0.5q-14 0 -43 -0.5t-64 -1.5q3 -63 3 -143q0 -13 1 -46
t1.5 -68.5t1.5 -64t1 -32.5q0 -8 -1.5 -10.5t-8.5 -2.5q-9 0 -23.5 0.5t-22.5 0.5t-22.5 -0.5t-20.5 -0.5q-9 0 -11 3t-2 12q0 89 1 178.5t-1 170.5q-21 -1 -35 -1h-16q-11 0 -13 11q-1 5 -1.5 14.5t-0.5 18.5q0 8 0.5 20.5t-0.5 16.5t3 8t12 6q2 1 15 1t33 1q-2 56 2 94
t25 65q19 25 43 38.5t46 21.5q11 4 26.5 6.5t31 4t29 2t21.5 0.5q9 2 11 -6q2 -6 2.5 -21t1.5 -21q1 -7 2.5 -20t2.5 -18q2 -11 -9 -10q-36 6 -65 -2t-40 -19q-14 -14 -19 -44t-5 -72h34h37h31.5h18.5h67q-2 64 1.5 107t27.5 73q19 25 51.5 44.5t85.5 23.5q34 2 60 0
t45.5 -7t34 -11t26.5 -12q8 -3 7 -8q0 -7 -2 -21t-4 -21l-5 -20t-5 -18q-3 -9 -11 -7q-26 10 -51.5 21.5t-51.5 11.5q-31 0 -52.5 -8.5t-29.5 -21.5q-25 -38 -19 -126h33.5t58 -0.5t56 -0.5h28.5q15 0 28 -0.5t24 1.5q15 2 29 3.5t22 1.5t10 -3t1 -13z" />
    <glyph glyph-name="plusminus" unicode="&#xb1;" horiz-adv-x="829" 
d="M669 614q-19 4 -43 6.5t-50 2.5q-31 0 -52.5 -12.5t-29.5 -25.5q-25 -38 -19 -126h19.5h36t43.5 -0.5t43 -0.5h33.5h15.5q0 8 -0.5 28.5t0 44.5t1 47t2.5 36zM782 664q-2 -3 -3.5 -6t-2.5 -12.5t-2 -30t-1.5 -58.5t-1 -97t-0.5 -146q0 -10 0.5 -35t0.5 -57t0.5 -67.5
t1 -65.5t0.5 -51.5v-26.5q0 -11 -8 -11q-4 0 -20 1t-27 1t-26.5 -0.5t-20.5 -1.5t-7 1t-2 10v18.5t0.5 37.5t1 48t1 50.5t0.5 44.5v30v21v37.5v39v26.5q-10 0 -37 0.5t-57.5 0.5t-57 0.5t-35.5 1.5v-27t0.5 -44.5t0.5 -44v-27.5q0 -13 1 -46t2 -68.5t2 -64t1 -32.5
q0 -13 -10 -13t-22 0.5t-26 0.5q-8 0 -22.5 -0.5t-20.5 -0.5q-9 0 -11 3t-2 12q0 84 -0.5 176.5t-2.5 175.5q-28 1 -49.5 1.5t-32.5 0.5q-14 0 -43 -0.5t-64 -1.5q3 -63 3 -143q0 -13 1 -46t1.5 -68.5t1.5 -64t1 -32.5q0 -8 -1.5 -10.5t-8.5 -2.5q-9 0 -23.5 0.5t-22.5 0.5
t-22.5 -0.5t-20.5 -0.5q-9 0 -11 3t-2 12q0 89 1 178.5t-1 170.5q-21 -1 -35 -1h-16q-11 0 -13 11q-1 5 -1.5 14.5t-0.5 18.5q0 8 0.5 20.5t-0.5 16.5t3 8t12 6q2 1 15 1t33 1q-2 56 2 94t25 65q19 25 43 38.5t46 21.5q11 4 26.5 6.5t31 4t29 2t21.5 0.5q9 2 11 -6
q2 -6 2.5 -21t1.5 -21q1 -7 2.5 -20t2.5 -18q2 -11 -9 -10q-36 6 -65 -2t-40 -19q-14 -14 -19 -44t-5 -72h34h37h31.5h18.5h67q-2 64 1.5 107t27.5 73q19 25 51.5 44.5t85.5 23.5q34 2 58.5 2t43 -1t33.5 -3.5t30 -4.5t34.5 -7t39.5 -10q8 -2 11.5 -6.5t-1.5 -12.5z" />
    <glyph glyph-name="lessequal" unicode="&#x2264;" horiz-adv-x="582" 
d="M585 630q3 -10 -8 -11q-68 0 -90 -24q-17 -17 -20.5 -51t-3.5 -76q6 0 18.5 -0.5t27 -1t30 -2t27.5 -2.5q6 -1 9 -2t3 -7v-40q0 -8 0.5 -22.5t1.5 -21.5q1 -9 -10 -9q-10 0 -24 1.5t-28.5 3t-28 3.5t-22.5 3v-147q0 -13 1 -46t1.5 -68.5t1.5 -64t1 -32.5q0 -8 -1.5 -10.5
t-8.5 -2.5q-9 0 -23.5 0.5t-22.5 0.5t-22.5 -0.5t-20.5 -0.5q-9 0 -11 3t-2 12v357q-15 1 -41.5 -1t-49.5 -9q-19 -6 -37.5 -16.5t-34 -23.5t-25.5 -27t-11 -27q-1 -11 -1 -36v-52.5t0.5 -51.5t0.5 -32t0.5 -20t1.5 -25t1.5 -23.5t0.5 -15.5q0 -13 -11 -13q-8 0 -21 1t-23 1
t-22 -0.5t-26 -0.5q-11 0 -11 12v21t0.5 43t0.5 54t0.5 55t0.5 44v22q0 22 -1.5 50t-4.5 55t-7 50.5t-9 38.5q-3 11 5 14q3 0 10 1t15 1.5t15.5 1.5t10.5 2q9 2 24 5l20 4q6 2 8 0t4 -8t3 -13t1 -15q1 -8 4.5 -18.5t4.5 -21.5q2 -10 4.5 -11.5t10.5 6.5q10 8 29.5 24
t37.5 24q19 9 32 14t25.5 7.5t26 3.5t33.5 2q0 18 -0.5 41t2 46.5t8.5 45t19 38.5q19 25 43 38.5t46 21.5t46 10.5t39 4.5q10 2 11 -5q2 -6 4 -21t4 -21q2 -7 4.5 -19.5z" />
    <glyph glyph-name="greaterequal" unicode="&#x2265;" horiz-adv-x="641" 
d="M620 87q-1 -4 -1.5 -12.5t-1.5 -17.5t-1 -17t-1 -12q0 -7 -1.5 -10.5t-9.5 -7.5q-19 -8 -50 -13.5t-76 -5.5q-56 0 -86 25t-28 84q1 28 1.5 60.5t0.5 67.5v70.5v68.5q-9 0 -21.5 0.5t-25 0.5h-23.5h-15h-100q3 -68 3 -144q0 -13 1 -46t1.5 -68.5t1.5 -64t1 -32.5
q0 -8 -1.5 -10.5t-8.5 -2.5q-9 0 -23.5 0.5t-22.5 0.5t-22.5 -0.5t-20.5 -0.5q-9 0 -11 3t-2 12v36t-0.5 81.5t-1 110.5t-1.5 123h-26.5t-26.5 -1q-6 0 -9 6t-3 37q0 12 -0.5 26.5t2.5 18.5q4 5 10.5 5t14.5 1h36q0 14 -0.5 27.5t-0.5 27.5q0 18 -0.5 34t2 30.5t9 29
t19.5 31.5q19 25 43 38.5t46 21.5t46 10.5t39 4.5q10 2 11 -5q2 -6 4 -21t4 -21q2 -7 4.5 -19.5l3.5 -17.5q3 -10 -8 -11q-66 0 -90 -24q-14 -15 -19 -50.5t-5 -86.5q14 -1 26 -1h20q24 0 61 1t78 2q-1 28 -1 47.5v27.5q0 9 -0.5 20.5t-0.5 23t0.5 21t0.5 14.5q1 8 3 11.5
t10 3.5q6 0 21 -1.5t26 -3.5q10 -2 24 -5.5t21 -4.5q5 -1 8.5 -3t2.5 -8q-2 -17 -3 -56t-3 -87h128q6 0 9 -1t4 -5t0.5 -13t-1.5 -24q-2 -20 -3 -31.5t-2.5 -16.5t-4.5 -6t-8 -1h-13t-28 0.5t-38.5 1t-44.5 1.5q-1 -7 -1 -13.5v-12.5q0 -23 -0.5 -41.5t-0.5 -36.5v-37v-42
q-1 -39 3.5 -60.5t17.5 -30.5q10 -7 24.5 -8t30.5 1t32 5.5t30 5.5q8 2 10 0t2 -8z" />
    <glyph glyph-name="yen" unicode="&#xa5;" horiz-adv-x="658" 
d="M434 387q-26 1 -53.5 1h-56.5q-26 0 -52 -0.5t-52 -0.5q24 -29 55 -64t58 -63q11 12 24.5 27.5t27 32.5t26 34.5t23.5 32.5zM640 465q0 -5 -1 -20.5t-1 -20.5v-35q0 -7 -11 -7q-1 0 -20 0.5t-52 1.5q-11 -17 -25 -37t-32 -43q-8 -11 -17 -22l-18 -22q29 1 54.5 3t45 3.5
t31 2.5l11.5 1q9 1 9 -7v-43q0 -2 1 -7.5t2 -11.5t1 -11t-2 -8t-4 -5t-7 -2q-1 0 -19 -0.5t-47.5 -1t-68 -1.5t-78.5 -1q-4 -8 -4 -17q0 -15 -0.5 -37.5t-0.5 -44.5t-0.5 -39t-0.5 -20q1 -8 -1.5 -11t-10.5 -2q-3 0 -9.5 0.5t-14.5 0.5t-16 0.5t-12 0.5t-12 -0.5t-16.5 -0.5
t-15.5 -0.5t-10 -0.5q-10 0 -10 14q0 3 0.5 18.5t1 36.5t0.5 44v41q0 7 -3 18q-27 0 -56 0.5t-57.5 1t-54 1t-46.5 0.5q-5 0 -6.5 2.5t-3.5 5.5q-4 5 -4 19v19q0 7 0.5 22t0.5 20q1 4 2.5 6t7.5 1q1 0 13 -1t32 -2.5t46 -3t55 -3.5q-10 13 -19.5 25t-19.5 24
q-17 21 -30 39.5t-23 34.5q-20 -1 -38 -1h-35q-5 0 -6.5 2.5t-3.5 5.5q-4 5 -3.5 17t0.5 17v41q1 4 2.5 6t7.5 1q1 0 13.5 -0.5t33.5 -2.5q0 19 -0.5 40t-1 39t-1 30.5t-0.5 15.5q0 7 1.5 9t9.5 2q3 0 10 -0.5t14.5 -1t14.5 -1t10 -0.5t10.5 -0.5t16.5 -0.5t17 -0.5t12 -0.5
q5 0 7 -1.5t1 -8.5q0 -3 -0.5 -17t-1 -33t-0.5 -39.5v-36.5q32 -1 67 -1.5t71 -0.5q37 0 73 0.5t69 1.5q0 16 -0.5 37t-1.5 39.5t-1.5 32.5t-0.5 16q0 7 1.5 8.5t8.5 2.5q3 0 10 0.5t15 1t15 0.5h11q3 0 11.5 0.5t18 1t17.5 1t10 0.5q8 0 10 -2t2 -12q0 -3 -0.5 -14.5
t-1 -28.5t-1 -37.5t-0.5 -41.5q10 1 18 1t14 1q7 0 12 1q9 1 9 -7z" />
    <glyph glyph-name="mu" unicode="&#xb5;" horiz-adv-x="641" 
d="M621 90q-1 -4 -1.5 -12.5t-1.5 -17.5t-1 -17t-1 -12q0 -7 -1.5 -10.5t-9.5 -7.5q-19 -8 -50 -13.5t-76 -5.5q-56 0 -86 25t-28 84q0 9 0.5 31.5t1 51.5t1 60.5t1 58.5t1 45.5t0.5 21.5q-15 1 -41.5 -1t-49.5 -9q-19 -6 -39 -16.5t-37.5 -23.5t-29 -27t-12.5 -27
q-1 -11 -1 -36v-52.5t0.5 -51.5t0.5 -32t0.5 -20t1.5 -25t1.5 -23.5t0.5 -15.5q0 -13 -11 -13q-8 0 -21 1t-23 1t-22 -0.5t-26 -0.5q-11 0 -11 12v21t0.5 43t0.5 54t0.5 55t0.5 44v22q0 22 -1.5 50t-4.5 55t-7 50.5t-9 38.5q-3 11 5 14q3 0 10 1t15 1.5t15.5 1.5t10.5 2
q9 2 24 5l20 4q6 2 8 0t4 -8t3.5 -13.5t2.5 -15.5t3 -18t4 -21q2 -10 4.5 -11.5t10.5 6.5q10 8 30.5 23.5t38.5 23.5q19 9 33.5 14t28 8t28.5 4t35 2q1 3 1 10v17t-0.5 20.5t-0.5 19.5v20.5v23v21v14.5q1 8 3 11.5t10 3.5q6 0 21 -1.5t26 -3.5q10 -2 24 -5.5t21 -4.5
q5 -1 8.5 -3t2.5 -8q-1 -14 -2.5 -34.5t-2.5 -41t-2 -37t-1 -22.5q6 0 18.5 -0.5t27 -1t30 -2t27.5 -2.5q6 -1 9 -2t3 -7v-40q0 -8 0.5 -22.5t1.5 -21.5q1 -10 -10 -9q-10 1 -24 2.5t-28.5 3t-28 3l-22.5 2.5q0 -4 -0.5 -18t-1.5 -33.5t-1.5 -41.5t-1 -41.5t-1 -34
t-0.5 -17.5q-1 -39 3.5 -60.5t17.5 -30.5q10 -7 24.5 -8t30.5 1t32 5.5t30 5.5q8 2 10 0t2 -8z" />
    <glyph glyph-name="mu" unicode="&#x3bc;" horiz-adv-x="641" 
d="M621 90q-1 -4 -1.5 -12.5t-1.5 -17.5t-1 -17t-1 -12q0 -7 -1.5 -10.5t-9.5 -7.5q-19 -8 -50 -13.5t-76 -5.5q-56 0 -86 25t-28 84q0 9 0.5 31.5t1 51.5t1 60.5t1 58.5t1 45.5t0.5 21.5q-15 1 -41.5 -1t-49.5 -9q-19 -6 -39 -16.5t-37.5 -23.5t-29 -27t-12.5 -27
q-1 -11 -1 -36v-52.5t0.5 -51.5t0.5 -32t0.5 -20t1.5 -25t1.5 -23.5t0.5 -15.5q0 -13 -11 -13q-8 0 -21 1t-23 1t-22 -0.5t-26 -0.5q-11 0 -11 12v21t0.5 43t0.5 54t0.5 55t0.5 44v22q0 22 -1.5 50t-4.5 55t-7 50.5t-9 38.5q-3 11 5 14q3 0 10 1t15 1.5t15.5 1.5t10.5 2
q9 2 24 5l20 4q6 2 8 0t4 -8t3.5 -13.5t2.5 -15.5t3 -18t4 -21q2 -10 4.5 -11.5t10.5 6.5q10 8 30.5 23.5t38.5 23.5q19 9 33.5 14t28 8t28.5 4t35 2q1 3 1 10v17t-0.5 20.5t-0.5 19.5v20.5v23v21v14.5q1 8 3 11.5t10 3.5q6 0 21 -1.5t26 -3.5q10 -2 24 -5.5t21 -4.5
q5 -1 8.5 -3t2.5 -8q-1 -14 -2.5 -34.5t-2.5 -41t-2 -37t-1 -22.5q6 0 18.5 -0.5t27 -1t30 -2t27.5 -2.5q6 -1 9 -2t3 -7v-40q0 -8 0.5 -22.5t1.5 -21.5q1 -10 -10 -9q-10 1 -24 2.5t-28.5 3t-28 3l-22.5 2.5q0 -4 -0.5 -18t-1.5 -33.5t-1.5 -41.5t-1 -41.5t-1 -34
t-0.5 -17.5q-1 -39 3.5 -60.5t17.5 -30.5q10 -7 24.5 -8t30.5 1t32 5.5t30 5.5q8 2 10 0t2 -8z" />
    <glyph glyph-name="partialdiff" unicode="&#x2202;" horiz-adv-x="992" 
d="M947 17q0 -11 -1.5 -14.5t-8.5 -3.5t-21.5 1t-23.5 1q-7 0 -23 -0.5t-22 -0.5q-8 0 -10 3t-2 13q0 6 0.5 26t1 43.5t1 44.5t0.5 28t-0.5 27.5t-1 43.5t-1 42t-0.5 24q0 18 -3.5 34t-12.5 28t-25 19t-42 7q-22 0 -43 -10t-37.5 -23.5t-27 -27t-10.5 -19.5t-0.5 -26.5
t-0.5 -44t-0.5 -44.5t-0.5 -29t0.5 -30t0.5 -46t0.5 -44.5t0.5 -25.5q0 -14 -10 -14q-8 0 -22.5 1t-22.5 1t-20.5 -0.5t-24.5 -0.5q-11 0 -11 13v20.5t0.5 42.5t0.5 54t0.5 54t0.5 43v22q0 22 -1.5 61t-3 86t-3 97.5t-2.5 95.5q-4 -1 -14.5 -2t-25 -2t-31 -2.5t-33.5 -2.5
q-40 -3 -88 -6q0 -14 -1 -45t-1.5 -66.5t-1 -68t-0.5 -47.5q0 -12 0.5 -40.5t1.5 -64.5t2 -75t1.5 -72t1.5 -55.5t1 -24.5q1 -9 -1.5 -12.5t-12.5 -2.5q-3 0 -10 0.5t-15 1t-16.5 1t-12.5 0.5t-12 -0.5t-16.5 -1t-15.5 -1t-10 -0.5q-8 0 -10.5 3t-1.5 14q0 2 1 22.5t2 50.5
t2 66.5t2 72.5t1.5 67.5t0.5 50.5q0 47 -1 97t-4 119q-23 -1 -52.5 -3t-56.5 -3.5t-47 -2.5t-23 -1q-11 0 -10 8q1 5 2 23t2 30t2.5 24.5t6.5 18.5t5.5 10.5t9.5 2.5q4 -1 22 -1h45h59.5t64.5 0.5t61 0.5t49 1q16 0 54 3t79.5 7t75.5 9t41 10q14 10 15.5 10.5t8.5 -7.5
t13.5 -17t11.5 -14q7 -8 12.5 -18.5t7.5 -14.5q2 -5 3 -10t-5 -8q-25 -13 -25 -37q-1 -35 -1 -68v-107q0 -9 2 -11t10 5q12 12 26.5 24t29.5 21q21 14 48 22t53 8q31 0 57.5 -8.5t44.5 -22.5q23 -18 35 -46t12 -61v-32t-0.5 -37t-0.5 -37v-31t0.5 -42t0.5 -60t0.5 -55.5
t0.5 -28.5z" />
    <glyph glyph-name="summation" unicode="&#x2211;" horiz-adv-x="651" 
d="M631 90q-1 -4 -1.5 -12.5t-1.5 -17.5t-1 -17t-1 -12q0 -7 -1.5 -10.5t-9.5 -7.5q-19 -8 -50 -13.5t-76 -5.5q-56 0 -86 25t-28 84q0 14 1 51.5t2 79.5t1.5 78t0.5 46v14q-21 3 -38.5 5t-28.5 3q-44 2 -74.5 3t-59.5 -3q-20 -3 -34 -12t-18 -27q-2 -10 0 -16.5t11 -13
t25.5 -15t43.5 -22.5q24 -13 40.5 -33t24.5 -43.5t8.5 -49t-7.5 -49.5q-17 -54 -71.5 -80.5t-132.5 -24.5q-5 0 -8 1.5t-5 9.5t-4 18t-4 18t-4.5 19t-4.5 18q-4 10 6 10q17 -1 40 0.5t37 4.5q7 1 15.5 4t16 8t13.5 12.5t7 19.5q3 21 -11.5 38t-62.5 40q-53 24 -68 65t-1 85
q14 45 55.5 76t113.5 31q29 0 77.5 -2t99.5 -5q-1 20 -1.5 41t-0.5 29v20.5v23v21v14.5q1 8 3 11.5t10 3.5q6 0 21 -1.5t26 -3.5q10 -2 24 -5.5t21 -4.5q5 -1 8.5 -3t2.5 -8q-1 -8 -1.5 -23.5t-1 -35.5t-0.5 -42.5v-42.5q39 0 66.5 2t31.5 1q11 -2 12 -5.5t1 -11.5v-15
t0.5 -23t0.5 -22.5v-13.5q0 -6 -1.5 -8.5t-7.5 -2.5q-3 0 -32.5 0.5t-71.5 2.5v-2q0 -6 -1 -32t-2 -56.5t-2 -56.5t-1 -31q-1 -39 3.5 -60.5t17.5 -30.5q10 -7 24 -8.5t29.5 0t32 5t31.5 7.5q8 2 10 0t2 -8z" />
    <glyph glyph-name="product" unicode="&#x220f;" horiz-adv-x="465" 
d="M316 299q0 40 -26.5 68t-63.5 28t-63.5 -27t-26.5 -70q0 -22 8.5 -39.5t22 -30t31 -19t35.5 -6.5q37 0 60 27t23 69zM475 387q2 -10 -9 -11t-17.5 0t-19.5 0q-10 -1 -19 -1.5t-18 -4.5q5 -9 11 -25.5t6 -47.5q0 -40 -15.5 -73.5t-41 -57.5t-58.5 -37t-68 -13q-16 0 -26 1
t-21 5q-4 -3 -13.5 -11t-18.5 -17.5t-14.5 -19.5t-0.5 -17q4 -6 15.5 -7.5t28 1t36.5 8t41 11.5q42 12 85 7.5t66 -23.5q26 -23 32.5 -51t-1.5 -58q-11 -40 -41.5 -63.5t-59.5 -32.5q-52 -16 -114 -17t-125 14q-8 2 -7 7t3 10q2 6 5 13.5t5 15.5t2.5 13.5t2.5 12.5
q1 4 5 5.5t6 0.5q42 -11 84.5 -11.5t74.5 6.5t51 20t11 33q-7 18 -38 18t-100 -17q-28 -7 -55 -9t-50 3.5t-39.5 19.5t-22.5 40q-5 20 3.5 40t23 38t30.5 31.5t25 19.5q-30 24 -52 58.5t-22 85.5q0 37 13.5 69.5t38 57t58.5 39t75 14.5q38 0 62.5 -10t41.5 -25
q27 11 47 14.5t26 4.5q5 1 17 1h20q5 0 8.5 -1.5t5.5 -6.5q3 -8 5 -16.5t5 -18.5t6 -17.5t5 -17.5z" />
    <glyph glyph-name="pi" unicode="&#x3c0;" horiz-adv-x="558" 
d="M545 110q0 -85 -53 -144.5t-155 -82.5q-13 -3 -16.5 -2t-9.5 10q-9 13 -18 30q-6 11 -9.5 20.5t-5.5 16.5q-2 4 1 8.5t13 6.5q63 8 102.5 38.5t39.5 89.5q0 37 -15.5 60.5t-37.5 35t-46.5 12.5t-43.5 -6q-11 -4 -14 -4t-4 8q0 4 -1 13t-2 19t-2.5 19.5t-2.5 13.5
q-3 11 1 14t11 10q12 11 28.5 29t33.5 28q-23 2 -48.5 3t-47.5 1.5t-37.5 0.5h-18.5q-4 0 -5.5 -25t-1.5 -56t0.5 -59t0.5 -33q1 -17 1.5 -26.5t0.5 -16.5v-15t0.5 -21.5t1 -36t1.5 -58.5q0 -10 -4.5 -11t-15.5 1q-8 2 -19 2.5t-22 0.5q-10 0 -21.5 -1t-22.5 -1
q-5 0 -9.5 2.5t-3.5 12.5q2 34 2.5 79.5t2.5 104.5q0 14 1 35t1.5 41.5t1 37t0.5 21.5q0 11 -2 15t-10 5q-3 0 -9.5 0.5t-13.5 0.5t-13 0.5t-8 0.5q-4 1 -6 3t-2 8q0 4 0.5 19t0.5 21q0 5 -0.5 15t-0.5 15q-1 7 1.5 9t10.5 4q16 2 31.5 3.5t17.5 6.5q1 3 1.5 11.5t-0.5 19
t-1.5 22t-0.5 20.5v20.5v23v21v14.5q1 8 3 11.5t10 3.5t22.5 0.5t22.5 -0.5q14 -1 26.5 -2.5t20.5 -2.5q5 -1 9 -3t2 -8q-1 -7 -2 -27t-2 -42.5t-1.5 -41.5t-0.5 -25q0 -11 2.5 -12.5t10.5 -1.5q2 0 13 0.5t27 1t34.5 1t34.5 0.5t34.5 -0.5t35 -1t28.5 -1t16 -0.5
q6 -1 9.5 -2.5t7.5 -7.5q4 -7 7 -18t6 -20q2 -8 5.5 -17.5t8.5 -17.5q5 -9 -9 -20q-8 -6 -17.5 -14.5t-18 -16.5t-14.5 -15t-6 -10q0 -7 4 -14.5t21 -12.5q33 -10 56.5 -28.5t38 -41.5t21 -48t6.5 -49z" />
    <glyph glyph-name="integral" unicode="&#x222b;" horiz-adv-x="967" 
d="M830 313q0 30 -23.5 49.5t-69.5 19.5q-20 0 -41 -8t-41.5 -21t-38 -30t-30.5 -35v-69q12 -2 34 -4t45 -3q36 -1 66 4.5t52 18.5t34.5 32.5t12.5 45.5zM949 335q0 -64 -31 -107t-87 -63q0 -6 2 -14.5t9 -19.5q7 -12 17.5 -27t21.5 -30.5t22.5 -30.5t21.5 -26
q7 -8 -0.5 -12t-44.5 -5q-26 -1 -42 -1.5t-26 1t-15.5 4.5t-8.5 9q-12 22 -30.5 50.5t-41.5 63.5q-2 2 -17.5 3.5t-35.5 2.5t-40.5 1h-31.5v-121q0 -10 -2.5 -13t-8.5 -2q-7 1 -20.5 1t-30.5 1h-43q-9 0 -9 13v106q-20 -37 -46.5 -61t-55.5 -38.5t-59.5 -21t-58.5 -6.5
q-48 0 -91 18t-75.5 51t-52 78t-19.5 99q0 52 18 98t50 79.5t75.5 53t93.5 19.5q42 0 71.5 -10.5t53.5 -24.5q6 -4 8.5 -6.5t0.5 -7.5q-1 -7 -4.5 -19.5t-5.5 -19.5t-5 -19t-5 -17q-2 -6 -5 -6t-7 2q-23 11 -42.5 19t-44.5 8t-49 -10t-42.5 -29t-30 -47t-11.5 -63t13 -62.5
t34 -46.5t47 -28.5t52 -9.5q32 0 62 12t55 32t44.5 47.5t31.5 59.5v21.5t-0.5 14.5t-0.5 16.5v26.5q0 29 -0.5 66t-0.5 75.5t-1 76t-1 67.5t-0.5 49.5t-0.5 22.5q0 10 9 10q14 0 24.5 0.5t19.5 1.5q5 0 13 1t16.5 2t16.5 2t12 1t6 -2t1 -10q0 -10 -1.5 -38t-3.5 -61
q0 -10 0.5 -36t0.5 -55.5t0.5 -55.5t0.5 -37q0 -9 2 -10t5 2q18 17 40 33.5t46 29t49.5 20t51.5 7.5q65 0 115 -36q25 -19 39 -50t14 -62z" />
    <glyph glyph-name="ordfeminine" unicode="&#xaa;" horiz-adv-x="460" 
d="M314 489q0 24 -7 45t-19 37.5t-29 26t-36 9.5q-21 0 -39 -9.5t-31 -26t-20.5 -38.5t-7.5 -47q0 -62 29 -93.5t71 -31.5q36 0 62.5 35.5t26.5 92.5zM422 224q-1 -6 -1.5 -17t-1.5 -16t-1 -17t-1 -17q0 -4 -3.5 -5t-7.5 0t-20.5 1.5t-42 1.5t-57.5 1.5t-68 0.5
q-63 0 -108 -2t-52 -3q-11 0 -9 12q1 5 2 16.5t1 16.5q1 7 0.5 18t0.5 16q1 9 9 7q10 0 33 -1t49.5 -1.5t51 -1t38.5 -0.5q8 0 33 0.5t54.5 1t56 1t37.5 0.5q8 0 7 -13zM427 656q-3 -16 -5.5 -36.5t-4.5 -43t-3.5 -45t-1.5 -41.5q0 -26 1 -55t2.5 -56t3.5 -48.5t3 -33.5
q1 -13 -9 -13h-38q-8 -1 -20 -2t-18 -1q-7 0 -9 14.5t-3 31.5q-2 14 -4 14.5t-10 -8.5q-19 -23 -50 -40.5t-67 -17.5q-32 0 -57.5 11.5t-48.5 34.5q-29 28 -46 71t-17 92q0 45 15.5 86.5t43.5 70.5q23 25 56 37t68 12q20 0 39 -7t35 -17.5t28 -23t18 -22.5q1 -1 2.5 3.5
t2.5 11.5t2 15t2 14q2 12 3.5 15t4.5 5q3 0 17 -2t22 -4q7 -1 20.5 -3.5t18.5 -3.5q4 -2 5 -4.5t-1 -10.5z" />
    <glyph glyph-name="ordmasculine" unicode="&#xba;" horiz-adv-x="460" 
d="M323 487q0 24 -6.5 46.5t-19 40t-29.5 27.5t-38 10q-20 0 -38 -9.5t-31.5 -26.5t-21 -39.5t-7.5 -48.5q0 -55 26.5 -90t71.5 -35q42 0 67.5 36t25.5 89zM397 224q-1 -6 -1.5 -17t-1.5 -16t-1 -17t-1 -17q0 -4 -3.5 -5t-7.5 0q-8 2 -47 3.5t-111 1.5q-63 0 -103 -2t-47 -3
q-11 0 -9 12q1 5 2 16.5t1 16.5q1 7 0.5 18t0.5 16q1 9 9 7q10 0 31.5 -1t46 -1.5t47.5 -1t37 -0.5q8 0 28.5 0.5t44 1t45.5 1t33 0.5q8 0 7 -13zM414 487q0 -44 -14.5 -82t-40 -67t-59.5 -45.5t-72 -16.5q-39 0 -73 16.5t-59.5 45.5t-40 67t-14.5 82q0 43 14.5 81.5t40 67
t59.5 45t73 16.5q38 0 72 -16.5t59.5 -45t40 -67t14.5 -81.5z" />
    <glyph glyph-name="Omega" unicode="&#x3a9;" horiz-adv-x="479" 
d="M326 175q0 23 -8.5 41.5t-23 31.5t-33 20t-37.5 7q-24 0 -42.5 -8.5t-31.5 -22t-20 -32t-7 -37.5q0 -20 8 -37.5t22 -31.5t32.5 -22t38.5 -8q22 0 41 8.5t32.5 22.5t21 32t7.5 36zM431 10q0 -5 -0.5 -7t-5.5 -3h-11h-16t-15 0.5t-10 0.5q-7 0 -22 -1t-27 -2q-4 0 -5.5 5
t-1.5 12.5v15v12.5q-4 -6 -13 -15t-23 -18t-34 -15t-45 -6q-39 0 -72.5 14.5t-57.5 39.5t-38 58t-14 70q0 38 14.5 71.5t39.5 58.5t59 39.5t73 14.5q35 0 67 -14t45 -31v27q0 26 -24 44t-68 18q-45 0 -79.5 -9t-68.5 -26q-4 -2 -6.5 -1t-4.5 6q-3 7 -6.5 19.5t-4.5 17.5
q-2 5 -4.5 18.5t-3.5 21.5q-1 6 1 8.5t7 4.5q32 12 74 20.5t102 8.5q54 0 97 -20t64 -44q20 -23 29 -50t9 -66q0 -11 -0.5 -28t-1.5 -34.5t-1.5 -33t-0.5 -23.5q0 -23 0.5 -52t1 -56t1.5 -47t1 -24z" />
    <glyph glyph-name="Omega" unicode="&#x2126;" horiz-adv-x="479" 
d="M326 175q0 23 -8.5 41.5t-23 31.5t-33 20t-37.5 7q-24 0 -42.5 -8.5t-31.5 -22t-20 -32t-7 -37.5q0 -20 8 -37.5t22 -31.5t32.5 -22t38.5 -8q22 0 41 8.5t32.5 22.5t21 32t7.5 36zM431 10q0 -5 -0.5 -7t-5.5 -3h-11h-16t-15 0.5t-10 0.5q-7 0 -22 -1t-27 -2q-4 0 -5.5 5
t-1.5 12.5v15v12.5q-4 -6 -13 -15t-23 -18t-34 -15t-45 -6q-39 0 -72.5 14.5t-57.5 39.5t-38 58t-14 70q0 38 14.5 71.5t39.5 58.5t59 39.5t73 14.5q35 0 67 -14t45 -31v27q0 26 -24 44t-68 18q-45 0 -79.5 -9t-68.5 -26q-4 -2 -6.5 -1t-4.5 6q-3 7 -6.5 19.5t-4.5 17.5
q-2 5 -4.5 18.5t-3.5 21.5q-1 6 1 8.5t7 4.5q32 12 74 20.5t102 8.5q54 0 97 -20t64 -44q20 -23 29 -50t9 -66q0 -11 -0.5 -28t-1.5 -34.5t-1.5 -33t-0.5 -23.5q0 -23 0.5 -52t1 -56t1.5 -47t1 -24z" />
    <glyph glyph-name="ae" unicode="&#xe6;" horiz-adv-x="858" 
d="M402 238q0 34 -10.5 61.5t-29 47t-42.5 30.5t-51 11q-60 0 -97.5 -41.5t-37.5 -111.5q0 -31 9.5 -58t27.5 -47t42.5 -31.5t54.5 -11.5q28 0 52.5 11t42.5 31.5t28.5 48t10.5 60.5zM726 296q-7 43 -37 72.5t-75 26.5q-24 -2 -43.5 -12t-33 -25.5t-20.5 -35t-7 -38.5
q0 -12 3 -14.5t18 -1.5q10 0 30.5 1.5t45 3.5l49 4t42.5 4q14 2 22 3.5t6 11.5zM841 267q1 -17 -7.5 -34t-23.5 -19q-8 -1 -30 -3t-51 -5t-62.5 -6.5t-64 -6.5t-55 -5.5t-35.5 -3.5q3 -24 18 -43t35 -31.5t43 -19.5t43 -7q42 -1 70.5 11t59.5 39q7 6 12 11t8 1q1 -2 3 -7
t5 -11.5t5.5 -12.5t4.5 -9q2 -4 8.5 -13.5t8.5 -11.5q4 -5 -7 -16q-27 -27 -71 -49t-114 -22q-53 0 -87 16t-49 41q2 -13 2.5 -27t-0.5 -22q-9 -2 -21 -2.5t-26 -1.5q-26 -2 -49 3q-1 9 -2 27.5t0 36.5q0 17 -1 17q-4 -5 -9.5 -12.5t-10.5 -13.5q-10 -12 -25.5 -24
t-35 -21.5t-42 -15t-47.5 -5.5q-52 1 -90 19t-67 50q-31 35 -47 82t-16 93q0 52 19 103t54 88q29 30 70.5 45.5t88.5 15.5q23 0 45.5 -6.5t41.5 -16t34.5 -21.5t25.5 -23q4 -5 10 -11.5t8 -8.5q2 -1 2.5 7.5t2.5 16.5q2 14 5.5 25t6.5 18q2 1 12 -1t23.5 -5l27 -6t21.5 -5
q13 10 42 23t64 13q39 0 76 -13t67 -39.5t49.5 -67.5t23.5 -97z" />
    <glyph glyph-name="oslash" unicode="&#xf8;" horiz-adv-x="511" 
d="M389 237q0 28 -8.5 52t-23.5 44q-42 -50 -91 -106.5t-92 -106.5q36 -30 82 -30q28 0 52 11.5t42 31.5t28.5 46.5t10.5 57.5zM320 366q-29 17 -64 17q-28 0 -52.5 -11t-42.5 -30.5t-28.5 -46.5t-10.5 -58q0 -43 20 -78q41 48 88.5 103t89.5 104zM492 238
q0 -51 -17.5 -95.5t-47.5 -77.5q-33 -37 -77 -56.5t-94 -19.5q-84 0 -149 54q-9 -11 -16 -19t-12 -14q-6 -7 -10 -12q-6 -7 -9 -7.5t-5 2.5q-3 4 -6.5 9.5t-5.5 7.5q-2 5 -5.5 10t-4.5 8q-1 2 2.5 7t8.5 10q3 3 10.5 11.5t18.5 21.5q-26 32 -40 72.5t-14 86.5q1 51 15.5 91
t51.5 82q32 35 77 54.5t93 19.5q35 0 68.5 -10.5t62.5 -29.5q11 12 19 22t14 17q7 8 13 15q8 11 12 4q2 -3 5.5 -8t6.5 -9q4 -5 6.5 -8.5t4.5 -8.5q1 -4 -7 -14q-1 -1 -10.5 -12t-26.5 -31q32 -33 50 -76.5t18 -96.5z" />
    <glyph glyph-name="questiondown" unicode="&#xbf;" horiz-adv-x="398" 
d="M385 62q-1 -7 -4.5 -9.5t-9.5 -7.5q-8 -6 -25 -15.5t-39 -17.5t-47.5 -14t-50.5 -6q-36 0 -70 11.5t-60 34.5t-41.5 57.5t-15.5 80.5q0 30 9 57.5t23 51.5t31.5 43.5t34.5 31.5q35 27 53.5 52.5t20.5 54.5q2 22 3 28t12 6t24.5 1t21.5 3q9 2 13.5 -2.5t4.5 -21.5
q0 -59 -21 -93q-3 -6 -10.5 -16t-15.5 -20t-15 -18.5t-10 -11.5q-6 -7 -14.5 -19t-16.5 -27.5t-14 -33.5t-6 -36q0 -48 28 -74.5t70 -26.5q37 0 65 13.5t51 35.5q10 6 14 -7q2 -7 4 -22.5t3 -24.5q1 -11 1 -21.5t-1 -16.5zM287 619q0 -29 -18 -48t-45 -19q-26 0 -44.5 19
t-18.5 48q0 28 18.5 48t44.5 20q27 0 45 -20t18 -48z" />
    <glyph glyph-name="exclamdown" unicode="&#xa1;" horiz-adv-x="232" 
d="M182 113v-22.5t-0.5 -33.5t-0.5 -32v-18q0 -6 -1.5 -12.5t-4.5 -6.5t-21.5 2.5t-33.5 2.5t-33 -2.5t-21 -2.5t-4.5 6.5t-1.5 12.5q0 3 0.5 27.5t0.5 54t0.5 55t0.5 31.5t-0.5 24t-0.5 38.5t-0.5 38t-0.5 23.5q0 12 1 21t3 16q2 16 10 58.5t16 91.5q3 15 10 15
q3 0 8.5 -0.5t10.5 -0.5t9 0.5t6 0.5q9 3 11 -17q0 -5 3 -21t6 -34.5t6 -36t4 -24.5t3.5 -22t4.5 -30.5t3.5 -29.5t2.5 -20q1 -9 1.5 -32t1 -47.5t1 -46t0.5 -27.5zM184 617q0 -29 -17.5 -48.5t-46.5 -19.5t-46 19.5t-17 48.5t17 49.5t46 20.5t46.5 -20.5t17.5 -49.5z" />
    <glyph glyph-name="logicalnot" unicode="&#xac;" horiz-adv-x="717" 
d="M458 322q0 3 -7.5 14t-20.5 23t-28 24.5t-28.5 23t-23.5 17.5t-12 7q-3 0 -20 -14.5t-35.5 -32t-33.5 -33.5t-15 -19q0 -4 18 -22.5t40 -39t42 -37t23 -16.5q4 0 22.5 14t37.5 34q17 18 29 35.5t12 21.5zM684 201q0 -4 -9 -10.5t-22 -15.5t-27.5 -19.5t-24.5 -22.5
t-21 -30t-21.5 -34.5t-19 -28.5t-14.5 -12q-8 0 -19.5 10t-23.5 23t-23 26.5t-19 21.5q-8 7 -19 16t-22 16t-20 12t-13 5t-13 -8t-20 -19t-22 -23t-19 -20t-20 -18t-24 -18.5t-22 -14t-16 -5.5q-12 0 -24 11t-23 25.5t-20.5 29t-17.5 22.5q-19 19 -36 30.5t-30.5 20.5
t-21.5 16.5t-8 18.5q0 12 7.5 20t18.5 15t24 13t24 13q8 5 18.5 12t18.5 14t13 12t3 7q-5 4 -19 16.5t-30.5 29t-33 34t-26.5 31.5q-7 9 -10 17t-3 20t5 23.5t14 24.5q5 7 18.5 22t29 31.5t29.5 31t20 19.5q12 10 22.5 18t18.5 8t16.5 -6.5t16.5 -23.5t17 -34t26 -34t35 -33
t28 -16q5 0 12.5 6.5t16 16t17 19.5t15.5 16q15 13 32 26t34.5 23.5t33 16.5t27.5 6q7 0 19.5 -8t25.5 -19.5t24.5 -22.5t17.5 -17t18.5 -19.5t25.5 -28t23 -27.5t10 -18t-7.5 -11.5t-19 -13.5t-25.5 -13.5t-27 -12.5t-27 -15t-25 -18t-17 -16t-3 -8q14 -4 34 -19.5
t40 -33.5q10 -9 23.5 -22.5t26 -28t21 -27.5t8.5 -21z" />
    <glyph glyph-name="radical" unicode="&#x221a;" horiz-adv-x="685" 
d="M677 637q2 -11 -1.5 -12.5t-20.5 -6.5q-18 -6 -39 -23t-43 -42.5t-44 -57.5t-41 -67q-26 -45 -51.5 -100t-46.5 -111t-35.5 -109.5t-18.5 -96.5q-3 -23 -5 -38.5t-9 -20.5q-8 -5 -17 -9.5t-17 -6.5t-10 7t-7 29q-9 51 -28.5 97.5t-56.5 88.5q-39 48 -81 83.5t-85 53.5
q-20 8 -5 23q2 2 15 11.5t24 21.5q10 11 17.5 20.5t14.5 17.5t10.5 7t11.5 -6q20 -17 49 -45t57 -60q9 -10 20 -25t21.5 -31.5t19 -32.5t13.5 -28q11 -29 17.5 -30.5t17.5 36.5q7 24 22.5 66.5t35.5 89.5t42 93t42 78q21 31 44 61t45 56.5t43.5 48t39.5 35.5q12 9 17 5
t7 -11q4 -10 8.5 -28.5t7.5 -30.5z" />
    <glyph glyph-name="florin" unicode="&#x192;" horiz-adv-x="382" 
d="M352 555q-2 -10 -4 -16.5t-4 -13.5q-1 -6 -3 -15.5t-3 -13.5q-2 -13 -5.5 -13.5t-8.5 1.5q-19 7 -38.5 14t-39.5 7q-14 0 -22.5 -2.5t-13.5 -13.5t-6 -33.5t2 -61.5q8 0 25 -1t36 -2.5t35 -3t23 -2.5q8 -1 9 -4.5t0 -6.5q-1 -5 -2 -17t-2 -16q0 -3 -1 -10.5t-2 -16
t-2.5 -15.5t-3.5 -8t-11 -1h-14.5t-30.5 0.5t-33 0.5h-21q2 -13 5 -41t6 -60.5t5.5 -64t4.5 -50.5q5 -76 -22 -117.5t-72 -59.5q-7 -3 -9.5 -1t-4.5 7q-3 6 -9.5 19.5t-11.5 21.5t-11.5 18.5t-11.5 17.5q-4 6 -5.5 7t3.5 4q6 5 14.5 12t15.5 17.5t11.5 25t3.5 34.5
q-1 21 -3.5 53t-5.5 64t-5.5 58t-4.5 34q-11 -2 -25 -2t-24 -1q-9 0 -10 6q-1 3 -1.5 16.5t-1.5 18.5q0 3 -1 11.5t-2 18t-2 18t-1 10.5q-1 5 1 6t7 1t22 -0.5t31 -0.5q-1 14 -2.5 32t-2.5 38q-2 34 8 61.5t28 46.5t42 29t52 10q13 0 31.5 -2.5t37.5 -7.5t35 -12.5t24 -17.5
q4 -5 4 -6.5t-2 -7.5z" />
    <glyph glyph-name="approxequal" unicode="&#x2248;" horiz-adv-x="937" 
d="M893 17q0 -11 -1.5 -14.5t-8.5 -3.5t-21.5 1t-23.5 1q-7 0 -23 -0.5t-22 -0.5q-8 0 -10 3t-2 13q0 6 0.5 26t1 43.5t1 44.5t0.5 28t-0.5 27.5t-1 43.5t-1 42t-0.5 24q0 18 -3.5 34t-12.5 28t-25 19t-42 7q-22 0 -43 -11.5t-37.5 -27t-27 -30.5t-10.5 -21t-0.5 -24.5
t-0.5 -40.5t-0.5 -41.5t-0.5 -27.5t0.5 -30t0.5 -46t0.5 -44.5t0.5 -25.5q0 -14 -10 -14q-8 0 -22.5 1t-22.5 1t-20.5 -0.5t-24.5 -0.5q-11 0 -11 13v103q-20 -37 -46.5 -60.5t-55.5 -37.5t-59.5 -20t-58.5 -6q-48 1 -89.5 19.5t-73 51t-49.5 77t-18 98.5q0 52 18 98
t50 79.5t75.5 53t93.5 19.5q42 0 71.5 -10.5t53.5 -24.5q6 -4 8.5 -6.5t0.5 -7.5q-1 -7 -4.5 -19.5t-5.5 -19.5t-5 -19t-5 -17q-4 -10 -12 -4q-20 13 -41 20t-46 7t-49 -10t-42.5 -29t-30 -47t-11.5 -63t11.5 -62.5t31 -46.5t44.5 -29t51 -10q32 0 62 12t55 32.5t44.5 48
t31.5 59.5q0 9 -1 42t-2.5 77t-3 94.5t-3 94.5t-3 76t-2.5 40q-2 16 5 18q3 0 10 0.5t16 1t17 1t12 0.5t12 0.5t16 1.5t15 2t9 2q12 4 12 -8q0 -2 -0.5 -11t-0.5 -21t-0.5 -25t-0.5 -23q0 -13 -0.5 -39t-1 -56.5t-0.5 -60.5v-50q0 -9 2 -11t10 5q12 12 27.5 26t29.5 23
q20 14 47 25t53 11q31 0 57.5 -8.5t44.5 -22.5q23 -18 35 -46t12 -61v-32t-0.5 -37t-0.5 -37v-31t0.5 -42t0.5 -60t0.5 -55.5t0.5 -28.5z" />
    <glyph glyph-name="Delta" unicode="&#x394;" horiz-adv-x="717" 
d="M458 322q0 3 -7.5 14t-20.5 23t-28 24.5t-28.5 23t-23.5 17.5t-12 7q-3 0 -20 -14.5t-35.5 -32t-33.5 -33.5t-15 -19q0 -4 18 -22.5t40 -39t42 -37t23 -16.5q4 0 22.5 14t37.5 34q17 18 29 35.5t12 21.5zM684 201q0 -4 -9 -10.5t-22 -15.5t-27.5 -19.5t-24.5 -22.5
t-21 -30t-21.5 -34.5t-19 -28.5t-14.5 -12q-8 0 -19.5 10t-23.5 23t-23 26.5t-19 21.5q-8 7 -19 16t-22 16t-20 12t-13 5t-13 -8t-20 -19t-22 -23t-19 -20t-20 -18t-24 -18.5t-22 -14t-16 -5.5q-12 0 -24 11t-23 25.5t-20.5 29t-17.5 22.5q-19 19 -36 30.5t-30.5 20.5
t-21.5 16.5t-8 18.5q0 12 7.5 20t18.5 15t24 13t24 13q8 5 18.5 12t18.5 14t13 12t3 7q-5 4 -19 16.5t-30.5 29t-33 34t-26.5 31.5q-7 9 -10 17t-3 20t5 23.5t14 24.5q5 7 18.5 22t29 31.5t29.5 31t20 19.5q12 10 22.5 18t18.5 8t16.5 -6.5t16.5 -23.5t17 -34t26 -34t35 -33
t28 -16q5 0 12.5 6.5t16 16t17 19.5t15.5 16q15 13 32 26t34.5 23.5t33 16.5t27.5 6q7 0 19.5 -8t25.5 -19.5t24.5 -22.5t17.5 -17t18.5 -19.5t25.5 -28t23 -27.5t10 -18t-7.5 -11.5t-19 -13.5t-25.5 -13.5t-27 -12.5t-27 -15t-25 -18t-17 -16t-3 -8q14 -4 34 -19.5
t40 -33.5q10 -9 23.5 -22.5t26 -28t21 -27.5t8.5 -21z" />
    <glyph glyph-name="Delta" unicode="&#x2206;" horiz-adv-x="717" 
d="M458 322q0 3 -7.5 14t-20.5 23t-28 24.5t-28.5 23t-23.5 17.5t-12 7q-3 0 -20 -14.5t-35.5 -32t-33.5 -33.5t-15 -19q0 -4 18 -22.5t40 -39t42 -37t23 -16.5q4 0 22.5 14t37.5 34q17 18 29 35.5t12 21.5zM684 201q0 -4 -9 -10.5t-22 -15.5t-27.5 -19.5t-24.5 -22.5
t-21 -30t-21.5 -34.5t-19 -28.5t-14.5 -12q-8 0 -19.5 10t-23.5 23t-23 26.5t-19 21.5q-8 7 -19 16t-22 16t-20 12t-13 5t-13 -8t-20 -19t-22 -23t-19 -20t-20 -18t-24 -18.5t-22 -14t-16 -5.5q-12 0 -24 11t-23 25.5t-20.5 29t-17.5 22.5q-19 19 -36 30.5t-30.5 20.5
t-21.5 16.5t-8 18.5q0 12 7.5 20t18.5 15t24 13t24 13q8 5 18.5 12t18.5 14t13 12t3 7q-5 4 -19 16.5t-30.5 29t-33 34t-26.5 31.5q-7 9 -10 17t-3 20t5 23.5t14 24.5q5 7 18.5 22t29 31.5t29.5 31t20 19.5q12 10 22.5 18t18.5 8t16.5 -6.5t16.5 -23.5t17 -34t26 -34t35 -33
t28 -16q5 0 12.5 6.5t16 16t17 19.5t15.5 16q15 13 32 26t34.5 23.5t33 16.5t27.5 6q7 0 19.5 -8t25.5 -19.5t24.5 -22.5t17.5 -17t18.5 -19.5t25.5 -28t23 -27.5t10 -18t-7.5 -11.5t-19 -13.5t-25.5 -13.5t-27 -12.5t-27 -15t-25 -18t-17 -16t-3 -8q14 -4 34 -19.5
t40 -33.5q10 -9 23.5 -22.5t26 -28t21 -27.5t8.5 -21z" />
    <glyph glyph-name="guillemotleft" unicode="&#xab;" horiz-adv-x="503" 
d="M260 387q3 -5 2 -9t-7 -11q-8 -7 -22.5 -18t-31.5 -22.5t-35 -23t-32 -18.5q-8 -4 -8 -6t8 -6q13 -6 30 -16t33.5 -21.5t30.5 -22.5t23 -19q7 -8 9 -11.5t-1 -8.5q-3 -6 -8.5 -16.5t-8.5 -18.5q-3 -7 -6.5 -17t-5.5 -15q-3 -13 -16 0q-4 4 -14.5 12.5t-23 18.5t-26.5 20
t-25 18q-25 17 -46.5 29t-42.5 23q-9 4 -9 15q0 5 0.5 18t0.5 20t-1 17.5t-1 15.5q0 7 2 10t7 5q21 11 47.5 26t51.5 31q23 15 46.5 35t36.5 31q12 10 15 -2q1 -7 4.5 -15t6.5 -16t8.5 -17t8.5 -15zM475 387q3 -5 2 -9t-8 -11t-21.5 -18.5t-31.5 -23.5t-35 -23t-32 -17
q-15 -5 0 -12q13 -6 30 -16t33.5 -21.5t30.5 -22.5t22 -19t10 -11.5t-1 -8.5q-3 -6 -9 -16.5t-9 -18.5q-3 -7 -6.5 -17t-4.5 -15q-4 -12 -16 0q-4 4 -14 12.5t-23 18t-26.5 19.5t-24.5 18q-25 16 -47 29t-43 24q-9 4 -9 15q0 5 0.5 18t0.5 20t-1 17.5t-1 15.5q0 11 9 15
q21 11 47.5 26t50.5 31q23 15 47 34.5t37 31.5q12 11 14 -2q2 -7 5.5 -15t6.5 -16t8 -17t9 -15z" />
    <glyph glyph-name="guillemotright" unicode="&#xbb;" horiz-adv-x="503" 
d="M265 243q0 -11 -9 -15q-21 -11 -43.5 -24t-46.5 -29q-12 -8 -25.5 -18t-26.5 -19.5t-23 -18t-14 -12.5q-12 -14 -15 0q-2 5 -5.5 15t-6.5 17q-3 8 -8.5 18.5t-9.5 16.5q-4 7 9 20q8 7 22 18.5t30.5 23.5t33.5 22t31 15q16 6 0 12q-15 6 -33 17t-35 23t-31.5 23.5
t-21.5 18.5t-8 11t3 9q3 6 8 15t8 17t6.5 16t5.5 15q3 12 14 2q13 -12 37 -31.5t47 -34.5q24 -16 50.5 -31t47.5 -26q9 -4 9 -15q0 -5 -1 -15.5t-1 -17.5t1 -20t1 -18zM480 314q0 -5 -1 -16.5t-1 -17.5q0 -7 0.5 -19.5t0.5 -17.5q0 -11 -9 -15q-20 -11 -42 -23t-46 -29
q-12 -8 -26 -18t-26.5 -20t-23 -18.5t-14.5 -12.5q-12 -12 -16 0q-1 5 -5 15t-7 17q-3 8 -8.5 18.5t-8.5 16.5q-4 7 9 20q9 8 23 19.5t30.5 23t33 21.5t29.5 15q15 7 0 12q-14 6 -32 17t-35 23t-31.5 23.5t-21.5 18.5t-8 11t2 9q4 6 9 15t8 17t6.5 16t5.5 15q2 13 14 2
q13 -11 37 -31t47 -35q24 -16 50.5 -31t47.5 -26q9 -4 9 -15z" />
    <glyph glyph-name="ellipsis" unicode="&#x2026;" horiz-adv-x="645" 
d="M182 72q0 -33 -21.5 -57t-53.5 -24t-53 24t-21 57t21 56t53 23t53.5 -23t21.5 -56zM397 72q0 -33 -21.5 -57t-53.5 -24t-53 24t-21 57t21 56t53 23t53.5 -23t21.5 -56zM612 72q0 -33 -21.5 -57t-53.5 -24t-53 24t-21 57t21 56t53 23t53.5 -23t21.5 -56z" />
    <glyph glyph-name="nonbreakingspace" unicode="&#xa0;" horiz-adv-x="125" 
 />
    <glyph glyph-name="Agrave" unicode="&#xc0;" horiz-adv-x="659" 
d="M414 320q-25 66 -40 105t-24.5 62.5t-15 35.5t-11.5 23q-6 -15 -19 -48t-27.5 -69t-26.5 -67.5t-16 -44.5q-8 -23 -11.5 -35t5 -18t30.5 -7t65 -1t66.5 0.5t32 6.5t5 19t-12.5 38zM653 13q4 -9 0.5 -11t-10.5 -2q-12 0 -28 1.5t-26 1.5q-12 0 -30.5 -1.5t-25.5 -1.5
q-9 0 -11.5 6t-6.5 17q-14 44 -22.5 69t-14.5 37.5t-11 16t-12 3.5q-8 0 -28.5 0.5t-47 0.5h-57h-57t-46.5 -0.5t-27 -0.5q-6 0 -11 -5.5t-10 -19t-12 -36.5t-18 -59q-6 -20 -8.5 -24.5t-8.5 -4.5q-11 0 -27.5 0.5t-27.5 0.5q-14 0 -29.5 -0.5t-25.5 -0.5t-9.5 6.5t6.5 22.5
q2 5 10 26.5t19 52t24 67t26 71t24 64t17 46.5q7 18 19 48t26 64.5t28.5 70t26.5 65t20 50t9 24.5q4 12 5.5 16t13.5 2q10 -2 22 -3t26 -1q11 0 24 1.5t24 3.5q6 2 9 -1.5t8 -16.5q3 -6 15 -37t29 -74t36 -92t36 -91q4 -10 15.5 -40.5t27.5 -70.5t33.5 -85t32 -83t25 -64
t11.5 -29zM416 764q1 -4 -1 -10t-4 -11t-3 -10.5t-3 -9.5q-2 -3 -3 -6t-5 -1q-20 7 -53.5 22.5t-68.5 32.5q-63 32 -109 61q-6 4 -5 6.5t5 7.5q5 6 12 12.5t12 10.5q7 6 13.5 10.5t11.5 7.5q5 4 7 3t7 -3q11 -5 38 -21t53 -33q10 -7 23.5 -15.5t26.5 -17.5t23 -16t14 -11
q5 -4 6.5 -5t2.5 -4z" />
    <glyph glyph-name="Atilde" unicode="&#xc3;" horiz-adv-x="659" 
d="M414 320q-25 66 -40 105t-24.5 62.5t-15 35.5t-11.5 23q-6 -15 -19 -48t-27.5 -69t-26.5 -67.5t-16 -44.5q-8 -23 -11.5 -35t5 -18t30.5 -7t65 -1t66.5 0.5t32 6.5t5 19t-12.5 38zM653 13q4 -9 0.5 -11t-10.5 -2q-12 0 -28 1.5t-26 1.5q-12 0 -30.5 -1.5t-25.5 -1.5
q-9 0 -11.5 6t-6.5 17q-14 44 -22.5 69t-14.5 37.5t-11 16t-12 3.5q-8 0 -28.5 0.5t-47 0.5h-57h-57t-46.5 -0.5t-27 -0.5q-6 0 -11 -5.5t-10 -19t-12 -36.5t-18 -59q-6 -20 -8.5 -24.5t-8.5 -4.5q-11 0 -27.5 0.5t-27.5 0.5q-14 0 -29.5 -0.5t-25.5 -0.5t-9.5 6.5t6.5 22.5
q2 5 10 26.5t19 52t24 67t26 71t24 64t17 46.5q7 18 19 48t26 64.5t28.5 70t26.5 65t20 50t9 24.5q4 12 5.5 16t13.5 2q10 -2 22 -3t26 -1q11 0 24 1.5t24 3.5q6 2 9 -1.5t8 -16.5q3 -6 15 -37t29 -74t36 -92t36 -91q4 -10 15.5 -40.5t27.5 -70.5t33.5 -85t32 -83t25 -64
t11.5 -29zM475 790q-14 -14 -38.5 -31.5t-50.5 -22.5q-4 -1 -11 -1t-16 0.5t-18 3t-16 6.5q-13 8 -26.5 16t-28.5 8t-26.5 -9t-21.5 -20q-5 -5 -10 -3t-7 4l-17 17q-5 5 -12.5 11t-9.5 8t-3.5 4t0.5 6q2 5 15 18.5t24 19.5t26 12.5t32 6.5t33 -5t28 -11q14 -7 27 -11.5
t23 -4.5q5 0 13.5 4.5t17.5 10t16 10.5t9 6q4 2 7 3t6 -2t10 -11t9 -11l8 -12t7 -11t2 -4.5t-1 -4.5z" />
    <glyph glyph-name="Otilde" unicode="&#xd5;" horiz-adv-x="725" 
d="M578 344q0 47 -16 91t-44.5 77.5t-68 53.5t-87.5 20t-87 -20.5t-67.5 -54t-44 -77.5t-15.5 -91t15.5 -91t44 -78t68 -54t86.5 -20q48 0 87.5 20.5t68 54t44.5 77.5t16 92zM696 343q0 -74 -25.5 -139.5t-70.5 -114t-106 -76.5t-131 -28q-71 0 -132 28t-105.5 76.5t-70 114
t-25.5 139.5t26 139t71 114t105.5 77t130.5 28t131 -28t106 -77t70.5 -114t25.5 -139zM511 785q-14 -14 -38.5 -31.5t-50.5 -22.5q-4 -1 -11 -1t-16 0.5t-18 3t-16 6.5q-13 8 -26.5 16t-28.5 8t-26.5 -9t-21.5 -20q-5 -5 -10 -3t-7 4l-17 17q-5 5 -12.5 11t-9.5 8t-3.5 4
t0.5 6q2 5 15 18.5t24 19.5t26 12.5t32 6.5t33 -5t28 -11q14 -7 27 -11.5t23 -4.5q5 0 13.5 4.5t17.5 10t16 10.5t9 6q4 2 7 3t6 -2t10 -11t9 -11l8 -12t7 -11t2 -4.5t-1 -4.5z" />
    <glyph glyph-name="OE" unicode="&#x152;" horiz-adv-x="938" 
d="M579 342q0 46 -16 90t-45 78.5t-70 55.5t-90 21q-41 0 -80 -19t-69 -52t-48 -78t-18 -96q0 -50 18 -94.5t48 -77.5t68.5 -52.5t80.5 -19.5q45 0 85 18.5t70 51t48 77t18 97.5zM905 88q-2 -8 -4.5 -19.5t-4.5 -21.5q-2 -9 -3.5 -23t-1.5 -19q0 -7 -4 -8.5t-15 0.5
q-18 1 -50.5 1.5t-68.5 1t-69.5 0.5t-53.5 1q-30 0 -43 1.5t-16 11t0 30t4 58.5q-12 -20 -33 -40t-48 -36.5t-60.5 -27t-71.5 -10.5q-67 0 -127.5 27t-106 74.5t-72.5 112.5t-27 140q0 77 27 142t72.5 112t106 73.5t127.5 26.5q42 0 78 -12t64 -30t48 -38.5t32 -37.5
q1 -4 1 12v37t0.5 39.5t3.5 18.5h20t31.5 -1t35 -1.5t30.5 -0.5q9 0 35 0.5t54.5 1t52.5 1t28 0.5q9 0 12 -3t5 -11q1 -6 2 -17.5t2 -18.5q1 -8 3.5 -25t3.5 -22t-1 -6.5t-10 -0.5q-16 1 -39 2t-47.5 2t-47.5 1.5t-39 0.5q-11 0 -18.5 -3t-12 -13.5t-6 -30.5t-1.5 -55
q0 -31 1 -48.5t5 -26t11.5 -10.5t20.5 -2q14 0 38.5 0.5t49.5 1t47 1.5t31 2q8 0 11 -2t2 -10q-1 -5 -1 -16t-1 -23q-1 -14 0.5 -24t1.5 -15q0 -8 -2.5 -9.5t-12.5 0.5q-7 1 -22.5 1.5t-34.5 1t-39 0.5h-36q-26 0 -40 -2t-20.5 -11.5t-7.5 -31t-1 -60.5t2.5 -60.5t11 -31
t23 -11.5t38.5 -2q8 0 26 0.5t38.5 2t40 2.5t30.5 3t13 -2t-1 -15z" />
    <glyph glyph-name="oe" unicode="&#x153;" horiz-adv-x="861" 
d="M391 239q0 34 -11 61.5t-29.5 47t-43 29.5t-51.5 10q-28 0 -52.5 -10t-42.5 -29.5t-28.5 -47t-10.5 -61.5q0 -35 10.5 -62t29 -46.5t43 -29.5t51.5 -10t51.5 10t43 29.5t29.5 46.5t11 62zM729 296q-7 43 -37 71.5t-75 25.5q-48 -3 -75 -32t-34 -76q-2 -11 4.5 -14.5
t21.5 -2.5q10 0 30.5 1.5t45 3.5l49 4t42.5 4q14 2 22 3.5t6 11.5zM844 265q0 -8 -0.5 -17t-3.5 -16.5t-9.5 -13t-17.5 -6.5q-8 -1 -30 -3t-51 -4.5t-62.5 -5.5t-64.5 -6t-55.5 -5t-35.5 -3q3 -24 17.5 -43.5t34 -33t42 -20t42.5 -4.5q46 3 77 13.5t57 33.5q7 6 12 11t8 1
q1 -2 3 -7t5 -11.5t5.5 -12.5t4.5 -9q2 -4 8.5 -13.5t8.5 -11.5q4 -5 -7 -16q-14 -14 -30.5 -27t-39 -23t-50.5 -16.5t-64 -6.5q-33 0 -65 8.5t-59 23t-48.5 34t-33.5 42.5q-10 -20 -28.5 -39t-43 -34t-54 -24t-60.5 -9q-52 0 -95.5 19t-75 52t-49 78.5t-17.5 98.5t18 98.5
t50 78.5t75 52t94 19q60 0 106.5 -25.5t71.5 -67.5q3 -4 5 -7l4 -6q2 5 9 13q29 44 74.5 68t93.5 26q45 1 84 -12.5t69 -41.5t48.5 -70.5t22.5 -98.5z" />
    <glyph glyph-name="endash" unicode="&#x2013;" horiz-adv-x="565" 
d="M542 331q-1 -7 -2.5 -23t-3.5 -21q0 -3 -0.5 -9.5t-0.5 -14t-0.5 -14t-1.5 -9.5q0 -7 -13 -6q-3 0 -31 0.5t-64.5 1t-74.5 0.5h-61q-28 0 -68.5 -1t-79 -2t-68.5 -2t-37 -1q-7 -1 -10 3.5t-3 9.5q0 3 1 9t2.5 13.5t3 14t2.5 9.5t2 10t1.5 14t1.5 13.5t1 8.5q2 8 15 8
q9 0 40 -1t67 -1.5t69 -0.5h46q14 0 51 1t78 1.5t77.5 1.5t50.5 1q13 0 10 -14z" />
    <glyph glyph-name="emdash" unicode="&#x2014;" horiz-adv-x="795" 
d="M769 331q-2 -7 -3.5 -23t-3.5 -21q0 -3 -0.5 -9.5t-1 -14t-1 -14t-1.5 -9.5q0 -7 -15 -6q-2 0 -22 0.5t-50 0.5t-66.5 0.5t-72.5 0.5h-68h-52q-23 0 -58 -0.5t-74 -1t-79 -1.5t-73.5 -1.5t-56.5 -1t-29 -0.5q-8 -1 -11.5 3.5t-2.5 9.5q0 3 1 9t2.5 13.5t3 14t2.5 9.5
t2 10l2 14t1.5 13.5t1.5 8.5q2 8 16 8q8 0 33.5 -0.5t60 -1t73.5 -1t74 -0.5h62.5h37.5t38 0.5t64 1t76 1t76 1t64 1t38 0.5q15 0 12 -14z" />
    <glyph glyph-name="quotedblleft" unicode="&#x201c;" horiz-adv-x="379" 
d="M345 443q-5 -5 -13 -12.5t-16 -14.5q-7 -6 -16.5 -14t-13.5 -13q-5 -5 -9 -5t-11 7q-8 9 -19 21t-22 29q-9 14 -14 33t-5 40.5t5 44t14 43.5q11 28 28.5 53t28.5 37q12 12 17 4q4 -5 7.5 -9t6.5 -7q4 -3 9.5 -8t8.5 -7q5 -5 1 -11q-15 -17 -27.5 -43.5t-12.5 -53.5
q0 -32 14 -53t38 -42q9 -9 1 -19zM170 474q9 -9 -1 -20q-11 -11 -27 -24q-8 -6 -16.5 -14.5t-11.5 -12.5q-5 -5 -9 -6.5t-12 6.5q-9 8 -20 22t-20 26q-11 15 -15.5 36t-3.5 44.5t6 47t14 43.5q11 26 30 52.5t30 39.5q5 5 9 6.5t8 -3.5q3 -5 6.5 -7.5t6.5 -5.5q4 -4 9.5 -8
t7.5 -6q2 -3 3 -5.5t-2 -6.5q-17 -19 -30 -46.5t-13 -60.5q0 -30 11 -51t40 -46z" />
    <glyph glyph-name="quotedblright" unicode="&#x201d;" horiz-adv-x="379" 
d="M153 472q-11 -28 -28.5 -53t-28.5 -37q-12 -12 -17 -4q-4 5 -7.5 9t-6.5 7q-4 3 -9.5 8t-8.5 7q-5 5 -1 11q15 17 27.5 43.5t12.5 53.5q0 32 -14 53t-38 42q-9 9 -1 19q5 5 13 12.5t16 14.5q7 6 16.5 14t13.5 13q5 5 9 5t11 -7q8 -9 19 -21t22 -29q9 -14 14 -33t5 -40.5
t-5 -44t-14 -43.5zM325 663q10 -15 15 -36t4 -44.5t-6 -47t-14 -43.5q-11 -26 -30 -52.5t-30 -39.5q-5 -5 -9 -6.5t-8 3.5q-3 5 -6.5 7.5t-6.5 5.5q-4 4 -9.5 8t-7.5 6q-2 3 -3 5.5t2 6.5q17 19 30 46.5t13 60.5q0 30 -11.5 50.5t-39.5 46.5q-9 9 1 20q10 10 27 24
q8 6 16.5 14.5t11.5 12.5q5 5 9 6.5t12 -6.5q9 -8 20 -22t20 -26z" />
    <glyph glyph-name="quoteleft" unicode="&#x2018;" horiz-adv-x="207" 
d="M179 447q-8 -7 -15.5 -13t-15.5 -13t-16.5 -15.5l-11.5 -11.5q-5 -5 -9 -6.5t-12 5.5q-10 9 -21 22.5t-19 26.5q-8 12 -13.5 33t-6.5 42q0 20 5.5 47.5t15.5 48.5q11 26 25.5 49.5t33.5 42.5q4 4 9 6t8 -3q4 -5 7 -7.5t7 -6.5t9 -8t8 -6q5 -5 1 -11q-17 -19 -27.5 -47
t-10.5 -61q0 -31 11 -52.5t37 -42.5q10 -10 1 -19z" />
    <glyph glyph-name="quoteright" unicode="&#x2019;" horiz-adv-x="207" 
d="M168 578q0 -21 -6 -48.5t-15 -47.5q-11 -26 -30 -52.5t-30 -39.5q-5 -5 -8.5 -6.5t-8.5 3.5q-3 4 -6.5 7t-6.5 6q-4 4 -8.5 8t-8.5 6q-7 4 -1 12q17 19 26 46.5t9 60.5q0 32 -10.5 53t-34.5 43q-11 9 -1 18q6 5 15.5 11.5t17.5 14.5q8 6 16 15t10 13q4 7 8.5 7.5
t12.5 -7.5q9 -8 20.5 -21.5t19.5 -26.5q8 -12 13.5 -33t6.5 -42z" />
    <glyph glyph-name="divide" unicode="&#xf7;" horiz-adv-x="458" 
d="M323 151q0 22 -9 36t-25.5 24.5t-40.5 18.5t-53 17q-22 6 -43 16q-26 -17 -43 -40t-17 -55q0 -24 10.5 -45t28 -36.5t40 -24.5t45.5 -9q54 0 80.5 27t26.5 71zM341 442q0 43 -28.5 71.5t-68.5 28.5q-20 0 -38.5 -5t-32.5 -16.5t-22.5 -30.5t-8.5 -48q0 -20 6.5 -33
t18.5 -22t29.5 -16t38.5 -15q8 -3 26 -9t26 -9q23 20 38.5 44.5t15.5 59.5zM439 159q0 -45 -17 -78t-45 -54.5t-63 -32.5t-72 -11q-44 0 -86 10t-75 33.5t-53 61t-20 91.5q0 45 24.5 77t51.5 47q-25 20 -40.5 54t-15.5 78q0 43 16.5 75t45 53t65 31.5t77.5 10.5
q40 0 76 -12.5t63 -35t43 -53t16 -66.5q0 -15 -4.5 -34t-13 -38.5t-21.5 -37t-30 -30.5q39 -27 58.5 -62.5t19.5 -76.5z" />
    <glyph glyph-name="lozenge" unicode="&#x25ca;" horiz-adv-x="270" 
d="M234 129q0 -14 -2 -26t-7 -23.5t-13 -23.5t-20 -27q-11 -15 -28 -32t-34 -33q-4 -4 -7 -4.5t-10 4.5t-17.5 14.5t-17.5 14.5t-20 14.5t-18 13.5q-9 5 -2 12q16 13 30 27t24 26q11 14 17 25.5t7 31.5q1 14 -8.5 36t-35.5 49t-34 48.5t-7 47.5t12.5 51.5t28.5 48.5
q17 22 32.5 38t31.5 30q4 3 8 4.5t7 -3.5q5 -6 15 -16t18 -17q7 -6 19.5 -16.5t17.5 -15.5q7 -7 -2 -14q-9 -8 -18.5 -16.5t-17.5 -17.5q-18 -20 -26.5 -35.5t-6.5 -34.5q1 -22 11.5 -35.5t28.5 -34.5q16 -18 24.5 -33t13 -28.5t5.5 -25.5t1 -24z" />
    <glyph glyph-name="ydieresis" unicode="&#xff;" horiz-adv-x="476" 
d="M461 340v-30t-1 -30t-2 -25t-2 -15q0 -3 -10.5 -21t-25.5 -42t-31.5 -49.5t-28.5 -43.5q-8 -12 -24.5 -35t-34 -48t-32.5 -46.5t-21 -29.5q-29 -46 -49 -66q-4 -4 -17.5 -7t-30.5 -5q-14 -2 -32.5 -3.5t-24.5 -1.5q-8 0 -20.5 -0.5t-16.5 2.5q-5 5 -7 11t-5 14
q-3 9 -7.5 19t-6.5 15q-2 7 -3.5 13t2.5 8q8 5 23 5q30 0 46.5 2.5t34.5 13.5q4 2 11.5 12t15 22t13 23.5t4.5 16.5t-8 16.5t-18 26t-24 31t-26 32.5q-15 19 -29 39t-24.5 36t-17 27t-7.5 13q-3 8 -5 37.5t-2 58.5v31t0.5 33t0.5 29v19q0 8 3.5 9.5t8.5 1.5q2 0 8.5 -0.5
t13.5 -1t13.5 -1t9.5 -0.5h11t14.5 -0.5t13.5 -0.5h8q8 0 8 -10q-1 -23 -2 -44t-1 -38q0 -8 0.5 -20t1 -24.5l1 -25t1.5 -19.5q1 -14 18.5 -41.5t37.5 -55.5t38 -48.5t21 -20.5q2 0 17.5 20.5t33 47.5t32.5 54t17 40q3 20 3.5 47t0.5 42q0 7 -1 19t-2 25t-2 23.5t-1 15.5
q0 12 8 12q5 0 20.5 1t21.5 1q3 0 10.5 0.5t15 0.5t14 0.5t8.5 0.5q6 1 8 -0.5t4 -7.5q1 -6 2.5 -18.5t2.5 -28t1.5 -32.5t0.5 -31zM198 553q0 -29 3 -41.5t0 -16t-16 -2t-45 1.5q-26 0 -37.5 -1.5t-14.5 1.5t-1.5 14.5t1.5 38.5q0 33 -2.5 48t1 19.5t17 2.5t44.5 -2
q27 0 38 1t14 -4t0.5 -18.5t-2.5 -41.5zM397 554q0 -26 3.5 -38.5t1 -17t-15.5 -4t-46 0.5q-26 0 -37 -1.5t-15 2.5t-2.5 16.5t1.5 41.5q0 32 -1.5 46t2.5 17.5t17 1t42 -2.5q28 0 39.5 1t13.5 -3.5t-0.5 -17.5t-2.5 -42z" />
    <glyph glyph-name="Ydieresis" unicode="&#x178;" horiz-adv-x="587" 
d="M572 447q0 -8 -1.5 -14.5t-7.5 -15.5q-11 -16 -34 -52t-56 -81q-28 -38 -56 -74.5t-47 -59.5q-14 -18 -14 -38q1 -32 1.5 -50.5t1.5 -28.5t1.5 -13.5t0.5 -6.5q1 -8 -1.5 -11t-10.5 -2q-3 0 -10.5 0.5t-16.5 0.5t-17.5 0.5t-12.5 0.5t-13 -0.5t-18 -0.5t-17 -0.5
t-11 -0.5q-10 0 -10 14q1 6 3 27t4 71q0 8 -2.5 18.5t-9.5 20.5q-17 22 -46.5 59.5t-58.5 77.5q-32 42 -53.5 74.5t-32.5 49.5q-7 11 -8 16.5t-1 11.5q0 23 -0.5 36t-0.5 20.5v10.5v7q0 8 1.5 10.5t10.5 2.5q3 0 9.5 -0.5t14.5 -1t15 -1t10 -0.5t11.5 0.5t17.5 1t16.5 1
t9.5 0.5q6 1 8 -1.5t1 -10.5q-1 -10 -1.5 -25.5t-0.5 -30.5q0 -8 15 -31t38.5 -53t50.5 -62.5t51 -59.5q16 18 41.5 49.5t49.5 63t41.5 57.5t17.5 35q0 13 -1.5 31t-2.5 25q0 8 1.5 11t9.5 2q2 0 8.5 -0.5t14.5 -1t15.5 -1t11.5 -0.5t12 0.5t17 1t16.5 1t10.5 0.5
q8 0 10 -2.5t2 -13.5q0 -8 1 -27.5t1 -36.5zM147 622q0 -29 1.5 -41.5t-3.5 -16t-19.5 -2t-46.5 1.5q-26 0 -38.5 -1.5t-17 1.5t-3.5 14.5t1 38.5q0 33 -1.5 48t3 19.5t19 2.5t45.5 -2q27 0 39.5 1t17 -4t4 -18.5t-0.5 -41.5zM566 623q0 -26 2 -38.5t-2 -17t-18 -4t-47 0.5
q-26 0 -39 -1.5t-19 2.5t-6.5 16.5t-0.5 41.5q0 32 0.5 46t6.5 17.5t21 1t44 -2.5q28 0 40.5 1t16.5 -3.5t2.5 -17.5t-1.5 -42z" />
    <glyph glyph-name="fraction" unicode="&#x2044;" horiz-adv-x="305" 
d="M461 493q1 -5 -8 -11q-23 -13 -57 -33.5t-73 -43.5t-78.5 -47.5t-72.5 -46.5q-38 -24 -79.5 -51.5t-81 -53.5t-72.5 -48t-52 -35q-13 -9 -16 3l-7 17.5t-7 16.5q-2 5 -7 16t-7 16q-5 7 5 12q13 7 45 25t73 43t86.5 53.5t86.5 55.5q30 19 71.5 45t82.5 52.5t75.5 49
t50.5 34.5q5 4 8 3t5 -6q3 -5 8 -13.5t8 -15.5q8 -17 13 -37z" />
    <glyph glyph-name="fraction" unicode="&#x2215;" horiz-adv-x="305" 
d="M461 493q1 -5 -8 -11q-23 -13 -57 -33.5t-73 -43.5t-78.5 -47.5t-72.5 -46.5q-38 -24 -79.5 -51.5t-81 -53.5t-72.5 -48t-52 -35q-13 -9 -16 3l-7 17.5t-7 16.5q-2 5 -7 16t-7 16q-5 7 5 12q13 7 45 25t73 43t86.5 53.5t86.5 55.5q30 19 71.5 45t82.5 52.5t75.5 49
t50.5 34.5q5 4 8 3t5 -6q3 -5 8 -13.5t8 -15.5q8 -17 13 -37z" />
    <glyph glyph-name="currency" unicode="&#xa4;" horiz-adv-x="411" 
d="M353 215q0 -58 -30 -105q-15 -23 -39 -44t-53 -39t-61 -32.5t-63 -24.5q-8 -3 -11 -2.5t-5 5.5l-10 20l-12 24t-10 18.5t-13 19.5q-4 7 -3 10.5t6 5.5q35 15 68 29.5t58 31t40 37t15 46.5q0 23 -27.5 55.5t-65.5 64.5q-45 39 -61.5 81.5t-16.5 78.5q0 40 17.5 73.5t48 60
t72 44.5t89.5 27q8 1 10 1.5t4 -5.5q2 -7 9.5 -18.5t11.5 -19.5q5 -8 13 -23.5t11 -19.5q2 -4 -1.5 -8t-7.5 -6q-23 -7 -49 -16t-48.5 -22t-37.5 -29.5t-15 -38.5q0 -11 4 -22.5t14 -25.5t27.5 -31.5t44.5 -40.5q28 -24 43.5 -44.5t23 -40t9 -38t1.5 -37.5z" />
    <glyph glyph-name="guilsinglleft" unicode="&#x2039;" horiz-adv-x="292" 
d="M271 385q4 -5 3 -9t-8 -11t-20 -17.5t-28 -22t-31 -22.5t-30 -18q-8 -4 -8 -5.5t8 -6.5q29 -15 58 -35.5t46 -37.5q8 -8 8 -13.5t-2 -10.5q-4 -6 -8 -17.5t-7 -19.5t-7 -17.5t-6 -14.5q-3 -12 -15 0q-5 4 -14.5 11.5t-22 17t-26 19t-24.5 17.5q-24 17 -52 31t-49 25
q-9 4 -9 15q0 5 0.5 18t0.5 20t-1 17.5t-1 15.5q0 7 2 10t7 5q21 11 50 26.5t53 31.5q12 7 24.5 16t24.5 18t22.5 17t17.5 14q11 9 14 -2q2 -7 5.5 -14.5t6.5 -15.5t9 -18.5t9 -16.5z" />
    <glyph glyph-name="guilsinglright" unicode="&#x203a;" horiz-adv-x="292" 
d="M266 243q0 -11 -9 -15q-21 -11 -49 -25t-52 -31q-12 -8 -25 -17.5t-25.5 -19t-22.5 -17t-14 -11.5q-8 -7 -11 -7t-5 7q-1 5 -5 14.5t-7 17.5t-10 20t-10 18q-3 5 -1 8.5t10 11.5t21.5 19t29 22t32.5 20.5t33 14.5q15 5 0 12t-32.5 17.5t-35 21.5t-31.5 22t-21 18t-8 11
t2 9q4 6 10.5 17t9.5 19t6.5 15.5t5.5 14.5q1 11 14 2q14 -11 39.5 -30.5t48.5 -34.5q25 -16 53.5 -31.5t49.5 -26.5q9 -4 9 -15q0 -5 -1 -16.5t-1 -18.5t1 -19t1 -17z" />
    <glyph glyph-name="daggerdbl" unicode="&#x2021;" horiz-adv-x="437" 
d="M410 459q0 -5 -1 -16t-1 -27t0.5 -23t0.5 -14q0 -8 -2.5 -10.5t-11.5 -2.5q-3 0 -14.5 0.5t-29 1.5t-39 2t-44.5 2q0 -8 -0.5 -24t-1 -32.5t-1 -30t-0.5 -16.5q0 -9 0.5 -33t1.5 -67q22 1 44 1.5t40 1t30 1t15 0.5q8 0 10.5 -2.5t2.5 -9.5q0 -6 -0.5 -14t-0.5 -24
t0.5 -26.5t0.5 -15.5t-2.5 -7.5t-11.5 -2.5q-3 0 -14.5 0.5t-29 1t-38.5 1t-43 1.5q0 -39 1 -77t1.5 -69t1 -51.5t0.5 -24.5q-1 -10 -2 -13t-8 -3t-20 0.5t-27 0.5t-27 -0.5t-20 -0.5q-9 0 -10.5 2.5t-1.5 12.5q0 5 0.5 25.5t1 51.5t1.5 69t2 77q-22 0 -42.5 -1t-37.5 -1.5
t-28 -1t-14 -0.5q-9 0 -11.5 2t-2.5 7t0.5 15.5t0.5 27.5q0 16 -0.5 23t-0.5 14q0 8 1.5 10.5t8.5 2.5q3 0 15 -0.5t30.5 -1.5t40.5 -2t44 -1q1 42 1.5 62t0.5 37v104q-22 -1 -43.5 -2t-39 -1.5t-29 -1t-14.5 -0.5q-10 0 -12.5 2.5t-2.5 8.5q0 8 0.5 14.5t0.5 23.5t-1 27.5
t-1 15.5t1.5 8t8.5 3q3 0 14 -0.5t28.5 -1t39 -1t44.5 -0.5q0 30 -1 65t-1.5 66.5t-1 54.5t-0.5 29q0 11 1.5 14.5t9.5 3.5q7 0 21 -1t29 -1q14 0 28 1t20 1q8 0 8.5 -3t0.5 -13q0 -7 -0.5 -30.5t-1 -55.5t-1 -67t-1.5 -64q23 0 44 0.5t38 1t28.5 1t14.5 0.5q8 0 10 -2.5
t2 -7.5z" />
    <glyph glyph-name="periodcentered" unicode="&#xb7;" horiz-adv-x="215" 
d="M182 361q0 -33 -21.5 -56.5t-53.5 -23.5t-53 23.5t-21 56.5t21 56t53 23t53.5 -23t21.5 -56z" />
    <glyph glyph-name="periodcentered" unicode="&#x2219;" horiz-adv-x="215" 
d="M182 361q0 -33 -21.5 -56.5t-53.5 -23.5t-53 23.5t-21 56.5t21 56t53 23t53.5 -23t21.5 -56z" />
    <glyph glyph-name="quotesinglbase" unicode="&#x201a;" horiz-adv-x="207" 
d="M167 39q1 -22 -5 -47t-15 -45q-11 -26 -30 -52.5t-30 -39.5q-11 -10 -17 -3q-3 5 -6.5 7.5t-6.5 6.5q-4 4 -9.5 8t-7.5 6q-5 5 -1 11q17 19 30 47t13 61q0 31 -14.5 52t-38.5 43q-5 5 -5.5 8.5t4.5 10.5q4 5 13.5 12t17.5 14t16.5 15.5l11.5 11.5q5 6 9 7t12 -6
q9 -9 20.5 -22.5t19.5 -26.5t13 -35t6 -44z" />
    <glyph glyph-name="quotedblbase" unicode="&#x201e;" horiz-adv-x="379" 
d="M145 -46q-11 -28 -28.5 -53t-29.5 -37q-10 -12 -17 -4q-5 9 -14 16q-3 3 -9 8t-8 7q-5 5 -1 11q15 17 27.5 43.5t12.5 53.5q0 32 -14 53t-38 42q-5 5 -5.5 9t4.5 10q4 5 12.5 12.5t16.5 14.5q7 6 16 14t14 13q8 10 20 -2q8 -9 19 -21t22 -29q9 -14 14 -33t5 -40.5t-5 -44
t-14 -43.5zM303 156q10 -15 15 -36t4 -44.5t-6 -47t-14 -43.5q-11 -26 -30 -52.5t-30 -39.5q-5 -5 -9 -6.5t-8 3.5q-3 5 -6.5 7.5t-6.5 5.5q-4 4 -9.5 8t-7.5 6q-2 3 -3 5.5t2 6.5q17 19 30 46.5t13 60.5q0 30 -11.5 50.5t-39.5 46.5q-9 9 1 20q10 10 27 24q8 6 16.5 14.5
t11.5 12.5q5 5 9 6.5t12 -6.5q9 -8 20 -22t20 -26z" />
    <glyph glyph-name="perthousand" unicode="&#x2030;" horiz-adv-x="1096" 
d="M632 182q0 48 -21.5 78t-53.5 30t-54 -30t-22 -78q0 -47 23.5 -77t52.5 -30q32 0 53.5 30t21.5 77zM992 182q0 48 -21.5 78t-53.5 30t-54 -30t-22 -78q0 -47 23.5 -77t52.5 -30q32 0 53.5 30t21.5 77zM255 420q0 48 -21.5 78t-53.5 30q-31 0 -53.5 -30t-22.5 -78
q0 -23 6.5 -43t17.5 -34t24.5 -22t27.5 -8q32 0 53.5 30t21.5 77zM713 182q0 -39 -12 -73.5t-33 -60t-49.5 -40t-61.5 -14.5t-61.5 14.5t-49.5 40t-33.5 60t-12.5 73.5t12.5 73.5t33.5 60t49.5 40.5t61.5 15t61.5 -15t49.5 -40.5t33 -60t12 -73.5zM1073 182q0 -39 -12 -73.5
t-33 -60t-49.5 -40t-61.5 -14.5t-61.5 14.5t-49.5 40t-33.5 60t-12.5 73.5t12.5 73.5t33.5 60t49.5 40.5t61.5 15t61.5 -15t49.5 -40.5t33 -60t12 -73.5zM513 573q-4 -8 -14 -29t-23 -48.5t-27.5 -58.5t-27.5 -59t-23 -50t-14 -31q-7 -14 -17 -38.5t-22 -54t-24.5 -61
t-23.5 -60t-19 -51t-12 -33.5q-3 -9 -6 -12t-9 0q-8 4 -16.5 9t-15.5 9q-12 7 -1 24q2 3 11 22t22 46t28.5 59t29.5 62t25.5 54t17.5 36q4 8 13 29t20 49t23 59.5t23.5 61.5t21 54.5t14.5 38.5q2 5 4.5 10t10.5 1q5 -4 12 -7.5l13 -6.5q6 -4 8.5 -8.5t-2.5 -15.5zM336 420
q0 -39 -12 -73.5t-33 -60t-49.5 -40t-61.5 -14.5t-61.5 14.5t-49.5 40t-33.5 60t-12.5 73.5t12.5 73.5t33.5 60t49.5 40.5t61.5 15t61.5 -15t49.5 -40.5t33 -60t12 -73.5z" />
    <glyph glyph-name="Acircumflex" unicode="&#xc2;" horiz-adv-x="659" 
d="M414 320q-25 66 -40 105t-24.5 62.5t-15 35.5t-11.5 23q-6 -15 -19 -48t-27.5 -69t-26.5 -67.5t-16 -44.5q-8 -23 -11.5 -35t5 -18t30.5 -7t65 -1t66.5 0.5t32 6.5t5 19t-12.5 38zM653 13q4 -9 0.5 -11t-10.5 -2q-12 0 -28 1.5t-26 1.5q-12 0 -30.5 -1.5t-25.5 -1.5
q-9 0 -11.5 6t-6.5 17q-14 44 -22.5 69t-14.5 37.5t-11 16t-12 3.5q-8 0 -28.5 0.5t-47 0.5h-57h-57t-46.5 -0.5t-27 -0.5q-6 0 -11 -5.5t-10 -19t-12 -36.5t-18 -59q-6 -20 -8.5 -24.5t-8.5 -4.5q-11 0 -27.5 0.5t-27.5 0.5q-14 0 -29.5 -0.5t-25.5 -0.5t-9.5 6.5t6.5 22.5
q2 5 10 26.5t19 52t24 67t26 71t24 64t17 46.5q7 18 19 48t26 64.5t28.5 70t26.5 65t20 50t9 24.5q4 12 5.5 16t13.5 2q10 -2 22 -3t26 -1q11 0 24 1.5t24 3.5q6 2 9 -1.5t8 -16.5q3 -6 15 -37t29 -74t36 -92t36 -91q4 -10 15.5 -40.5t27.5 -70.5t33.5 -85t32 -83t25 -64
t11.5 -29zM456 730q-3 -1 -9 -4t-11 -5t-11.5 -5.5t-10.5 -4.5q-5 -3 -7 -2t-7 3q-17 12 -40.5 33t-39.5 41q-3 4 -4.5 3t-3.5 -4q-7 -9 -17 -20t-20 -21.5t-19.5 -19t-16.5 -12.5q-4 -2 -6.5 -2.5t-7.5 1.5t-11.5 5.5t-11.5 5.5q-13 6 -19 8q-5 3 -4.5 4.5t3.5 6.5l15 15
t17.5 19.5t16.5 20t13 17.5q4 7 10.5 17t12.5 20t10.5 18t5.5 11q2 5 4 6.5t7 1.5q4 0 11.5 -0.5t12.5 -0.5t14 0.5t13 0.5q5 0 6 -1.5t3 -6.5q1 -5 5.5 -13.5t10.5 -18t11.5 -19t10.5 -15.5q5 -7 13.5 -17t17.5 -20.5t18 -19.5l15 -15q6 -7 0 -11z" />
    <glyph glyph-name="Ecircumflex" unicode="&#xca;" horiz-adv-x="538" 
d="M411 734q-3 -1 -9 -4t-11 -5t-11.5 -5.5t-10.5 -4.5q-5 -3 -7 -2t-7 3q-17 12 -40.5 33t-39.5 41q-3 4 -4.5 3t-3.5 -4q-7 -9 -17 -20t-20 -21.5t-19.5 -19t-16.5 -12.5q-4 -2 -6.5 -2.5t-7.5 1.5t-11.5 5.5t-11.5 5.5q-13 6 -19 8q-5 3 -4.5 4.5t3.5 6.5l15 15
t17.5 19.5t16.5 20t13 17.5q4 7 10.5 17t12.5 20t10.5 18t5.5 11q2 5 4 6.5t7 1.5q4 0 11.5 -0.5t12.5 -0.5t14 0.5t13 0.5q5 0 6 -1.5t3 -6.5q1 -5 5.5 -13.5t10.5 -18t11.5 -19t10.5 -15.5q5 -7 13.5 -17t17.5 -20.5t18 -19.5l15 -15q6 -7 0 -11zM512 98
q-2 -10 -4.5 -21.5t-4.5 -23.5q-2 -13 -4 -28t-3 -23t-9 -8.5t-22 1.5q-7 1 -25.5 2.5t-44 3t-56 2.5t-60.5 1q-20 0 -54.5 -0.5t-68.5 -1t-61 -1.5t-31 -1q-17 -1 -16 14q0 3 1 24t2.5 52t3 68.5t2.5 73t2 65.5t1 46q0 19 -0.5 50t-2 66t-2.5 71t-2.5 65.5t-2.5 49t-1 22.5
q-2 11 1.5 15t14.5 3q3 0 18.5 -0.5t37 -1t46 -1t45.5 -1t36.5 -0.5h17.5q14 0 43.5 0.5t61 1.5t57.5 1.5t34 0.5q24 0 25 -14q1 -8 1.5 -18t2.5 -17q2 -6 3 -21.5t3 -23.5t-2 -10t-14 -1q-8 1 -27 2t-40.5 2t-41 1.5t-29.5 0.5q-68 1 -103 3t-50 -5.5t-16 -28t-1 -63.5
v-57.5t5 -25.5t17.5 -6.5t37.5 0.5q35 0 72.5 0.5t70.5 1.5t59.5 2.5t39.5 3.5q5 1 8.5 -2t1.5 -11q-2 -6 -2.5 -17.5t-2.5 -25.5q-2 -15 -2 -28v-21q0 -9 -12.5 -8.5t-45.5 3.5q-14 1 -47 2t-69.5 1t-67.5 -0.5t-41 -1.5q-8 -1 -12.5 -2t-6.5 -7.5t-2.5 -21t-0.5 -41.5
q0 -54 1 -81.5t12.5 -39t38 -11.5h78.5q28 0 59 1.5t58 3.5t47.5 4t27.5 3q11 2 14.5 -0.5t2.5 -11.5z" />
    <glyph glyph-name="Aacute" unicode="&#xc1;" horiz-adv-x="659" 
d="M414 320q-25 66 -40 105t-24.5 62.5t-15 35.5t-11.5 23q-6 -15 -19 -48t-27.5 -69t-26.5 -67.5t-16 -44.5q-8 -23 -11.5 -35t5 -18t30.5 -7t65 -1t66.5 0.5t32 6.5t5 19t-12.5 38zM653 13q4 -9 0.5 -11t-10.5 -2q-12 0 -28 1.5t-26 1.5q-12 0 -30.5 -1.5t-25.5 -1.5
q-9 0 -11.5 6t-6.5 17q-14 44 -22.5 69t-14.5 37.5t-11 16t-12 3.5q-8 0 -28.5 0.5t-47 0.5h-57h-57t-46.5 -0.5t-27 -0.5q-6 0 -11 -5.5t-10 -19t-12 -36.5t-18 -59q-6 -20 -8.5 -24.5t-8.5 -4.5q-11 0 -27.5 0.5t-27.5 0.5q-14 0 -29.5 -0.5t-25.5 -0.5t-9.5 6.5t6.5 22.5
q2 5 10 26.5t19 52t24 67t26 71t24 64t17 46.5q7 18 19 48t26 64.5t28.5 70t26.5 65t20 50t9 24.5q4 12 5.5 16t13.5 2q10 -2 22 -3t26 -1q11 0 24 1.5t24 3.5q6 2 9 -1.5t8 -16.5q3 -6 15 -37t29 -74t36 -92t36 -91q4 -10 15.5 -40.5t27.5 -70.5t33.5 -85t32 -83t25 -64
t11.5 -29zM457 824q-26 -23 -49 -36.5t-54 -30.5q-34 -18 -67 -33t-54 -20q-5 -1 -9 7q-2 5 -4.5 14t-4.5 16q-2 5 -2 10.5v9.5t9 9q17 8 41.5 20.5t45.5 26.5q26 17 45.5 32t34.5 27q5 4 7 4.5t7 -4.5q5 -4 11 -10t14 -11q5 -4 13.5 -8.5t15.5 -8.5q10 -6 0 -14z" />
    <glyph glyph-name="Edieresis" unicode="&#xcb;" horiz-adv-x="538" 
d="M512 98q-2 -10 -4.5 -21.5t-4.5 -23.5q-2 -13 -4 -28t-3 -23t-9 -8.5t-22 1.5q-7 1 -25.5 2.5t-44 3t-56 2.5t-60.5 1q-20 0 -54.5 -0.5t-68.5 -1t-61 -1.5t-31 -1q-17 -1 -16 14q0 3 1 24t2.5 52t3 68.5t2.5 73t2 65.5t1 46q0 19 -0.5 50t-2 66t-2.5 71t-2.5 65.5
t-2.5 49t-1 22.5q-2 11 1.5 15t14.5 3q3 0 18.5 -0.5t37 -1t46 -1t45.5 -1t36.5 -0.5h17.5q14 0 43.5 0.5t61 1.5t57.5 1.5t34 0.5q24 0 25 -14q1 -8 1.5 -18t2.5 -17q2 -6 3 -21.5t3 -23.5t-2 -10t-14 -1q-8 1 -27 2t-40.5 2t-41 1.5t-29.5 0.5q-68 1 -103 3t-50 -5.5
t-16 -28t-1 -63.5v-57.5t5 -25.5t17.5 -6.5t37.5 0.5q35 0 72.5 0.5t70.5 1.5t59.5 2.5t39.5 3.5q5 1 8.5 -2t1.5 -11q-2 -6 -2.5 -17.5t-2.5 -25.5q-2 -15 -2 -28v-21q0 -9 -12.5 -8.5t-45.5 3.5q-14 1 -47 2t-69.5 1t-67.5 -0.5t-41 -1.5q-8 -1 -12.5 -2t-6.5 -7.5
t-2.5 -21t-0.5 -41.5q0 -54 1 -81.5t12.5 -39t38 -11.5h78.5q28 0 59 1.5t58 3.5t47.5 4t27.5 3q11 2 14.5 -0.5t2.5 -11.5zM224 776q0 -29 3 -41.5t0 -16t-16 -2t-45 1.5q-26 0 -37.5 -1.5t-14.5 1.5t-1.5 14.5t1.5 38.5q0 33 -2.5 48t1 19.5t17 2.5t44.5 -2q27 0 38 1
t14 -4t0.5 -18.5t-2.5 -41.5zM423 777q0 -26 3.5 -38.5t1 -17t-15.5 -4t-46 0.5q-26 0 -37 -1.5t-15 2.5t-2.5 16.5t1.5 41.5q0 32 -1.5 46t2.5 17.5t17 1t42 -2.5q28 0 39.5 1t13.5 -3.5t-0.5 -17.5t-2.5 -42z" />
    <glyph glyph-name="Egrave" unicode="&#xc8;" horiz-adv-x="538" 
d="M402 756q1 -4 -1 -10t-4 -11t-3 -10.5t-3 -9.5q-2 -3 -3 -6t-5 -1q-20 7 -53.5 22.5t-68.5 32.5q-63 32 -109 61q-6 4 -5 6.5t5 7.5q5 6 12 12.5t12 10.5q7 6 13.5 10.5t11.5 7.5q5 4 7 3t7 -3q11 -5 38 -21t53 -33q10 -7 23.5 -15.5t26.5 -17.5t23 -16t14 -11
q5 -4 6.5 -5t2.5 -4zM512 98q-2 -10 -4.5 -21.5t-4.5 -23.5q-2 -13 -4 -28t-3 -23t-9 -8.5t-22 1.5q-7 1 -25.5 2.5t-44 3t-56 2.5t-60.5 1q-20 0 -54.5 -0.5t-68.5 -1t-61 -1.5t-31 -1q-17 -1 -16 14q0 3 1 24t2.5 52t3 68.5t2.5 73t2 65.5t1 46q0 19 -0.5 50t-2 66
t-2.5 71t-2.5 65.5t-2.5 49t-1 22.5q-2 11 1.5 15t14.5 3q3 0 18.5 -0.5t37 -1t46 -1t45.5 -1t36.5 -0.5h17.5q14 0 43.5 0.5t61 1.5t57.5 1.5t34 0.5q24 0 25 -14q1 -8 1.5 -18t2.5 -17q2 -6 3 -21.5t3 -23.5t-2 -10t-14 -1q-8 1 -27 2t-40.5 2t-41 1.5t-29.5 0.5
q-68 1 -103 3t-50 -5.5t-16 -28t-1 -63.5v-57.5t5 -25.5t17.5 -6.5t37.5 0.5q35 0 72.5 0.5t70.5 1.5t59.5 2.5t39.5 3.5q5 1 8.5 -2t1.5 -11q-2 -6 -2.5 -17.5t-2.5 -25.5q-2 -15 -2 -28v-21q0 -9 -12.5 -8.5t-45.5 3.5q-14 1 -47 2t-69.5 1t-67.5 -0.5t-41 -1.5
q-8 -1 -12.5 -2t-6.5 -7.5t-2.5 -21t-0.5 -41.5q0 -54 1 -81.5t12.5 -39t38 -11.5h78.5q28 0 59 1.5t58 3.5t47.5 4t27.5 3q11 2 14.5 -0.5t2.5 -11.5z" />
    <glyph glyph-name="Iacute" unicode="&#xcd;" horiz-adv-x="237" 
d="M185 15q1 -9 -1.5 -12.5t-12.5 -2.5q-3 0 -10 0.5t-15.5 1t-16.5 1t-12 0.5t-12 -0.5t-16.5 -1t-16 -1t-9.5 -0.5q-8 0 -10.5 3t-1.5 14q0 2 1 22.5t2 50.5t2.5 66.5t2.5 72.5t1.5 67.5t0.5 50.5q0 30 -1.5 82l-3 104t-3.5 91t-2 43q-1 11 1.5 15t13.5 3q3 0 10 -0.5
t15.5 -1t16 -1t11.5 -0.5t12 0.5l16 1t15.5 1t9.5 0.5q9 0 11 -3t1 -13q0 -3 -0.5 -23.5t-1.5 -51.5t-2 -68t-1.5 -72t-1 -64t-0.5 -43q0 -12 0.5 -40.5t1.5 -64.5t2 -75t1.5 -72t1.5 -55.5t1 -24.5zM260 820q-26 -23 -49 -36.5t-54 -30.5q-34 -18 -67 -33t-54 -20
q-5 -1 -9 7q-2 5 -4.5 14t-4.5 16q-2 5 -2 10.5v9.5t9 9q17 8 41.5 20.5t45.5 26.5q26 17 45.5 32t34.5 27q5 4 7 4.5t7 -4.5q5 -4 11 -10t14 -11q5 -4 13.5 -8.5t15.5 -8.5q10 -6 0 -14z" />
    <glyph glyph-name="Icircumflex" unicode="&#xce;" horiz-adv-x="237" 
d="M185 15q1 -9 -1.5 -12.5t-12.5 -2.5q-3 0 -10 0.5t-15.5 1t-16.5 1t-12 0.5t-12 -0.5t-16.5 -1t-16 -1t-9.5 -0.5q-8 0 -10.5 3t-1.5 14q0 2 1 22.5t2 50.5t2.5 66.5t2.5 72.5t1.5 67.5t0.5 50.5q0 30 -1.5 82l-3 104t-3.5 91t-2 43q-1 11 1.5 15t13.5 3q3 0 10 -0.5
t15.5 -1t16 -1t11.5 -0.5t12 0.5l16 1t15.5 1t9.5 0.5q9 0 11 -3t1 -13q0 -3 -0.5 -23.5t-1.5 -51.5t-2 -68t-1.5 -72t-1 -64t-0.5 -43q0 -12 0.5 -40.5t1.5 -64.5t2 -75t1.5 -72t1.5 -55.5t1 -24.5zM257 735q-3 -1 -9 -4t-11 -5t-11.5 -5.5t-10.5 -4.5q-5 -3 -7 -2t-7 3
q-17 12 -40.5 33t-39.5 41q-3 4 -4.5 3t-3.5 -4q-7 -9 -17 -20t-20 -21.5t-19.5 -19t-16.5 -12.5q-4 -2 -6.5 -2.5t-7.5 1.5t-11.5 5.5t-11.5 5.5q-13 6 -19 8q-5 3 -4.5 4.5t3.5 6.5l15 15t17.5 19.5t16.5 20t13 17.5q4 7 10.5 17t12.5 20t10.5 18t5.5 11q2 5 4 6.5t7 1.5
q4 0 11.5 -0.5t12.5 -0.5t14 0.5t13 0.5q5 0 6 -1.5t3 -6.5q1 -5 5.5 -13.5t10.5 -18t11.5 -19t10.5 -15.5q5 -7 13.5 -17t17.5 -20.5t18 -19.5l15 -15q6 -7 0 -11z" />
    <glyph glyph-name="Idieresis" unicode="&#xcf;" horiz-adv-x="237" 
d="M185 15q1 -9 -1.5 -12.5t-12.5 -2.5q-3 0 -10 0.5t-15.5 1t-16.5 1t-12 0.5t-12 -0.5t-16.5 -1t-16 -1t-9.5 -0.5q-8 0 -10.5 3t-1.5 14q0 2 1 22.5t2 50.5t2.5 66.5t2.5 72.5t1.5 67.5t0.5 50.5q0 30 -1.5 82l-3 104t-3.5 91t-2 43q-1 11 1.5 15t13.5 3q3 0 10 -0.5
t15.5 -1t16 -1t11.5 -0.5t12 0.5l16 1t15.5 1t9.5 0.5q9 0 11 -3t1 -13q0 -3 -0.5 -23.5t-1.5 -51.5t-2 -68t-1.5 -72t-1 -64t-0.5 -43q0 -12 0.5 -40.5t1.5 -64.5t2 -75t1.5 -72t1.5 -55.5t1 -24.5zM79 774q0 -29 3 -41.5t0 -16t-16 -2t-45 1.5q-26 0 -37.5 -1.5t-14.5 1.5
t-1.5 14.5t1.5 38.5q0 33 -2.5 48t1 19.5t17 2.5t44.5 -2q27 0 38 1t14 -4t0.5 -18.5t-2.5 -41.5zM278 775q0 -26 3.5 -38.5t1 -17t-15.5 -4t-46 0.5q-26 0 -37 -1.5t-15 2.5t-2.5 16.5t1.5 41.5q0 32 -1.5 46t2.5 17.5t17 1t42 -2.5q28 0 39.5 1t13.5 -3.5t-0.5 -17.5
t-2.5 -42z" />
    <glyph glyph-name="Igrave" unicode="&#xcc;" horiz-adv-x="237" 
d="M185 15q1 -9 -1.5 -12.5t-12.5 -2.5q-3 0 -10 0.5t-15.5 1t-16.5 1t-12 0.5t-12 -0.5t-16.5 -1t-16 -1t-9.5 -0.5q-8 0 -10.5 3t-1.5 14q0 2 1 22.5t2 50.5t2.5 66.5t2.5 72.5t1.5 67.5t0.5 50.5q0 30 -1.5 82l-3 104t-3.5 91t-2 43q-1 11 1.5 15t13.5 3q3 0 10 -0.5
t15.5 -1t16 -1t11.5 -0.5t12 0.5l16 1t15.5 1t9.5 0.5q9 0 11 -3t1 -13q0 -3 -0.5 -23.5t-1.5 -51.5t-2 -68t-1.5 -72t-1 -64t-0.5 -43q0 -12 0.5 -40.5t1.5 -64.5t2 -75t1.5 -72t1.5 -55.5t1 -24.5zM245 749q1 -4 -1 -10t-4 -11t-3 -10.5t-3 -9.5q-2 -3 -3 -6t-5 -1
q-20 7 -53.5 22.5t-68.5 32.5q-63 32 -109 61q-6 4 -5 6.5t5 7.5q5 6 12 12.5t12 10.5q7 6 13.5 10.5t11.5 7.5q5 4 7 3t7 -3q11 -5 38 -21t53 -33q10 -7 23.5 -15.5t26.5 -17.5t23 -16t14 -11q5 -4 6.5 -5t2.5 -4z" />
    <glyph glyph-name="Oacute" unicode="&#xd3;" horiz-adv-x="725" 
d="M578 344q0 47 -16 91t-44.5 77.5t-68 53.5t-87.5 20t-87 -20.5t-67.5 -54t-44 -77.5t-15.5 -91t15.5 -91t44 -78t68 -54t86.5 -20q48 0 87.5 20.5t68 54t44.5 77.5t16 92zM696 343q0 -74 -25.5 -139.5t-70.5 -114t-106 -76.5t-131 -28q-71 0 -132 28t-105.5 76.5t-70 114
t-25.5 139.5t26 139t71 114t105.5 77t130.5 28t131 -28t106 -77t70.5 -114t25.5 -139zM499 827q-26 -23 -49 -36.5t-54 -30.5q-34 -18 -67 -33t-54 -20q-5 -1 -9 7q-2 5 -4.5 14t-4.5 16q-2 5 -2 10.5v9.5t9 9q17 8 41.5 20.5t45.5 26.5q26 17 45.5 32t34.5 27q5 4 7 4.5
t7 -4.5q5 -4 11 -10t14 -11q5 -4 13.5 -8.5t15.5 -8.5q10 -6 0 -14z" />
    <glyph glyph-name="Ocircumflex" unicode="&#xd4;" horiz-adv-x="725" 
d="M578 344q0 47 -16 91t-44.5 77.5t-68 53.5t-87.5 20t-87 -20.5t-67.5 -54t-44 -77.5t-15.5 -91t15.5 -91t44 -78t68 -54t86.5 -20q48 0 87.5 20.5t68 54t44.5 77.5t16 92zM696 343q0 -74 -25.5 -139.5t-70.5 -114t-106 -76.5t-131 -28q-71 0 -132 28t-105.5 76.5t-70 114
t-25.5 139.5t26 139t71 114t105.5 77t130.5 28t131 -28t106 -77t70.5 -114t25.5 -139zM495 733q-3 -1 -9 -4t-11 -5t-11.5 -5.5t-10.5 -4.5q-5 -3 -7 -2t-7 3q-17 12 -40.5 33t-39.5 41q-3 4 -4.5 3t-3.5 -4q-7 -9 -17 -20t-20 -21.5t-19.5 -19t-16.5 -12.5q-4 -2 -6.5 -2.5
t-7.5 1.5t-11.5 5.5t-11.5 5.5q-13 6 -19 8q-5 3 -4.5 4.5t3.5 6.5l15 15t17.5 19.5t16.5 20t13 17.5q4 7 10.5 17t12.5 20t10.5 18t5.5 11q2 5 4 6.5t7 1.5q4 0 11.5 -0.5t12.5 -0.5t14 0.5t13 0.5q5 0 6 -1.5t3 -6.5q1 -5 5.5 -13.5t10.5 -18t11.5 -19t10.5 -15.5
q5 -7 13.5 -17t17.5 -20.5t18 -19.5l15 -15q6 -7 0 -11z" />
    <glyph glyph-name="Ograve" unicode="&#xd2;" horiz-adv-x="725" 
d="M578 344q0 47 -16 91t-44.5 77.5t-68 53.5t-87.5 20t-87 -20.5t-67.5 -54t-44 -77.5t-15.5 -91t15.5 -91t44 -78t68 -54t86.5 -20q48 0 87.5 20.5t68 54t44.5 77.5t16 92zM696 343q0 -74 -25.5 -139.5t-70.5 -114t-106 -76.5t-131 -28q-71 0 -132 28t-105.5 76.5t-70 114
t-25.5 139.5t26 139t71 114t105.5 77t130.5 28t131 -28t106 -77t70.5 -114t25.5 -139zM488 757q1 -4 -1 -10t-4 -11t-3 -10.5t-3 -9.5q-2 -3 -3 -6t-5 -1q-20 7 -53.5 22.5t-68.5 32.5q-63 32 -109 61q-6 4 -5 6.5t5 7.5q5 6 12 12.5t12 10.5q7 6 13.5 10.5t11.5 7.5
q5 4 7 3t7 -3q11 -5 38 -21t53 -33q10 -7 23.5 -15.5t26.5 -17.5t23 -16t14 -11q5 -4 6.5 -5t2.5 -4z" />
    <glyph glyph-name="Uacute" unicode="&#xda;" horiz-adv-x="660" 
d="M610 667q0 -3 -1 -23t-2 -50.5t-2 -67l-2 -73t-1.5 -68t-0.5 -50.5q0 -35 1 -71t0 -70t-5 -62.5t-14 -48.5q-13 -26 -34 -44.5t-52.5 -29.5t-74.5 -16t-99 -5q-62 0 -106 6.5t-73.5 20t-47.5 34t-27 47.5q-7 19 -9.5 50t-2.5 64.5t1 67t1 57.5q0 19 -0.5 50.5t-1.5 68
l-2 73t-2 67t-2 51t-1 22.5q-2 11 0.5 14.5t11.5 3.5q5 0 23 -1t30 -1t30.5 0.5t24.5 0.5q8 1 10 -2t1 -13q0 -3 -0.5 -32.5t-1.5 -74.5t-1.5 -97.5t-1 -100.5t-1 -85t-0.5 -50q0 -44 9 -71.5t28 -42.5t48.5 -20.5t70.5 -5.5q39 0 68 5.5t48.5 19t28.5 37t9 60.5
q0 10 -0.5 47t-1 87t-1 106t-1 103.5t-1 79.5t-0.5 35q-1 10 1 12.5t10 2.5q2 0 9 -0.5t16 -0.5t17 -0.5t12 -0.5t12 0.5l16 1t15.5 1t9.5 0.5q9 0 11 -3.5t1 -14.5zM501 810q-26 -23 -49 -36.5t-54 -30.5q-34 -18 -67 -33t-54 -20q-5 -1 -9 7q-2 5 -4.5 14t-4.5 16
q-2 5 -2 10.5v9.5t9 9q17 8 41.5 20.5t45.5 26.5q26 17 45.5 32t34.5 27q5 4 7 4.5t7 -4.5q5 -4 11 -10t14 -11q5 -4 13.5 -8.5t15.5 -8.5q10 -6 0 -14z" />
    <glyph glyph-name="Ucircumflex" unicode="&#xdb;" horiz-adv-x="660" 
d="M610 667q0 -3 -1 -23t-2 -50.5t-2 -67l-2 -73t-1.5 -68t-0.5 -50.5q0 -35 1 -71t0 -70t-5 -62.5t-14 -48.5q-13 -26 -34 -44.5t-52.5 -29.5t-74.5 -16t-99 -5q-62 0 -106 6.5t-73.5 20t-47.5 34t-27 47.5q-7 19 -9.5 50t-2.5 64.5t1 67t1 57.5q0 19 -0.5 50.5t-1.5 68
l-2 73t-2 67t-2 51t-1 22.5q-2 11 0.5 14.5t11.5 3.5q5 0 23 -1t30 -1t30.5 0.5t24.5 0.5q8 1 10 -2t1 -13q0 -3 -0.5 -32.5t-1.5 -74.5t-1.5 -97.5t-1 -100.5t-1 -85t-0.5 -50q0 -44 9 -71.5t28 -42.5t48.5 -20.5t70.5 -5.5q39 0 68 5.5t48.5 19t28.5 37t9 60.5
q0 10 -0.5 47t-1 87t-1 106t-1 103.5t-1 79.5t-0.5 35q-1 10 1 12.5t10 2.5q2 0 9 -0.5t16 -0.5t17 -0.5t12 -0.5t12 0.5l16 1t15.5 1t9.5 0.5q9 0 11 -3.5t1 -14.5zM474 729q-3 -1 -9 -4t-11 -5t-11.5 -5.5t-10.5 -4.5q-5 -3 -7 -2t-7 3q-17 12 -40.5 33t-39.5 41
q-3 4 -4.5 3t-3.5 -4q-7 -9 -17 -20t-20 -21.5t-19.5 -19t-16.5 -12.5q-4 -2 -6.5 -2.5t-7.5 1.5t-11.5 5.5t-11.5 5.5q-13 6 -19 8q-5 3 -4.5 4.5t3.5 6.5l15 15t17.5 19.5t16.5 20t13 17.5q4 7 10.5 17t12.5 20t10.5 18t5.5 11q2 5 4 6.5t7 1.5q4 0 11.5 -0.5t12.5 -0.5
t14 0.5t13 0.5q5 0 6 -1.5t3 -6.5q1 -5 5.5 -13.5t10.5 -18t11.5 -19t10.5 -15.5q5 -7 13.5 -17t17.5 -20.5t18 -19.5l15 -15q6 -7 0 -11z" />
    <glyph glyph-name="Ugrave" unicode="&#xd9;" horiz-adv-x="660" 
d="M610 667q0 -3 -1 -23t-2 -50.5t-2 -67l-2 -73t-1.5 -68t-0.5 -50.5q0 -35 1 -71t0 -70t-5 -62.5t-14 -48.5q-13 -26 -34 -44.5t-52.5 -29.5t-74.5 -16t-99 -5q-62 0 -106 6.5t-73.5 20t-47.5 34t-27 47.5q-7 19 -9.5 50t-2.5 64.5t1 67t1 57.5q0 19 -0.5 50.5t-1.5 68
l-2 73t-2 67t-2 51t-1 22.5q-2 11 0.5 14.5t11.5 3.5q5 0 23 -1t30 -1t30.5 0.5t24.5 0.5q8 1 10 -2t1 -13q0 -3 -0.5 -32.5t-1.5 -74.5t-1.5 -97.5t-1 -100.5t-1 -85t-0.5 -50q0 -44 9 -71.5t28 -42.5t48.5 -20.5t70.5 -5.5q39 0 68 5.5t48.5 19t28.5 37t9 60.5
q0 10 -0.5 47t-1 87t-1 106t-1 103.5t-1 79.5t-0.5 35q-1 10 1 12.5t10 2.5q2 0 9 -0.5t16 -0.5t17 -0.5t12 -0.5t12 0.5l16 1t15.5 1t9.5 0.5q9 0 11 -3.5t1 -14.5zM441 750q1 -4 -1 -10t-4 -11t-3 -10.5t-3 -9.5q-2 -3 -3 -6t-5 -1q-20 7 -53.5 22.5t-68.5 32.5
q-63 32 -109 61q-6 4 -5 6.5t5 7.5q5 6 12 12.5t12 10.5q7 6 13.5 10.5t11.5 7.5q5 4 7 3t7 -3q11 -5 38 -21t53 -33q10 -7 23.5 -15.5t26.5 -17.5t23 -16t14 -11q5 -4 6.5 -5t2.5 -4z" />
    <glyph glyph-name="dotlessi" unicode="&#x131;" horiz-adv-x="215" 
d="M174 461q-1 -16 -3.5 -49.5t-4.5 -70t-4 -69.5t-2 -48t0.5 -47.5t1.5 -67t1 -63v-34.5q0 -11 -9 -11q-5 0 -20.5 1t-26.5 1t-25 -1t-19 -1q-6 0 -8.5 2t-2.5 11q0 5 0.5 32.5t0.5 62t0.5 67.5t0.5 48t-1.5 49t-3.5 71.5t-4.5 70.5t-3.5 45q-1 10 1 13.5t11 3.5q7 0 23 -3
t31 -3t31.5 3t24.5 3q9 0 10.5 -3t0.5 -13z" />
    <glyph glyph-name="circumflex" unicode="&#x2c6;" horiz-adv-x="349" 
d="M312 551q-3 -1 -9 -4t-11 -5t-11.5 -5.5t-10.5 -4.5q-5 -3 -7 -2t-7 3q-17 12 -40.5 33t-39.5 41q-3 4 -4.5 3t-3.5 -4q-7 -9 -17 -20t-20 -21.5t-19.5 -19t-16.5 -12.5q-4 -2 -6.5 -2.5t-7.5 1.5t-11.5 5.5t-11.5 5.5q-13 6 -19 8q-5 3 -4.5 4.5t3.5 6.5l15 15
t17.5 19.5t16.5 20t13 17.5q4 7 10.5 17t12.5 20t10.5 18t5.5 11q2 5 4 6.5t7 1.5q4 0 11.5 -0.5t12.5 -0.5t14 0.5t13 0.5q5 0 6 -1.5t3 -6.5q1 -5 5.5 -13.5t10.5 -18t11.5 -19t10.5 -15.5q5 -7 13.5 -17t17.5 -20.5t18 -19.5l15 -15q6 -7 0 -11z" />
    <glyph glyph-name="tilde" unicode="&#x2dc;" horiz-adv-x="348" 
d="M331 604q-14 -14 -38.5 -31.5t-50.5 -22.5q-4 -1 -11 -1t-16 0.5t-18 3t-16 6.5q-13 8 -26.5 16t-28.5 8t-26.5 -9t-21.5 -20q-5 -5 -10 -3t-7 4l-17 17q-5 5 -12.5 11t-9.5 8t-3.5 4t0.5 6q2 5 15 18.5t24 19.5t26 12.5t32 6.5t33 -5t28 -11q14 -7 27 -11.5t23 -4.5
q5 0 13.5 4.5t17.5 10t16 10.5t9 6q4 2 7 3t6 -2t10 -11t9 -11l8 -12t7 -11t2 -4.5t-1 -4.5z" />
    <glyph glyph-name="macron" unicode="&#xaf;" horiz-adv-x="358" 
d="M339 638q-2 -7 -4 -15.5t-4 -17.5t-3.5 -20.5t-3.5 -19.5q-2 -6 -12 -6q-3 0 -16 0.5t-29 0.5t-32 0.5t-25 0.5q-19 0 -44.5 -1t-50.5 -2.5t-47.5 -2.5t-35.5 -2q-6 0 -11 4.5t-2 15.5q2 7 4.5 13.5t5.5 15.5q3 8 8 20.5l7 17.5q4 7 10 7q20 -1 50 -3t50 -2
q22 0 47.5 0.5t49.5 1.5t45 2.5l35 2.5q8 1 8.5 -2.5t-0.5 -8.5z" />
    <glyph glyph-name="macron" unicode="&#x2c9;" horiz-adv-x="358" 
d="M339 638q-2 -7 -4 -15.5t-4 -17.5t-3.5 -20.5t-3.5 -19.5q-2 -6 -12 -6q-3 0 -16 0.5t-29 0.5t-32 0.5t-25 0.5q-19 0 -44.5 -1t-50.5 -2.5t-47.5 -2.5t-35.5 -2q-6 0 -11 4.5t-2 15.5q2 7 4.5 13.5t5.5 15.5q3 8 8 20.5l7 17.5q4 7 10 7q20 -1 50 -3t50 -2
q22 0 47.5 0.5t49.5 1.5t45 2.5l35 2.5q8 1 8.5 -2.5t-0.5 -8.5z" />
    <glyph glyph-name="breve" unicode="&#x2d8;" horiz-adv-x="324" 
d="M310 677q0 -34 -10 -63t-29 -50t-46.5 -33t-62.5 -12q-36 0 -64 12t-46.5 33.5t-28.5 50.5t-10 62q0 8 9 7.5t25 -0.5q14 0 21.5 -1.5t9.5 -6.5q5 -40 28 -61.5t56 -21.5q71 0 84 83q2 6 9.5 7t21.5 0h23.5t9.5 -6z" />
    <glyph glyph-name="dotaccent" unicode="&#x2d9;" horiz-adv-x="373" 
d="M248 614q0 -29 2 -42t-1.5 -18t-17.5 -4t-46 1q-26 0 -39 -1t-18 3.5t-5 16.5v39q0 33 -1.5 49t3 21t18.5 4t45 -1h39.5t17 -5.5t4 -20t-0.5 -42.5z" />
    <glyph glyph-name="ring" unicode="&#x2da;" horiz-adv-x="284" 
d="M201 599q0 27 -17 45t-42 18t-42 -18t-17 -45q0 -23 17.5 -41t40.5 -18q26 0 43 18t17 41zM259 599q0 -24 -9.5 -44.5t-25 -36t-37 -24.5t-45.5 -9t-45 9t-37 24.5t-25 36t-9 44.5q0 25 9 46t25 37t37 25t45 9t45.5 -9t37 -25t25 -37t9.5 -46z" />
    <glyph glyph-name="cedilla" unicode="&#xb8;" horiz-adv-x="315" 
d="M245 -55q0 -38 -11.5 -65.5t-28.5 -42.5q-21 -19 -45 -27t-50 -8q-23 0 -43.5 11t-36.5 29q-5 6 2.5 13t18.5 18q4 5 8.5 12t8.5 12.5t7.5 8.5t6.5 1q7 -9 15 -13t22 -7q13 -3 26 4.5t21 21.5q7 11 3.5 32.5t-21.5 41.5l66 -1q7 -10 15 -20t16 -21z" />
    <glyph glyph-name="hungarumlaut" unicode="&#x2dd;" horiz-adv-x="363" 
d="M371 685q5 -5 5 -8t-8 -10q-26 -21 -55 -38.5t-55 -29.5q-14 -7 -32.5 -14t-36.5 -14t-34 -12t-25 -7t-12.5 -0.5t-5.5 7.5q-2 5 -3.5 8t-2.5 8q-22 -14 -45 -24t-34 -12q-6 -2 -9.5 1t-2.5 6q1 4 1.5 10.5t1.5 11.5q0 11 -2 21q-1 5 0.5 7.5t7.5 4.5t17.5 8t24.5 13
t27 15t25 14q30 17 51 32.5t37 26.5q8 5 10 6t7 -4t14 -13.5t15 -14.5q8 -7 17 0q8 8 20 18t19 16q5 4 7.5 3t7.5 -4q6 -5 11.5 -8.5t10.5 -7.5t13 -8.5t13 -7.5z" />
    <glyph glyph-name="ogonek" unicode="&#x2db;" horiz-adv-x="349" 
d="M279 -128q-14 -17 -38 -32.5t-48 -17.5q-26 -2 -48.5 4t-41.5 26q-17 19 -21.5 41.5t-0.5 47.5q3 4 11 12.5t18.5 17.5t21.5 16.5t19 10.5h66q-15 -10 -28.5 -21.5t-22.5 -24t-11.5 -25t3.5 -22.5q8 -12 19.5 -13.5t25.5 0.5t23.5 9.5t15.5 12.5q7 5 10.5 4t17.5 -15
q7 -8 11 -12t5 -6.5t-1 -5z" />
    <glyph glyph-name="caron" unicode="&#x2c7;" horiz-adv-x="349" 
d="M310 680l-15 -15t-17.5 -19.5t-16.5 -20.5t-13 -17t-11 -17l-12 -20t-10.5 -18t-5.5 -11q-2 -5 -4 -6.5t-7 -1.5q-4 0 -11.5 0.5t-12.5 0.5t-14 -0.5t-13 -0.5q-5 0 -6 1.5t-3 6.5t-6 13.5t-10 18l-12 19t-10 15.5q-5 7 -13.5 17t-17.5 20.5t-18 19.5l-15 15q-6 7 0 11
q3 1 9 4t11 5t11.5 5.5t10.5 4.5q5 3 7 2t7 -3q17 -12 40.5 -33t39.5 -41q3 -4 4.5 -3t3.5 4q7 9 17 19.5l20 21t19.5 19.5t16.5 13q4 2 6.5 2.5t7.5 -1.5t11.5 -5.5t11.5 -5.5q13 -7 19 -8q5 -3 4.5 -4.5t-3.5 -6.5z" />
    <glyph glyph-name="Lslash" unicode="&#x141;" horiz-adv-x="517" 
d="M511 101q-1 -5 -2 -18.5t-2 -28.5t-1.5 -27.5t-1.5 -17.5q-2 -9 -6.5 -12.5t-17.5 -1.5q-10 1 -37 2t-59 2.5t-63.5 2.5t-50.5 1h-24t-39 -0.5t-46 -1t-44.5 -1t-34.5 -0.5h-16q-8 0 -10.5 3t-1.5 14q0 3 1 26t1.5 57t1.5 74.5t2 76.5q-16 -7 -27.5 -12t-16.5 -7t-9 1
t-6 8t-1 17.5t1 21.5q0 6 -1 21.5t-1 18.5q0 5 2.5 6.5t7.5 3.5t19 6.5t33 11.5q0 22 -1 54t-2 66.5l-2 69t-2 62t-2 46t-1 20.5q-1 11 1 14.5t11 3.5q3 0 10 -0.5t15.5 -1t16.5 -1t12 -0.5t12 0.5t17 1t16.5 1t9.5 0.5q8 0 10 -3t1 -12q0 -3 -1 -34t-2.5 -74t-2.5 -89.5
t-1 -79.5q16 7 38.5 17t44.5 19.5t41.5 18t29.5 13.5q6 2 8.5 -0.5t3.5 -7.5q1 -9 2 -19.5t3 -22.5q2 -8 3.5 -19.5t3.5 -16.5q1 -3 -0.5 -5t-8.5 -4q-2 -1 -22.5 -8.5t-45.5 -16.5t-48.5 -17.5t-30.5 -11.5q-5 -2 -10.5 -4t-11.5 -5q0 -41 -0.5 -86.5t0.5 -96.5
q1 -11 2 -15t6 -4h31t40.5 0.5t43.5 1t40 0.5q22 1 46 2t45.5 3t40 4t30.5 4q12 3 10 -14z" />
    <glyph glyph-name="lslash" unicode="&#x142;" horiz-adv-x="260" 
d="M287 360q1 -3 -0.5 -5t-8.5 -4q-2 -1 -11 -3.5t-22.5 -7l-30 -10t-32.5 -11.5q0 -34 1 -84t1.5 -98t1 -84t0.5 -42q0 -11 -8 -11q-5 0 -20.5 1t-26.5 1t-26 -0.5t-20 -1.5t-7 1t-2 10v30.5t0.5 66.5t1 84t0.5 83q-26 -11 -49 -21t-32 -14q-5 -2 -9 1t-6 8t-1 17.5t1 21.5
q0 6 -1 21.5t-1 18.5q0 5 2.5 6.5t7.5 3.5q8 2 34 11t54 20q0 15 -1 41t-2 57t-2 63.5t-2 61.5t-2 50t-1 29q-1 8 0.5 11t9.5 3q7 -1 23 -2t30 -1t30 1.5t24 1.5q7 0 8 -3t0 -11q-1 -11 -2.5 -41t-3 -68t-2.5 -78.5t-2 -71.5q23 10 44.5 19t35.5 15q6 2 8.5 -0.5t3.5 -7.5
q1 -9 2 -19.5t3 -22.5q2 -8 3.5 -19.5t3.5 -16.5z" />
    <glyph glyph-name="Scaron" unicode="&#x160;" horiz-adv-x="467" 
d="M437 626q-4 -7 -11.5 -19.5t-10.5 -19.5q-5 -10 -10 -23.5t-9 -19.5q-5 -8 -19 -1q-38 19 -71.5 26.5t-60 4t-44.5 -16.5t-24 -35q-5 -16 -4.5 -32t11 -31.5t33.5 -31t64 -30.5q62 -23 98.5 -68.5t36.5 -109.5q0 -58 -25.5 -103t-68.5 -74.5t-101 -42.5t-122 -7
q-16 2 -17 10q-1 7 -3 25t-6 29t-5.5 21.5t-6.5 22.5q-5 16 6 15q110 -13 161.5 8t59.5 62q3 16 2 32t-12 32.5t-34.5 33.5t-65.5 35q-51 22 -78 52.5t-37.5 65t-7.5 69.5t13 65q9 28 29.5 50t47 37.5t57.5 23.5t62 8q22 0 47 -4t48.5 -10.5t44 -15t33.5 -17.5q6 -5 5 -7.5
t-5 -8.5zM400 856l-15 -15t-17.5 -19.5t-16.5 -20.5t-13 -17t-11 -17l-12 -20t-10.5 -18t-5.5 -11q-2 -5 -4 -6.5t-7 -1.5q-4 0 -11.5 0.5t-12.5 0.5t-14 -0.5t-13 -0.5q-5 0 -6 1.5t-3 6.5t-6 13.5t-10 18l-12 19t-10 15.5q-5 7 -13.5 17t-17.5 20.5t-18 19.5l-15 15
q-6 7 0 11q3 1 9 4t11 5t11.5 5.5t10.5 4.5q5 3 7 2t7 -3q17 -12 40.5 -33t39.5 -41q3 -4 4.5 -3t3.5 4q7 9 17 19.5l20 21t19.5 19.5t16.5 13q4 2 6.5 2.5t7.5 -1.5t11.5 -5.5t11.5 -5.5q13 -7 19 -8q5 -3 4.5 -4.5t-3.5 -6.5z" />
    <glyph glyph-name="scaron" unicode="&#x161;" horiz-adv-x="299" 
d="M270 98q-9 -27 -30.5 -48t-51 -34.5t-63 -19t-64.5 -0.5q-5 0 -8.5 2.5t-2.5 10.5t0.5 18t-1.5 18t-2 19.5t-2 18.5q-2 11 8 9q11 -2 33.5 -2t37.5 3q7 1 15.5 4t16.5 8.5t14 13.5t8 20q3 22 -13 38t-66 39q-27 13 -44 31t-25 39.5t-8 44.5t7 45q14 45 56 75.5t114 30.5
q5 0 8.5 -0.5t5.5 -5.5q3 -8 6.5 -20t6.5 -22q3 -9 4.5 -18t3.5 -16q2 -10 -9 -11t-23 -2t-23 -3q-21 -3 -36.5 -11t-17.5 -25q-2 -10 0.5 -17.5t11 -15.5t25 -18t44.5 -25q25 -14 41.5 -33.5t24 -42.5t7 -48.5t-8.5 -49.5zM289 651l-15 -15t-17.5 -19.5t-16.5 -20.5
t-13 -17t-11 -17l-12 -20t-10.5 -18t-5.5 -11q-2 -5 -4 -6.5t-7 -1.5q-4 0 -11.5 0.5t-12.5 0.5t-14 -0.5t-13 -0.5q-5 0 -6 1.5t-3 6.5t-6 13.5t-10 18l-12 19t-10 15.5q-5 7 -13.5 17t-17.5 20.5t-18 19.5l-15 15q-6 7 0 11q3 1 9 4t11 5t11.5 5.5t10.5 4.5q5 3 7 2t7 -3
q17 -12 40.5 -33t39.5 -41q3 -4 4.5 -3t3.5 4q7 9 17 19.5l20 21t19.5 19.5t16.5 13q4 2 6.5 2.5t7.5 -1.5t11.5 -5.5t11.5 -5.5q13 -7 19 -8q5 -3 4.5 -4.5t-3.5 -6.5z" />
    <glyph glyph-name="Yacute" unicode="&#xdd;" horiz-adv-x="587" 
d="M572 501q0 -8 -1.5 -14.5t-7.5 -15.5q-11 -16 -34 -52t-56 -81q-28 -38 -56 -74.5t-47 -59.5q-14 -18 -14 -38q2 -65 3.5 -106t1.5 -47q1 -8 -1.5 -11t-10.5 -2q-3 0 -10.5 0.5t-16.5 0.5t-17.5 0.5t-12.5 0.5t-13 -0.5t-18 -0.5t-17 -0.5t-11 -0.5q-10 0 -10 14
q0 3 1 17.5t2 36t2 47.5t2 51q0 8 -2.5 18.5t-9.5 20.5q-17 22 -46.5 59.5t-58.5 77.5q-32 42 -53.5 74.5t-32.5 49.5q-7 11 -8 16.5t-1 11.5q0 23 -0.5 52.5t-0.5 56v46v23.5q0 8 1.5 10.5t10.5 2.5q3 0 9.5 -0.5t14.5 -1t15 -1t10 -0.5t12 0.5t18.5 1t18 1t10.5 0.5
q6 1 8 -1.5t1 -10.5q0 -5 -1 -27.5t-2 -49.5t-2 -51.5t-1 -31.5q0 -8 15 -31t38.5 -53t50.5 -62.5t51 -59.5q16 18 41.5 49.5t49.5 63t41.5 57.5t17.5 35q0 6 -1 30.5t-2.5 52.5t-3 51t-1.5 26q0 8 1.5 11t9.5 2q2 0 9 -0.5t16 -1t17 -1t12 -0.5t12 0.5t17 1t16.5 1
t10.5 0.5q8 0 10 -2.5t2 -13.5q0 -4 0.5 -21t0.5 -40.5t0.5 -51.5t0.5 -55zM443 821q-26 -23 -49 -36.5t-54 -30.5q-34 -18 -67 -33t-54 -20q-5 -1 -9 7q-2 5 -4.5 14t-4.5 16q-2 5 -2 10.5v9.5t9 9q17 8 41.5 20.5t45.5 26.5q26 17 45.5 32t34.5 27q5 4 7 4.5t7 -4.5
q5 -4 11 -10t14 -11q5 -4 13.5 -8.5t15.5 -8.5q10 -6 0 -14z" />
    <glyph glyph-name="yacute" unicode="&#xfd;" horiz-adv-x="476" 
d="M461 340v-30t-1 -30t-2 -25t-2 -15q0 -3 -10.5 -21t-25.5 -42t-31.5 -49.5t-28.5 -43.5q-8 -12 -24.5 -35t-34 -48t-32.5 -46.5t-21 -29.5q-29 -46 -49 -66q-4 -4 -17.5 -7t-30.5 -5q-14 -2 -32.5 -3.5t-24.5 -1.5q-8 0 -20.5 -0.5t-16.5 2.5q-5 5 -7 11t-5 14
q-3 9 -7.5 19t-6.5 15q-2 7 -3.5 13t2.5 8q8 5 23 5q30 0 46.5 2.5t34.5 13.5q4 2 11.5 12t15 22t13 23.5t4.5 16.5t-8 16.5t-18 26t-24 31t-26 32.5q-15 19 -29 39t-24.5 36t-17 27t-7.5 13q-3 8 -5 37.5t-2 58.5v31t0.5 33t0.5 29v19q0 8 3.5 9.5t8.5 1.5q2 0 8.5 -0.5
t13.5 -1t13.5 -1t9.5 -0.5h11t14.5 -0.5t13.5 -0.5h8q8 0 8 -10q-1 -23 -2 -44t-1 -38q0 -8 0.5 -20t1 -24.5l1 -25t1.5 -19.5q1 -14 18.5 -41.5t37.5 -55.5t38 -48.5t21 -20.5q2 0 17.5 20.5t33 47.5t32.5 54t17 40q3 20 3.5 47t0.5 42q0 7 -1 19t-2 25t-2 23.5t-1 15.5
q0 12 8 12q5 0 20.5 1t21.5 1q3 0 10.5 0.5t15 0.5t14 0.5t8.5 0.5q6 1 8 -0.5t4 -7.5q1 -6 2.5 -18.5t2.5 -28t1.5 -32.5t0.5 -31zM379 636q-26 -23 -49 -36.5t-54 -30.5q-34 -18 -67 -33t-54 -20q-5 -1 -9 7q-2 5 -4.5 14t-4.5 16q-2 5 -2 10.5v9.5t9 9q17 8 41.5 20.5
t45.5 26.5q26 17 45.5 32t34.5 27q5 4 7 4.5t7 -4.5q5 -4 11 -10t14 -11q5 -4 13.5 -8.5t15.5 -8.5q10 -6 0 -14z" />
    <glyph glyph-name="Thorn" unicode="&#xde;" horiz-adv-x="624" 
d="M481 365q0 28 -8 55.5t-26 49.5t-47 35t-72 13q-5 0 -28.5 -1t-50 -2.5t-48 -4t-21.5 -4.5q0 -3 -0.5 -27t-1 -52t-1 -52t-0.5 -27q0 -6 0.5 -22.5t0.5 -34.5t0.5 -34t0.5 -22q0 -3 4.5 -5t21 -3.5t48.5 -2.5t86 -1q74 0 108 39t34 103zM604 372q0 -56 -16 -101
t-45 -76.5t-70 -48.5t-90 -18q-16 -1 -40 -0.5t-50 1t-51.5 1.5t-45.5 2q-9 0 -12.5 -3.5t-3.5 -16.5q0 -9 0.5 -23.5t1.5 -29.5t2 -28t2 -19q1 -9 -1.5 -11.5t-12.5 -1.5q-7 1 -23.5 2.5t-33.5 1.5q-14 0 -30 -1.5t-21 -1.5q-8 0 -10.5 2t-1.5 13q0 2 0.5 22t1.5 49.5
t2.5 65t2.5 70.5t1.5 65.5t0.5 49.5q0 20 -0.5 50t-1.5 64.5t-2.5 69.5t-2.5 64.5t-2 51t-2 27.5q-1 11 2 16.5t14 4.5q3 0 10 -0.5t15.5 -1t16 -1t11.5 -0.5t12 0.5l16 1t15.5 1t9.5 0.5q9 0 11 -3t1 -13q-1 -8 -1.5 -24t-2.5 -35q7 -1 15 -1q6 0 13.5 -0.5t14.5 0.5
q45 2 82.5 4t53.5 2q54 0 99.5 -18t77.5 -50t50 -76.5t18 -98.5z" />
    <glyph glyph-name="thorn" unicode="&#xfe;" horiz-adv-x="574" 
d="M434 237q0 30 -10 57t-28 48t-42.5 33t-52.5 12q-26 0 -49 -11.5t-40 -32t-27 -48t-10 -59.5q0 -30 9.5 -57.5t26.5 -48.5t41 -33t53 -12q24 0 47 11.5t41.5 31.5t29.5 48t11 61zM548 235q0 -55 -20 -103.5t-55 -81.5q-31 -29 -68.5 -46t-81.5 -17q-22 0 -43.5 6.5
t-40 16.5t-33 22.5t-21.5 24.5q-13 17 -13 -2q0 -9 -0.5 -38t-0.5 -61.5v-60v-32.5q0 -16 -11 -16q-5 0 -20 1t-25 1q-9 0 -21 -0.5t-23 0.5q-11 0 -11 13q0 4 0.5 41.5t0.5 92t0.5 118.5t0.5 123q0 27 -1 74.5t-2.5 106.5t-3.5 125.5t-4 132.5q-1 9 2 11t11 3q14 1 28 1
t24 1q12 1 31 3.5t25 2.5q5 0 7 -2.5t1 -13.5q-1 -10 -3 -34.5t-2 -62.5q0 -8 -0.5 -33.5t-1.5 -54t-1 -53.5v-31q1 -8 3 -7.5t8 6.5q28 32 61.5 51t76.5 19q48 0 86.5 -18t65.5 -45q35 -35 55 -85.5t20 -98.5z" />
    <glyph glyph-name="Zcaron" unicode="&#x17d;" horiz-adv-x="505" 
d="M476 106q0 -3 -1 -10t-2.5 -15t-2.5 -15.5t-1 -11.5q-2 -10 -3.5 -26.5t-1.5 -20.5q0 -13 -12 -11q-2 0 -14 0.5t-30 1t-39 1t-39.5 1t-33 0.5h-18.5h-232q-8 0 -11.5 1.5t-4.5 8.5q0 4 -1 13t-2 18.5t-2.5 19t-2.5 14.5q-2 7 -3 13t2 11q1 1 12 18t26.5 42t34.5 54.5
t35.5 55.5t28.5 45t15 24t14 23t26.5 42.5t32.5 52t31.5 51.5t24.5 40.5t11 18.5q5 8 3.5 11.5t-12.5 3.5h-23h-48h-60h-60h-47.5h-21.5q-12 0 -10 10q0 1 1 6.5t2.5 12.5t2.5 13.5t2 9.5t2 10t2.5 14.5t2.5 14.5t1 10q1 6 5 6.5t13 0.5q4 0 17 -1t29 -2.5t32.5 -2.5
t27.5 -1h274q7 0 8.5 -1t2.5 -7q2 -5 3.5 -17.5t1.5 -19.5q1 -5 1.5 -15.5t0.5 -15.5q1 -8 -6 -18q-2 -3 -13 -20l-27.5 -42.5t-35 -55t-35.5 -56t-30 -47.5t-18 -28q-4 -7 -16 -26t-27.5 -44t-32 -51.5t-31 -49.5t-24.5 -38.5t-11 -17.5q-3 -6 -2 -8t9 -2q28 0 64 1t68.5 2
t56 2t28.5 1q4 0 14 1t21 2t22 2.5t19 2.5q13 2 16 0.5t1 -10.5zM392 850l-15 -15t-17.5 -19.5t-16.5 -20.5t-13 -17t-11 -17l-12 -20t-10.5 -18t-5.5 -11q-2 -5 -4 -6.5t-7 -1.5q-4 0 -11.5 0.5t-12.5 0.5t-14 -0.5t-13 -0.5q-5 0 -6 1.5t-3 6.5t-6 13.5t-10 18l-12 19
t-10 15.5q-5 7 -13.5 17t-17.5 20.5t-18 19.5l-15 15q-6 7 0 11q3 1 9 4t11 5t11.5 5.5t10.5 4.5q5 3 7 2t7 -3q17 -12 40.5 -33t39.5 -41q3 -4 4.5 -3t3.5 4q7 9 17 19.5l20 21t19.5 19.5t16.5 13q4 2 6.5 2.5t7.5 -1.5t11.5 -5.5t11.5 -5.5q13 -7 19 -8q5 -3 4.5 -4.5
t-3.5 -6.5z" />
    <glyph glyph-name="zcaron" unicode="&#x17e;" horiz-adv-x="421" 
d="M411 87q-2 -6 -5 -16t-5 -23q-2 -12 -3 -19l-2 -14q-1 -17 -9 -17q-3 0 -15 0.5t-26.5 1.5t-28.5 2t-21 1q-13 0 -39 0.5t-55 0.5q-32 0 -62 -1.5t-43 -2.5q-21 -2 -37.5 -3.5t-24.5 -1.5q-7 0 -9 1.5t-4 7.5q-2 8 -3 21.5t-3 21.5q-2 9 -1 17.5t1 18.5q0 9 10 16
q9 9 27.5 29t42.5 45t49.5 53t49.5 54t42.5 48t27.5 34q-13 0 -35.5 1t-42.5 1h-33t-44 -0.5t-39.5 -1t-20.5 -0.5q-6 0 -7 2t-1 8q0 9 1.5 18t2.5 20q1 9 4.5 25t3.5 21t4 5.5t10 0.5q9 0 26 -0.5t28 -1.5q5 0 33 -1.5t76 -1.5h46.5h45.5t37 -0.5t22 -1.5q8 -1 10 -2t2 -8
q0 -5 -0.5 -16t-0.5 -19t-0.5 -17t0.5 -15q1 -5 -0.5 -8t-4.5 -8q-2 -3 -18.5 -21.5t-40 -45.5t-51.5 -58.5t-54 -60.5t-46.5 -51.5t-28.5 -31.5q10 0 31 0.5t46.5 1t53.5 0.5t53 0.5t43.5 1t24.5 0.5q8 0 10 -1.5t0 -8.5zM359 639l-15 -15t-17.5 -19.5t-16.5 -20.5t-13 -17
t-11 -17l-12 -20t-10.5 -18t-5.5 -11q-2 -5 -4 -6.5t-7 -1.5q-4 0 -11.5 0.5t-12.5 0.5t-14 -0.5t-13 -0.5q-5 0 -6 1.5t-3 6.5t-6 13.5t-10 18l-12 19t-10 15.5q-5 7 -13.5 17t-17.5 20.5t-18 19.5l-15 15q-6 7 0 11q3 1 9 4t11 5t11.5 5.5t10.5 4.5q5 3 7 2t7 -3
q17 -12 40.5 -33t39.5 -41q3 -4 4.5 -3t3.5 4q7 9 17 19.5l20 21t19.5 19.5t16.5 13q4 2 6.5 2.5t7.5 -1.5t11.5 -5.5t11.5 -5.5q13 -7 19 -8q5 -3 4.5 -4.5t-3.5 -6.5z" />
    <glyph glyph-name="eth" unicode="&#xf0;" horiz-adv-x="576" 
d="M397 238q0 30 -11 55t-29.5 42.5t-42.5 27.5t-49 10q-30 0 -55 -11t-43 -29.5t-28 -43t-10 -52.5q0 -25 10 -51.5t28 -48.5t43 -36t55 -14t54.5 14t42 35.5t26.5 48.5t9 53zM580 608q-1 -10 -4.5 -19.5t-5.5 -21.5q-2 -8 -3.5 -20t-2.5 -17q0 -5 -11 -5q-2 0 -13 0.5
t-27 1.5q-2 -59 -3.5 -119.5t-1.5 -103.5v-39.5t0.5 -53.5t1.5 -60t2 -58t2 -49t2 -32q1 -6 0.5 -9t-5.5 -3h-10h-15.5t-16 0.5t-11.5 0.5q-8 0 -20.5 -1.5t-22.5 -1.5q-3 0 -4.5 6t-2.5 15t-1.5 19.5t-0.5 19.5q0 8 -2 9t-8 -7q-8 -10 -22 -22.5t-33.5 -23.5t-44 -18.5
t-54.5 -7.5q-47 0 -88.5 19.5t-70.5 51.5q-15 16 -26.5 38t-20 45.5t-12.5 47.5t-4 46q0 45 17 91t49 77q30 29 70.5 45.5t89.5 16.5q27 0 49.5 -6t40 -15t30.5 -20t21 -21q8 -7 10 -6.5t2 8.5v123q-32 -2 -62 -5t-44 -3q-6 -1 -8.5 3.5t-2.5 9.5t4 17l7 21q1 3 3 8.5
t4.5 11.5t4.5 10.5t2 6.5q2 5 4.5 5.5t8.5 0.5q9 0 33 -1t46 -2q-2 43 -3 57q-1 16 8 16q6 0 24.5 1.5t27.5 1.5q21 0 50 3q8 1 10.5 -1t2.5 -9q0 -3 -0.5 -20t-1.5 -45q16 1 30 1.5t24 1.5q11 0 9 -11z" />
    <glyph glyph-name="apple" horiz-adv-x="717" 
d="M458 322q0 3 -7.5 14t-20.5 23t-28 24.5t-28.5 23t-23.5 17.5t-12 7q-3 0 -20 -14.5t-35.5 -32t-33.5 -33.5t-15 -19q0 -4 18 -22.5t40 -39t42 -37t23 -16.5q4 0 22.5 14t37.5 34q17 18 29 35.5t12 21.5zM684 201q0 -4 -9 -10.5t-22 -15.5t-27.5 -19.5t-24.5 -22.5
t-21 -30t-21.5 -34.5t-19 -28.5t-14.5 -12q-8 0 -19.5 10t-23.5 23t-23 26.5t-19 21.5q-8 7 -19 16t-22 16t-20 12t-13 5t-13 -8t-20 -19t-22 -23t-19 -20t-20 -18t-24 -18.5t-22 -14t-16 -5.5q-12 0 -24 11t-23 25.5t-20.5 29t-17.5 22.5q-19 19 -36 30.5t-30.5 20.5
t-21.5 16.5t-8 18.5q0 12 7.5 20t18.5 15t24 13t24 13q8 5 18.5 12t18.5 14t13 12t3 7q-5 4 -19 16.5t-30.5 29t-33 34t-26.5 31.5q-7 9 -10 17t-3 20t5 23.5t14 24.5q5 7 18.5 22t29 31.5t29.5 31t20 19.5q12 10 22.5 18t18.5 8t16.5 -6.5t16.5 -23.5t17 -34t26 -34t35 -33
t28 -16q5 0 12.5 6.5t16 16t17 19.5t15.5 16q15 13 32 26t34.5 23.5t33 16.5t27.5 6q7 0 19.5 -8t25.5 -19.5t24.5 -22.5t17.5 -17t18.5 -19.5t25.5 -28t23 -27.5t10 -18t-7.5 -11.5t-19 -13.5t-25.5 -13.5t-27 -12.5t-27 -15t-25 -18t-17 -16t-3 -8q14 -4 34 -19.5
t40 -33.5q10 -9 23.5 -22.5t26 -28t21 -27.5t8.5 -21z" />
    <glyph glyph-name="Eth" unicode="&#xd0;" horiz-adv-x="700" 
d="M552 346q0 57 -17.5 104.5t-60.5 85.5q-35 31 -69.5 41t-79.5 10q-44 0 -69.5 -0.5t-38 -3t-16 -6.5t-3.5 -10q0 -3 -0.5 -22t-0.5 -45.5t-0.5 -56.5t-0.5 -54q31 2 63 3t50 2q12 0 10 -12q-2 -11 -5.5 -21t-6.5 -24q-2 -9 -3.5 -22.5t-2.5 -19.5q0 -5 -12 -5
q-2 0 -11 0.5t-22.5 1t-29.5 1t-31 1.5q0 -24 0.5 -53t1 -55t1 -45t0.5 -22q0 -6 4 -10.5t17.5 -6.5t39 -3t69.5 -1q55 0 93 13t70 53q23 28 42 76.5t19 105.5zM672 346q0 -73 -23.5 -135.5t-58.5 -106.5q-38 -48 -93 -77t-127 -27q-4 0 -26 0.5t-47.5 1.5t-47.5 1.5
t-26 0.5q-5 0 -25.5 -0.5t-44 -1t-44 -1.5t-24.5 -1q-8 -1 -10.5 2.5t-1.5 14.5q0 3 1 33t2.5 71.5t2.5 88t2 82.5q-26 -2 -48 -4l-33 -3q-7 -1 -10 4t-3 11t4.5 19t8.5 23q1 3 3.5 9t5 13t4.5 12t2 7q2 5 5 6t9 1q7 0 20.5 -0.5t30.5 -1.5q0 39 -1 86t-2 89t-2 71.5
t-1 32.5q-2 11 0.5 14.5t11.5 3.5h18t29 -0.5t32.5 -0.5h28.5h144q61 0 115.5 -16t95.5 -47q25 -20 47 -47.5t39 -63t27 -77t10 -87.5z" />
  </font>
</defs>
</svg>
